<svg viewBox="0 0 115 127" fill="currentColor" xmlns="http://www.w3.org/2000/svg">
<path d="M114.508 28.1442L94.1136 121.973C93.5008 124.806 90.5188 126.652 87.4705 126.083L35.6332 116.355C33.165 115.786 29.4869 114.601 28.9732 112.677L0.527908 20.6787C-0.333634 17.9082 1.42252 14.9837 4.40444 14.1988C21.4348 9.6427 38.4821 5.1021 55.5283 0.545676C58.5102 -0.23922 61.6579 1.37686 62.5027 4.14736L65.4348 13.598L110.099 21.9713C113.131 22.5407 115.119 25.3268 114.506 28.1435L114.508 28.1442ZM33.5298 110.615C33.1987 112.092 34.2423 113.585 35.849 113.878L87.9843 123.667C89.5914 123.96 91.1817 122.99 91.5129 121.497L111.907 27.6681C112.222 26.1905 111.178 24.6973 109.571 24.4048L57.4358 14.6154C55.8454 14.3229 54.2383 15.2925 53.9235 16.7857L33.5298 110.615ZM19.8458 12.6443L38.5987 74.7971L51.3049 16.2917C51.9345 13.475 54.9164 11.6278 57.948 12.1972L62.4873 13.044L59.9361 4.82474C59.489 3.36274 57.832 2.5159 56.2584 2.9313L19.8458 12.6443Z" fill="currentColor"/>
</svg>
