<svg viewBox="0 0 121 130" fill="currentColor" xmlns="http://www.w3.org/2000/svg">
  <mask id="path-1-inside-1_143_1718" fill="white">
    <path d="M2.55147 32.8651C5.7684 27.4841 12.9832 24.8935 22.5651 24.8935C26.9997 24.8935 31.9398 25.4472 37.2245 26.5542C38.2126 23.5874 39.3154 20.8416 40.533 18.2951C39.0396 16.989 38.3042 14.9738 38.7867 12.9365C39.407 10.3901 41.7737 8.66293 44.3703 8.66293C44.807 8.66293 45.2433 8.70706 45.6799 8.79579C45.8409 8.83992 46.0246 8.88451 46.1856 8.97277C50.3208 3.74701 55.1462 0.757812 60.2478 0.757812C69.6683 0.757812 78.0316 10.8991 83.271 26.5543C88.5558 25.4473 93.4959 24.8936 97.9304 24.8936C107.512 24.8936 114.727 27.4842 117.943 32.8651C122.653 40.7257 117.736 52.7717 106.27 64.9725C108.913 67.7624 111.187 70.5304 113.071 73.2539C113.485 73.1434 113.944 73.0988 114.404 73.0988C117.575 73.0988 120.148 75.5788 120.148 78.6344C120.148 80.2727 119.413 81.7564 118.218 82.7528C120.24 88.2449 120.287 93.1826 117.943 97.0798C114.726 102.461 107.511 105.051 97.9303 105.051C93.4957 105.051 88.5556 104.498 83.2709 103.391C78.0319 119.045 69.669 129.187 60.2477 129.187C50.8264 129.187 42.4639 119.045 37.2245 103.391C35.2487 103.812 33.2956 104.144 31.4115 104.409C31.4115 104.432 31.3883 104.476 31.3883 104.498C30.768 107.045 28.4013 108.794 25.782 108.794C25.3684 108.794 24.9317 108.75 24.4954 108.639C22.4733 108.196 20.9569 106.779 20.3366 105.007C11.858 104.631 5.51555 102.04 2.55281 97.0803C-2.15746 89.2197 2.75959 77.1737 14.2253 64.973C2.75912 52.771 -2.15796 40.726 2.55231 32.8656L2.55147 32.8651ZM22.5638 28.2149C14.0162 28.2149 7.95004 30.4516 5.51544 34.5257C1.90808 40.5705 5.86009 51.155 16.5212 62.5804C21.0247 58.1299 26.3553 53.679 32.3751 49.4497C33.1565 42.3417 34.4661 35.6983 36.2125 29.7643C31.3181 28.7466 26.7228 28.2149 22.5638 28.2149ZM31.9616 53.8567C26.9067 57.5324 22.518 61.2746 18.8188 64.9727C22.5182 68.6707 26.907 72.4128 31.9616 76.0886C31.6628 72.4792 31.5249 68.7589 31.5249 64.9727C31.5249 61.1859 31.6628 57.4661 31.9616 53.8567ZM34.9719 64.9727C34.9719 69.7553 35.2018 74.3392 35.6154 78.6789C39.2917 81.2032 43.3127 83.6831 47.6093 86.0744C51.7913 88.3994 56.019 90.4809 60.2463 92.3407C64.4741 90.4807 68.7017 88.3992 72.8833 86.0744C77.0879 83.7273 81.1093 81.2472 84.8772 78.6343C85.2908 74.2944 85.5202 69.7332 85.5202 64.9721C85.5202 60.2109 85.2903 55.6496 84.8767 51.3098C81.1084 48.6969 77.0874 46.2169 72.8828 43.8697C68.7008 41.5448 64.4731 39.4633 60.2458 37.6034C56.018 39.4634 51.7904 41.5449 47.6088 43.8697C43.3122 46.261 39.2912 48.7411 35.6149 51.2657C35.2013 55.6056 34.9719 60.1897 34.9719 64.9727ZM36.1205 46.9034C39.2223 44.8664 42.485 42.8955 45.8857 40.9915C49.2632 39.1092 52.6638 37.3821 56.0418 35.832C50.3897 33.5736 44.8287 31.7801 39.5216 30.4957C38.0741 35.3888 36.9019 40.9024 36.1205 46.9034ZM60.2469 4.07932C56.4095 4.07932 52.5265 6.4706 48.9653 10.877C49.9534 12.1391 50.3669 13.778 49.9766 15.4385C49.3562 17.985 47.0126 19.7344 44.3929 19.7344C44.1403 19.7344 43.8646 19.7121 43.6116 19.6679C42.4856 21.9929 41.4516 24.5393 40.5098 27.3074C46.7595 28.8133 53.4231 31.0495 60.2469 33.9504C67.0713 31.0499 73.7341 28.8133 79.9841 27.3074C75.043 12.6938 67.4841 4.07948 60.2457 4.07948L60.2469 4.07932ZM80.9725 30.4953C75.6645 31.7797 70.104 33.5732 64.4522 35.8317C67.8297 37.3818 71.2304 39.1089 74.6083 40.9911C78.009 42.8952 81.2717 44.8661 84.3735 46.903C83.5922 40.9029 82.42 35.3894 80.9725 30.4953ZM108.453 57.2443C115.645 47.9001 118.034 39.64 114.978 34.5254C112.543 30.4511 106.477 28.2145 97.9299 28.2145C93.7711 28.2145 89.1756 28.7459 84.2811 29.7646C86.0269 35.6987 87.3371 42.3423 88.1184 49.45C94.1383 53.6793 99.4463 58.1076 103.927 62.5367C105.58 60.7868 107.074 59.0156 108.453 57.2443ZM88.5551 76.0437C93.4032 72.479 97.7689 68.7587 101.583 64.9724C97.7691 61.1857 93.4035 57.4658 88.5551 53.9011C88.8308 57.4881 88.9687 61.2079 88.9687 64.9724C88.9687 68.7369 88.8308 72.4568 88.5551 76.0437ZM97.9299 101.73C106.478 101.73 112.544 99.4929 114.978 95.4187C116.701 92.5401 116.701 88.6429 115.07 84.1259C114.84 84.1482 114.633 84.17 114.404 84.17C111.233 84.17 108.66 81.69 108.66 78.6343C108.66 77.2171 109.211 75.955 110.107 74.9586C109.601 74.2057 109.05 73.4527 108.453 72.7002C107.074 70.9286 105.58 69.1573 103.926 67.4079C99.4457 71.8366 94.1378 76.2653 88.1178 80.4947C87.3365 87.6023 86.0269 94.2449 84.2804 100.18C89.1748 101.199 93.771 101.73 97.9299 101.73ZM84.3736 83.0408C81.2718 85.0777 78.0091 87.0486 74.6084 88.9527C71.231 90.8349 67.8303 92.562 64.4523 94.1121C70.1045 96.3705 75.6655 98.164 80.9726 99.4484C82.42 94.5553 83.5923 89.0417 84.3736 83.0408ZM60.2473 125.865C67.4852 125.865 75.0449 117.251 79.9844 102.637C73.7347 101.131 67.0711 98.8948 60.2473 95.9939C53.4229 98.8944 46.7601 101.131 40.5101 102.637C45.4502 117.251 53.0101 125.865 60.2473 125.865ZM39.5217 99.4488C44.8297 98.1644 50.3901 96.3709 56.0419 94.1124C52.6645 92.5624 49.2638 90.8352 45.8858 88.953C42.4852 87.0485 39.2225 85.078 36.1207 83.0411C36.902 89.0413 38.0741 94.5547 39.5217 99.4488ZM5.51502 95.4186C7.72072 99.1167 12.9367 101.309 20.2892 101.663C21.0016 99.2936 23.2763 97.7217 25.7808 97.7217C26.1944 97.7217 26.6311 97.7658 27.0673 97.8545C28.9516 98.2754 30.3758 99.5152 31.0651 101.109C32.7426 100.865 34.4658 100.556 36.2121 100.179C34.4663 94.2453 33.1561 87.6017 32.3747 80.494C26.3549 76.2647 21.0243 71.8141 16.5208 67.3633C5.86004 78.7885 1.90791 89.3741 5.51502 95.4186ZM51.0555 64.9714C51.0555 69.865 55.1685 73.8287 60.2465 73.8287C65.324 73.8287 69.437 69.865 69.437 64.9714C69.437 60.0777 65.324 56.114 60.246 56.114C55.1685 56.114 51.0555 60.0777 51.0555 64.9714Z"/>
  </mask>
  <path d="M2.55147 32.8651C5.7684 27.4841 12.9832 24.8935 22.5651 24.8935C26.9997 24.8935 31.9398 25.4472 37.2245 26.5542C38.2126 23.5874 39.3154 20.8416 40.533 18.2951C39.0396 16.989 38.3042 14.9738 38.7867 12.9365C39.407 10.3901 41.7737 8.66293 44.3703 8.66293C44.807 8.66293 45.2433 8.70706 45.6799 8.79579C45.8409 8.83992 46.0246 8.88451 46.1856 8.97277C50.3208 3.74701 55.1462 0.757812 60.2478 0.757812C69.6683 0.757812 78.0316 10.8991 83.271 26.5543C88.5558 25.4473 93.4959 24.8936 97.9304 24.8936C107.512 24.8936 114.727 27.4842 117.943 32.8651C122.653 40.7257 117.736 52.7717 106.27 64.9725C108.913 67.7624 111.187 70.5304 113.071 73.2539C113.485 73.1434 113.944 73.0988 114.404 73.0988C117.575 73.0988 120.148 75.5788 120.148 78.6344C120.148 80.2727 119.413 81.7564 118.218 82.7528C120.24 88.2449 120.287 93.1826 117.943 97.0798C114.726 102.461 107.511 105.051 97.9303 105.051C93.4957 105.051 88.5556 104.498 83.2709 103.391C78.0319 119.045 69.669 129.187 60.2477 129.187C50.8264 129.187 42.4639 119.045 37.2245 103.391C35.2487 103.812 33.2956 104.144 31.4115 104.409C31.4115 104.432 31.3883 104.476 31.3883 104.498C30.768 107.045 28.4013 108.794 25.782 108.794C25.3684 108.794 24.9317 108.75 24.4954 108.639C22.4733 108.196 20.9569 106.779 20.3366 105.007C11.858 104.631 5.51555 102.04 2.55281 97.0803C-2.15746 89.2197 2.75959 77.1737 14.2253 64.973C2.75912 52.771 -2.15796 40.726 2.55231 32.8656L2.55147 32.8651ZM22.5638 28.2149C14.0162 28.2149 7.95004 30.4516 5.51544 34.5257C1.90808 40.5705 5.86009 51.155 16.5212 62.5804C21.0247 58.1299 26.3553 53.679 32.3751 49.4497C33.1565 42.3417 34.4661 35.6983 36.2125 29.7643C31.3181 28.7466 26.7228 28.2149 22.5638 28.2149ZM31.9616 53.8567C26.9067 57.5324 22.518 61.2746 18.8188 64.9727C22.5182 68.6707 26.907 72.4128 31.9616 76.0886C31.6628 72.4792 31.5249 68.7589 31.5249 64.9727C31.5249 61.1859 31.6628 57.4661 31.9616 53.8567ZM34.9719 64.9727C34.9719 69.7553 35.2018 74.3392 35.6154 78.6789C39.2917 81.2032 43.3127 83.6831 47.6093 86.0744C51.7913 88.3994 56.019 90.4809 60.2463 92.3407C64.4741 90.4807 68.7017 88.3992 72.8833 86.0744C77.0879 83.7273 81.1093 81.2472 84.8772 78.6343C85.2908 74.2944 85.5202 69.7332 85.5202 64.9721C85.5202 60.2109 85.2903 55.6496 84.8767 51.3098C81.1084 48.6969 77.0874 46.2169 72.8828 43.8697C68.7008 41.5448 64.4731 39.4633 60.2458 37.6034C56.018 39.4634 51.7904 41.5449 47.6088 43.8697C43.3122 46.261 39.2912 48.7411 35.6149 51.2657C35.2013 55.6056 34.9719 60.1897 34.9719 64.9727ZM36.1205 46.9034C39.2223 44.8664 42.485 42.8955 45.8857 40.9915C49.2632 39.1092 52.6638 37.3821 56.0418 35.832C50.3897 33.5736 44.8287 31.7801 39.5216 30.4957C38.0741 35.3888 36.9019 40.9024 36.1205 46.9034ZM60.2469 4.07932C56.4095 4.07932 52.5265 6.4706 48.9653 10.877C49.9534 12.1391 50.3669 13.778 49.9766 15.4385C49.3562 17.985 47.0126 19.7344 44.3929 19.7344C44.1403 19.7344 43.8646 19.7121 43.6116 19.6679C42.4856 21.9929 41.4516 24.5393 40.5098 27.3074C46.7595 28.8133 53.4231 31.0495 60.2469 33.9504C67.0713 31.0499 73.7341 28.8133 79.9841 27.3074C75.043 12.6938 67.4841 4.07948 60.2457 4.07948L60.2469 4.07932ZM80.9725 30.4953C75.6645 31.7797 70.104 33.5732 64.4522 35.8317C67.8297 37.3818 71.2304 39.1089 74.6083 40.9911C78.009 42.8952 81.2717 44.8661 84.3735 46.903C83.5922 40.9029 82.42 35.3894 80.9725 30.4953ZM108.453 57.2443C115.645 47.9001 118.034 39.64 114.978 34.5254C112.543 30.4511 106.477 28.2145 97.9299 28.2145C93.7711 28.2145 89.1756 28.7459 84.2811 29.7646C86.0269 35.6987 87.3371 42.3423 88.1184 49.45C94.1383 53.6793 99.4463 58.1076 103.927 62.5367C105.58 60.7868 107.074 59.0156 108.453 57.2443ZM88.5551 76.0437C93.4032 72.479 97.7689 68.7587 101.583 64.9724C97.7691 61.1857 93.4035 57.4658 88.5551 53.9011C88.8308 57.4881 88.9687 61.2079 88.9687 64.9724C88.9687 68.7369 88.8308 72.4568 88.5551 76.0437ZM97.9299 101.73C106.478 101.73 112.544 99.4929 114.978 95.4187C116.701 92.5401 116.701 88.6429 115.07 84.1259C114.84 84.1482 114.633 84.17 114.404 84.17C111.233 84.17 108.66 81.69 108.66 78.6343C108.66 77.2171 109.211 75.955 110.107 74.9586C109.601 74.2057 109.05 73.4527 108.453 72.7002C107.074 70.9286 105.58 69.1573 103.926 67.4079C99.4457 71.8366 94.1378 76.2653 88.1178 80.4947C87.3365 87.6023 86.0269 94.2449 84.2804 100.18C89.1748 101.199 93.771 101.73 97.9299 101.73ZM84.3736 83.0408C81.2718 85.0777 78.0091 87.0486 74.6084 88.9527C71.231 90.8349 67.8303 92.562 64.4523 94.1121C70.1045 96.3705 75.6655 98.164 80.9726 99.4484C82.42 94.5553 83.5923 89.0417 84.3736 83.0408ZM60.2473 125.865C67.4852 125.865 75.0449 117.251 79.9844 102.637C73.7347 101.131 67.0711 98.8948 60.2473 95.9939C53.4229 98.8944 46.7601 101.131 40.5101 102.637C45.4502 117.251 53.0101 125.865 60.2473 125.865ZM39.5217 99.4488C44.8297 98.1644 50.3901 96.3709 56.0419 94.1124C52.6645 92.5624 49.2638 90.8352 45.8858 88.953C42.4852 87.0485 39.2225 85.078 36.1207 83.0411C36.902 89.0413 38.0741 94.5547 39.5217 99.4488ZM5.51502 95.4186C7.72072 99.1167 12.9367 101.309 20.2892 101.663C21.0016 99.2936 23.2763 97.7217 25.7808 97.7217C26.1944 97.7217 26.6311 97.7658 27.0673 97.8545C28.9516 98.2754 30.3758 99.5152 31.0651 101.109C32.7426 100.865 34.4658 100.556 36.2121 100.179C34.4663 94.2453 33.1561 87.6017 32.3747 80.494C26.3549 76.2647 21.0243 71.8141 16.5208 67.3633C5.86004 78.7885 1.90791 89.3741 5.51502 95.4186ZM51.0555 64.9714C51.0555 69.865 55.1685 73.8287 60.2465 73.8287C65.324 73.8287 69.437 69.865 69.437 64.9714C69.437 60.0777 65.324 56.114 60.246 56.114C55.1685 56.114 51.0555 60.0777 51.0555 64.9714Z" fill="currentColor" stroke="currentColor" stroke-width="2" mask="url(#path-1-inside-1_143_1718)"/>
</svg>
