<svg viewBox="0 0 110 92" fill="none" xmlns="http://www.w3.org/2000/svg">
  <mask id="path-1-inside-1_143_1740" fill="white">
    <path d="M85.5902 11.2256C86.3924 11.1344 87.2052 11.0891 88.0249 11.0891C94.0374 11.0891 99.4816 13.5711 103.418 17.5816C107.354 21.5886 109.795 27.1313 109.795 33.252C109.795 39.3626 107.357 44.9016 103.418 48.9117C99.4818 52.9294 94.0373 55.4114 88.0249 55.4114C86.8643 55.4114 85.6937 55.3099 84.5331 55.1204C84.0959 55.0504 83.6618 54.9626 83.2351 54.8644C81.7577 58.356 79.6398 61.5042 77.0365 64.1582C75.5419 65.6797 73.8855 67.0401 72.0983 68.2036H83.3206C86.327 68.2036 89.0611 69.4552 91.0377 71.4674C93.0143 73.4797 94.2437 76.2634 94.2437 79.3237V88.8418C94.2437 90.1321 93.2176 91.1801 91.9468 91.1801H18.7214C17.454 91.1801 16.4246 90.1355 16.4246 88.8418V79.3237C16.4246 76.263 17.6539 73.4797 19.6305 71.4674C21.621 69.4552 24.3483 68.2036 27.3477 68.2036H38.5671C36.7833 67.0397 35.1339 65.6832 33.6428 64.165C31.0324 61.5076 28.9112 58.3561 27.4338 54.8644C27.0067 54.9626 26.5796 55.0466 26.1458 55.117L26.0699 55.1277C24.9299 55.3133 23.7798 55.408 22.6435 55.408C16.6311 55.408 11.1868 52.926 7.2506 48.9155C3.31456 44.9085 0.873047 39.3658 0.873047 33.2451C0.873047 27.1244 3.31112 21.5819 7.2506 17.5747C11.1866 13.5677 16.6312 11.0822 22.6435 11.0822C23.4596 11.0822 24.2756 11.1278 25.0749 11.2187V2.9418C25.0749 1.65152 26.101 0.603516 27.3718 0.603516H83.293C84.5605 0.603516 85.5899 1.64811 85.5899 2.9418V11.2187L85.5902 11.2256ZM57.4588 17.5816L61.1506 27.0469L71.1408 27.6955C72.4046 27.7761 73.3619 28.8838 73.2827 30.1707C73.2412 30.8402 72.9281 31.4256 72.4562 31.8185L64.7596 38.3217L67.2392 48.1941C67.5527 49.4421 66.8087 50.7145 65.5828 51.0337C64.8908 51.2124 64.188 51.0477 63.6544 50.648L55.338 45.2841L46.877 50.7389C45.8094 51.4225 44.394 51.0965 43.7225 50.0097C43.3747 49.4486 43.2921 48.7932 43.4434 48.1937L45.9159 38.3184L38.216 31.8187C37.2415 30.9982 37.1036 29.5261 37.9096 28.5341C38.3505 27.9909 38.9838 27.7033 39.6247 27.6892L49.5213 27.0441L53.213 17.5788C53.6778 16.3833 55.0073 15.8013 56.1813 16.2748C56.7907 16.5202 57.2384 17.004 57.4622 17.5788L57.4588 17.5816ZM57.4383 30.1388L55.3342 24.7434L53.2851 29.9985C53.0026 30.8817 52.2142 31.5482 51.2498 31.6075L45.5748 31.9757L49.8864 35.6145C50.5922 36.1649 50.9472 37.1113 50.7129 38.044L49.3045 43.6601L54.0981 40.5717C54.8212 40.0985 55.7784 40.0635 56.5534 40.5611L61.3642 43.6635L59.9559 38.0474C59.7459 37.1991 60.0146 36.2664 60.717 35.6742L65.094 31.9791L59.419 31.6109C58.5648 31.5511 57.773 31.0079 57.439 30.1418L57.4383 30.1388ZM56.4533 72.877H27.3482C25.6058 72.877 24.0182 73.6027 22.8714 74.7663C21.728 75.9371 21.0155 77.55 21.0155 79.3238V86.5036H89.6503V79.3238C89.6503 77.5534 88.9374 75.9406 87.7872 74.7735C86.6405 73.6061 85.0566 72.8769 83.3175 72.8769H56.4498L56.4533 72.877ZM84.7148 50.4192L85.2521 50.5173C86.1268 50.6611 87.0564 50.7383 88.0276 50.7383C92.773 50.7383 97.0671 48.7785 100.177 45.6163C103.283 42.4575 105.208 38.0827 105.208 33.2481C105.208 28.4171 103.283 24.0457 100.177 20.8798C97.0706 17.7176 92.7729 15.7578 88.0276 15.7578C87.3113 15.7578 86.6055 15.8035 85.9203 15.8875L85.5929 15.9332V43.2152C85.5929 45.6972 84.3562 50.419 84.3596 50.4192H84.7148ZM25.9564 50.4192C25.3847 48.109 25.0783 45.697 25.0783 43.215V15.933L24.751 15.8874C24.0657 15.8033 23.3598 15.7576 22.6469 15.7576C17.9015 15.7576 13.6075 17.7174 10.4977 20.8796C7.39146 24.0419 5.46639 28.417 5.46639 33.2479C5.46639 38.0788 7.39146 42.4503 10.4977 45.6161C13.6039 48.7783 17.9016 50.7381 22.6469 50.7381C23.5904 50.7381 24.4961 50.6681 25.3503 50.5312L25.4157 50.5171L25.9564 50.4192ZM80.9995 5.28351H29.6688V43.215C29.6688 50.0898 32.4304 56.337 36.8762 60.8661C41.3254 65.392 47.4615 68.2035 54.2148 68.2035H56.4529C63.206 68.2035 69.3425 65.392 73.7915 60.8661C78.2373 56.3368 80.9989 50.09 80.9989 43.215L80.9995 5.28351Z"/>
  </mask>
  <path d="M85.5902 11.2256C86.3924 11.1344 87.2052 11.0891 88.0249 11.0891C94.0374 11.0891 99.4816 13.5711 103.418 17.5816C107.354 21.5886 109.795 27.1313 109.795 33.252C109.795 39.3626 107.357 44.9016 103.418 48.9117C99.4818 52.9294 94.0373 55.4114 88.0249 55.4114C86.8643 55.4114 85.6937 55.3099 84.5331 55.1204C84.0959 55.0504 83.6618 54.9626 83.2351 54.8644C81.7577 58.356 79.6398 61.5042 77.0365 64.1582C75.5419 65.6797 73.8855 67.0401 72.0983 68.2036H83.3206C86.327 68.2036 89.0611 69.4552 91.0377 71.4674C93.0143 73.4797 94.2437 76.2634 94.2437 79.3237V88.8418C94.2437 90.1321 93.2176 91.1801 91.9468 91.1801H18.7214C17.454 91.1801 16.4246 90.1355 16.4246 88.8418V79.3237C16.4246 76.263 17.6539 73.4797 19.6305 71.4674C21.621 69.4552 24.3483 68.2036 27.3477 68.2036H38.5671C36.7833 67.0397 35.1339 65.6832 33.6428 64.165C31.0324 61.5076 28.9112 58.3561 27.4338 54.8644C27.0067 54.9626 26.5796 55.0466 26.1458 55.117L26.0699 55.1277C24.9299 55.3133 23.7798 55.408 22.6435 55.408C16.6311 55.408 11.1868 52.926 7.2506 48.9155C3.31456 44.9085 0.873047 39.3658 0.873047 33.2451C0.873047 27.1244 3.31112 21.5819 7.2506 17.5747C11.1866 13.5677 16.6312 11.0822 22.6435 11.0822C23.4596 11.0822 24.2756 11.1278 25.0749 11.2187V2.9418C25.0749 1.65152 26.101 0.603516 27.3718 0.603516H83.293C84.5605 0.603516 85.5899 1.64811 85.5899 2.9418V11.2187L85.5902 11.2256ZM57.4588 17.5816L61.1506 27.0469L71.1408 27.6955C72.4046 27.7761 73.3619 28.8838 73.2827 30.1707C73.2412 30.8402 72.9281 31.4256 72.4562 31.8185L64.7596 38.3217L67.2392 48.1941C67.5527 49.4421 66.8087 50.7145 65.5828 51.0337C64.8908 51.2124 64.188 51.0477 63.6544 50.648L55.338 45.2841L46.877 50.7389C45.8094 51.4225 44.394 51.0965 43.7225 50.0097C43.3747 49.4486 43.2921 48.7932 43.4434 48.1937L45.9159 38.3184L38.216 31.8187C37.2415 30.9982 37.1036 29.5261 37.9096 28.5341C38.3505 27.9909 38.9838 27.7033 39.6247 27.6892L49.5213 27.0441L53.213 17.5788C53.6778 16.3833 55.0073 15.8013 56.1813 16.2748C56.7907 16.5202 57.2384 17.004 57.4622 17.5788L57.4588 17.5816ZM57.4383 30.1388L55.3342 24.7434L53.2851 29.9985C53.0026 30.8817 52.2142 31.5482 51.2498 31.6075L45.5748 31.9757L49.8864 35.6145C50.5922 36.1649 50.9472 37.1113 50.7129 38.044L49.3045 43.6601L54.0981 40.5717C54.8212 40.0985 55.7784 40.0635 56.5534 40.5611L61.3642 43.6635L59.9559 38.0474C59.7459 37.1991 60.0146 36.2664 60.717 35.6742L65.094 31.9791L59.419 31.6109C58.5648 31.5511 57.773 31.0079 57.439 30.1418L57.4383 30.1388ZM56.4533 72.877H27.3482C25.6058 72.877 24.0182 73.6027 22.8714 74.7663C21.728 75.9371 21.0155 77.55 21.0155 79.3238V86.5036H89.6503V79.3238C89.6503 77.5534 88.9374 75.9406 87.7872 74.7735C86.6405 73.6061 85.0566 72.8769 83.3175 72.8769H56.4498L56.4533 72.877ZM84.7148 50.4192L85.2521 50.5173C86.1268 50.6611 87.0564 50.7383 88.0276 50.7383C92.773 50.7383 97.0671 48.7785 100.177 45.6163C103.283 42.4575 105.208 38.0827 105.208 33.2481C105.208 28.4171 103.283 24.0457 100.177 20.8798C97.0706 17.7176 92.7729 15.7578 88.0276 15.7578C87.3113 15.7578 86.6055 15.8035 85.9203 15.8875L85.5929 15.9332V43.2152C85.5929 45.6972 84.3562 50.419 84.3596 50.4192H84.7148ZM25.9564 50.4192C25.3847 48.109 25.0783 45.697 25.0783 43.215V15.933L24.751 15.8874C24.0657 15.8033 23.3598 15.7576 22.6469 15.7576C17.9015 15.7576 13.6075 17.7174 10.4977 20.8796C7.39146 24.0419 5.46639 28.417 5.46639 33.2479C5.46639 38.0788 7.39146 42.4503 10.4977 45.6161C13.6039 48.7783 17.9016 50.7381 22.6469 50.7381C23.5904 50.7381 24.4961 50.6681 25.3503 50.5312L25.4157 50.5171L25.9564 50.4192ZM80.9995 5.28351H29.6688V43.215C29.6688 50.0898 32.4304 56.337 36.8762 60.8661C41.3254 65.392 47.4615 68.2035 54.2148 68.2035H56.4529C63.206 68.2035 69.3425 65.392 73.7915 60.8661C78.2373 56.3368 80.9989 50.09 80.9989 43.215L80.9995 5.28351Z" fill="currentColor" stroke="currentColor" stroke-width="2" mask="url(#path-1-inside-1_143_1740)"/>
</svg>
