<svg viewBox="0 0 121 127" fill="currentColor" xmlns="http://www.w3.org/2000/svg">
  <mask id="path-1-inside-1_143_1722" fill="white">
    <path d="M60.6274 20.6537C72.6777 20.6537 83.5912 25.4363 91.4871 33.1653C99.3829 40.8942 104.269 51.5773 104.269 63.3722C104.269 75.1671 99.383 85.8503 91.4871 93.5791C83.5911 101.308 72.6772 106.091 60.6274 106.091C48.5777 106.091 37.6636 101.308 29.7678 93.5791C21.872 85.8502 16.9858 75.1671 16.9858 63.3722C16.9858 51.5773 21.8719 40.8941 29.7678 33.1653C37.6638 25.4365 48.5777 20.6537 60.6274 20.6537ZM60.8925 0.189453C63.1415 0.189453 65.1791 1.08503 66.6585 2.52988C67.6948 3.53717 68.4516 4.81598 68.8156 6.244C83.188 8.11129 95.9467 14.9951 105.18 25.0342C114.682 35.3642 120.467 49.0403 120.467 64.0313C120.467 77.5696 115.74 90.0405 107.817 99.9448C99.727 110.056 88.2966 117.488 75.1625 120.646C73.9859 120.929 72.796 120.225 72.5065 119.073C72.2171 117.922 72.9363 116.757 74.1129 116.474C86.2844 113.548 96.8726 106.664 104.363 97.3029C111.693 88.1396 116.067 76.5862 116.067 64.0315C116.067 50.1414 110.711 37.4742 101.913 27.911C93.4528 18.7136 81.8098 12.3744 68.6904 10.5628C68.2917 11.8126 67.5902 12.9302 66.6686 13.8328L66.5263 13.96C65.0588 15.3304 63.0766 16.1732 60.8934 16.1732C58.6409 16.1732 56.5968 15.2776 55.1202 13.8328C53.6442 12.388 52.7292 10.3864 52.7292 8.18159C52.7292 5.97674 53.6441 3.97579 55.1202 2.53042C56.5961 1.08564 58.6409 0.189991 60.8934 0.189991L60.8925 0.189453ZM63.5571 5.57414C62.8795 4.90947 61.9354 4.4972 60.8925 4.4972C59.8548 4.4972 58.9103 4.91087 58.2312 5.57601C57.5522 6.24068 57.1291 7.16521 57.1291 8.181C57.1291 9.19679 57.5517 10.1213 58.2312 10.786C58.9102 11.4507 59.8547 11.8648 60.8925 11.8648C61.8905 11.8648 62.7968 11.4885 63.4687 10.8762L63.5551 10.7865C64.2341 10.1218 64.6572 9.19726 64.6572 8.18147C64.6572 7.16576 64.2347 6.24065 63.5571 5.57414ZM52.439 120.497C38.0605 118.629 25.2993 111.74 16.0648 101.697C6.56834 91.3649 0.789062 77.6955 0.789062 62.7093C0.789062 49.171 5.51556 36.7 13.439 26.7958C21.5287 16.6845 32.9592 9.25248 46.0932 6.09466C47.2698 5.8114 48.4598 6.51534 48.7492 7.66711C49.0387 8.81888 48.3195 9.9836 47.1428 10.267C34.9713 13.1925 24.3832 20.0767 16.8932 29.4376C9.56225 38.6009 5.18916 50.1543 5.18916 62.709C5.18916 76.592 10.5412 89.2544 19.333 98.82C27.7951 108.024 39.4423 114.364 52.5666 116.177C52.9653 114.929 53.6668 113.811 54.5884 112.908L54.7307 112.781C56.1981 111.411 58.1804 110.568 60.3635 110.568C62.616 110.568 64.6602 111.464 66.1368 112.909C67.6128 114.353 68.5278 116.355 68.5278 118.56C68.5278 120.765 67.6129 122.766 66.1368 124.211C64.6608 125.656 62.616 126.551 60.3635 126.551C58.1145 126.551 56.0769 125.656 54.5975 124.211C53.5612 123.204 52.8044 121.925 52.4404 120.497L52.439 120.497ZM57.6975 121.166C58.3751 121.831 59.3192 122.243 60.3621 122.243C61.3997 122.243 62.3443 121.83 63.0233 121.165C63.7024 120.5 64.1255 119.575 64.1255 118.56C64.1255 117.544 63.7028 116.619 63.0233 115.955C62.3443 115.29 61.3998 114.876 60.3621 114.876C59.364 114.876 58.4577 115.252 57.7859 115.864L57.6994 115.954C57.0204 116.619 56.5973 117.543 56.5973 118.559C56.5973 119.575 57.0199 120.5 57.6975 121.166ZM30.1568 87.5779C33.8715 85.5628 37.5847 83.9147 41.3012 82.6358C38.5101 76.9492 36.9577 71.2439 36.6458 65.5245H21.4471C21.9184 73.8619 25.1061 81.492 30.1568 87.5779ZM45.5475 81.335C55.6002 78.6366 65.6532 78.6366 75.7054 81.335C78.3791 76.0484 79.8795 70.7792 80.2017 65.5256H41.0514C41.3738 70.778 42.872 76.049 45.5475 81.335ZM79.951 82.6358C83.6675 83.9147 87.3822 85.5633 91.0969 87.5779C96.1476 81.4926 99.3356 73.8625 99.8068 65.5246H84.6081C84.2963 71.2435 82.7421 76.9468 79.951 82.6358ZM88.0512 90.846C84.6551 89.0651 81.2594 87.6133 77.8633 86.4958C75.0216 91.3107 71.2898 96.1139 66.6654 100.903L66.5408 101.022L66.1716 101.4C74.6319 100.228 82.2275 96.4172 88.0512 90.846ZM73.5175 85.2426C64.9235 83.1243 56.331 83.1243 47.7372 85.2426C50.3363 89.4709 53.6871 93.709 57.7866 97.9577C58.6963 98.899 59.6441 99.8437 60.6283 100.787C61.5953 99.8624 62.5064 98.9566 63.3626 98.0746L63.4667 97.9591C67.5662 93.7107 70.9168 89.4724 73.5175 85.2426ZM43.3889 86.4944C39.9913 87.6139 36.5985 89.0656 33.2029 90.846C39.0244 96.4139 46.6169 100.225 55.0714 101.399L54.5881 100.902C49.9639 96.1107 46.2306 91.3071 43.3889 86.4944ZM33.201 35.8986C36.5985 37.6795 39.9946 39.1314 43.3889 40.2503C46.2321 35.4354 49.9643 30.6307 54.5886 25.8397L54.7133 25.721L55.0824 25.3428C46.6222 26.5146 39.0247 30.3274 33.201 35.8986ZM47.7347 41.5021C56.3287 43.6204 64.9236 43.6204 73.5175 41.5021C70.917 37.2723 67.5676 33.0342 63.4666 28.7858C62.5569 27.8444 61.6091 26.8997 60.6249 25.9569C59.6579 26.881 58.7468 27.7869 57.8906 28.6689L57.7865 28.7844C53.6856 33.0328 50.3328 37.2728 47.7338 41.503L47.7347 41.5021ZM77.8645 40.2489C81.2621 39.128 84.6564 37.6776 88.0505 35.8972C82.2291 30.3293 74.6365 26.5184 66.182 25.3446L66.6653 25.8415C71.2896 30.6326 75.0228 35.4362 77.8645 40.2489ZM91.0964 39.1668C87.3817 41.1833 83.6685 42.8299 79.952 44.1089C82.7431 49.7974 84.2955 55.499 84.6073 61.2178H99.8061C99.3348 52.8804 96.1452 45.2503 91.0964 39.1668ZM75.7057 45.4097C65.653 48.1081 55.5988 48.1081 45.5465 45.4097C42.8729 50.6943 41.3744 55.9655 41.052 61.2179H80.2024C79.88 55.9655 78.3793 50.6962 75.7057 45.4097ZM41.3009 44.1089C37.5863 42.8299 33.8698 41.1814 30.1551 39.1668C25.1044 45.2521 21.9183 52.881 21.4471 61.2177H36.6458C36.9577 55.4988 38.5084 49.7974 41.3009 44.1089Z"/>
  </mask>
  <path d="M60.6274 20.6537C72.6777 20.6537 83.5912 25.4363 91.4871 33.1653C99.3829 40.8942 104.269 51.5773 104.269 63.3722C104.269 75.1671 99.383 85.8503 91.4871 93.5791C83.5911 101.308 72.6772 106.091 60.6274 106.091C48.5777 106.091 37.6636 101.308 29.7678 93.5791C21.872 85.8502 16.9858 75.1671 16.9858 63.3722C16.9858 51.5773 21.8719 40.8941 29.7678 33.1653C37.6638 25.4365 48.5777 20.6537 60.6274 20.6537ZM60.8925 0.189453C63.1415 0.189453 65.1791 1.08503 66.6585 2.52988C67.6948 3.53717 68.4516 4.81598 68.8156 6.244C83.188 8.11129 95.9467 14.9951 105.18 25.0342C114.682 35.3642 120.467 49.0403 120.467 64.0313C120.467 77.5696 115.74 90.0405 107.817 99.9448C99.727 110.056 88.2966 117.488 75.1625 120.646C73.9859 120.929 72.796 120.225 72.5065 119.073C72.2171 117.922 72.9363 116.757 74.1129 116.474C86.2844 113.548 96.8726 106.664 104.363 97.3029C111.693 88.1396 116.067 76.5862 116.067 64.0315C116.067 50.1414 110.711 37.4742 101.913 27.911C93.4528 18.7136 81.8098 12.3744 68.6904 10.5628C68.2917 11.8126 67.5902 12.9302 66.6686 13.8328L66.5263 13.96C65.0588 15.3304 63.0766 16.1732 60.8934 16.1732C58.6409 16.1732 56.5968 15.2776 55.1202 13.8328C53.6442 12.388 52.7292 10.3864 52.7292 8.18159C52.7292 5.97674 53.6441 3.97579 55.1202 2.53042C56.5961 1.08564 58.6409 0.189991 60.8934 0.189991L60.8925 0.189453ZM63.5571 5.57414C62.8795 4.90947 61.9354 4.4972 60.8925 4.4972C59.8548 4.4972 58.9103 4.91087 58.2312 5.57601C57.5522 6.24068 57.1291 7.16521 57.1291 8.181C57.1291 9.19679 57.5517 10.1213 58.2312 10.786C58.9102 11.4507 59.8547 11.8648 60.8925 11.8648C61.8905 11.8648 62.7968 11.4885 63.4687 10.8762L63.5551 10.7865C64.2341 10.1218 64.6572 9.19726 64.6572 8.18147C64.6572 7.16576 64.2347 6.24065 63.5571 5.57414ZM52.439 120.497C38.0605 118.629 25.2993 111.74 16.0648 101.697C6.56834 91.3649 0.789062 77.6955 0.789062 62.7093C0.789062 49.171 5.51556 36.7 13.439 26.7958C21.5287 16.6845 32.9592 9.25248 46.0932 6.09466C47.2698 5.8114 48.4598 6.51534 48.7492 7.66711C49.0387 8.81888 48.3195 9.9836 47.1428 10.267C34.9713 13.1925 24.3832 20.0767 16.8932 29.4376C9.56225 38.6009 5.18916 50.1543 5.18916 62.709C5.18916 76.592 10.5412 89.2544 19.333 98.82C27.7951 108.024 39.4423 114.364 52.5666 116.177C52.9653 114.929 53.6668 113.811 54.5884 112.908L54.7307 112.781C56.1981 111.411 58.1804 110.568 60.3635 110.568C62.616 110.568 64.6602 111.464 66.1368 112.909C67.6128 114.353 68.5278 116.355 68.5278 118.56C68.5278 120.765 67.6129 122.766 66.1368 124.211C64.6608 125.656 62.616 126.551 60.3635 126.551C58.1145 126.551 56.0769 125.656 54.5975 124.211C53.5612 123.204 52.8044 121.925 52.4404 120.497L52.439 120.497ZM57.6975 121.166C58.3751 121.831 59.3192 122.243 60.3621 122.243C61.3997 122.243 62.3443 121.83 63.0233 121.165C63.7024 120.5 64.1255 119.575 64.1255 118.56C64.1255 117.544 63.7028 116.619 63.0233 115.955C62.3443 115.29 61.3998 114.876 60.3621 114.876C59.364 114.876 58.4577 115.252 57.7859 115.864L57.6994 115.954C57.0204 116.619 56.5973 117.543 56.5973 118.559C56.5973 119.575 57.0199 120.5 57.6975 121.166ZM30.1568 87.5779C33.8715 85.5628 37.5847 83.9147 41.3012 82.6358C38.5101 76.9492 36.9577 71.2439 36.6458 65.5245H21.4471C21.9184 73.8619 25.1061 81.492 30.1568 87.5779ZM45.5475 81.335C55.6002 78.6366 65.6532 78.6366 75.7054 81.335C78.3791 76.0484 79.8795 70.7792 80.2017 65.5256H41.0514C41.3738 70.778 42.872 76.049 45.5475 81.335ZM79.951 82.6358C83.6675 83.9147 87.3822 85.5633 91.0969 87.5779C96.1476 81.4926 99.3356 73.8625 99.8068 65.5246H84.6081C84.2963 71.2435 82.7421 76.9468 79.951 82.6358ZM88.0512 90.846C84.6551 89.0651 81.2594 87.6133 77.8633 86.4958C75.0216 91.3107 71.2898 96.1139 66.6654 100.903L66.5408 101.022L66.1716 101.4C74.6319 100.228 82.2275 96.4172 88.0512 90.846ZM73.5175 85.2426C64.9235 83.1243 56.331 83.1243 47.7372 85.2426C50.3363 89.4709 53.6871 93.709 57.7866 97.9577C58.6963 98.899 59.6441 99.8437 60.6283 100.787C61.5953 99.8624 62.5064 98.9566 63.3626 98.0746L63.4667 97.9591C67.5662 93.7107 70.9168 89.4724 73.5175 85.2426ZM43.3889 86.4944C39.9913 87.6139 36.5985 89.0656 33.2029 90.846C39.0244 96.4139 46.6169 100.225 55.0714 101.399L54.5881 100.902C49.9639 96.1107 46.2306 91.3071 43.3889 86.4944ZM33.201 35.8986C36.5985 37.6795 39.9946 39.1314 43.3889 40.2503C46.2321 35.4354 49.9643 30.6307 54.5886 25.8397L54.7133 25.721L55.0824 25.3428C46.6222 26.5146 39.0247 30.3274 33.201 35.8986ZM47.7347 41.5021C56.3287 43.6204 64.9236 43.6204 73.5175 41.5021C70.917 37.2723 67.5676 33.0342 63.4666 28.7858C62.5569 27.8444 61.6091 26.8997 60.6249 25.9569C59.6579 26.881 58.7468 27.7869 57.8906 28.6689L57.7865 28.7844C53.6856 33.0328 50.3328 37.2728 47.7338 41.503L47.7347 41.5021ZM77.8645 40.2489C81.2621 39.128 84.6564 37.6776 88.0505 35.8972C82.2291 30.3293 74.6365 26.5184 66.182 25.3446L66.6653 25.8415C71.2896 30.6326 75.0228 35.4362 77.8645 40.2489ZM91.0964 39.1668C87.3817 41.1833 83.6685 42.8299 79.952 44.1089C82.7431 49.7974 84.2955 55.499 84.6073 61.2178H99.8061C99.3348 52.8804 96.1452 45.2503 91.0964 39.1668ZM75.7057 45.4097C65.653 48.1081 55.5988 48.1081 45.5465 45.4097C42.8729 50.6943 41.3744 55.9655 41.052 61.2179H80.2024C79.88 55.9655 78.3793 50.6962 75.7057 45.4097ZM41.3009 44.1089C37.5863 42.8299 33.8698 41.1814 30.1551 39.1668C25.1044 45.2521 21.9183 52.881 21.4471 61.2177H36.6458C36.9577 55.4988 38.5084 49.7974 41.3009 44.1089Z" fill="currentColor" stroke="currentColor" stroke-width="2" mask="url(#path-1-inside-1_143_1722)"/>
</svg>
