<svg xmlns="http://www.w3.org/2000/svg" fill="currentColor" viewBox="0 0 64 80" >
  <path d="M60.844,15.99c-0.783-1.646-2.473-2.711-4.306-2.711c-0.707,0-1.389,0.154-2.028,0.458l-19.239,9.148l2.106-7.146    c0.745-2.532,0.478-4.833-0.752-6.477c-0.922-1.231-2.308-1.938-3.803-1.938c-2.102,0-4.833,1.503-6.199,5.72    c-0.024,0.075-0.058,0.19-0.1,0.34c-1.267,4.443-3.308,7.361-6.068,8.673c-3.802,1.807-5.135,5.157-6.424,8.396    c-1.181,2.969-2.297,5.772-5.292,7.197l-5.468,2.599c-0.24,0.114-0.424,0.318-0.513,0.568s-0.075,0.524,0.039,0.765l9.909,20.848    c0.114,0.239,0.318,0.424,0.568,0.513C13.383,62.98,13.496,63,13.609,63c0.147,0,0.294-0.032,0.429-0.097l8.453-4.02    c2.119,0.986,3.875,1.429,5.638,1.43h0c2.506,0,4.896-0.911,8.43-2.591l11.895-5.653c1.143-0.543,2.006-1.503,2.432-2.701    s0.361-2.487-0.183-3.629c-0.437-0.921-1.157-1.659-2.027-2.132c1.958-1.28,2.72-3.85,1.688-6.02    c-0.459-0.966-1.231-1.731-2.161-2.198c1.593-1.361,2.146-3.674,1.205-5.653c-0.43-0.905-1.133-1.634-1.982-2.106l11.164-5.309    C60.954,21.197,61.965,18.358,60.844,15.99z M48.898,46.598c0.314,0.66,0.351,1.406,0.104,2.102    c-0.247,0.694-0.746,1.25-1.406,1.563L43.4,52.257c-0.66,0.313-1.404,0.349-2.1,0.102c-0.696-0.248-1.253-0.748-1.566-1.406    c-0.65-1.371-0.064-3.017,1.305-3.667l4.192-1.993C46.567,44.657,48.271,45.278,48.898,46.598z M48.558,38.447    c0.314,0.66,0.351,1.407,0.104,2.104c-0.247,0.695-0.747,1.252-1.406,1.565l-5.093,2.42c0,0,0,0,0,0    c-0.66,0.315-1.405,0.351-2.1,0.103c-0.695-0.247-1.251-0.747-1.565-1.408c-0.649-1.365-0.071-3.003,1.289-3.657l5.124-2.436    C46.241,36.518,47.935,37.136,48.558,38.447z M47.602,30.595c0.651,1.369,0.067,3.014-1.302,3.665l-8.29,3.943    c-1.366,0.651-3.011,0.057-3.666-1.319c-0.313-0.656-0.349-1.399-0.102-2.092c0.247-0.693,0.745-1.247,1.404-1.56l8.29-3.943    C45.27,28.653,46.975,29.275,47.602,30.595z M57.732,20.515L34.788,31.426c-1.141,0.541-2.004,1.498-2.43,2.695    c-0.257,0.723-0.314,1.476-0.217,2.211c-0.617,3.48-2.25,5.878-4.863,7.118c-0.499,0.237-0.711,0.833-0.474,1.332    c0.171,0.36,0.53,0.571,0.904,0.571c0.144,0,0.29-0.031,0.429-0.097c2.569-1.22,4.359-3.299,5.358-6.184    c0.817,0.809,1.893,1.29,3.023,1.369c-0.002,0.006-0.006,0.012-0.008,0.018c-0.425,1.198-0.361,2.487,0.182,3.63    c0.478,1.004,1.287,1.772,2.286,2.239c-1.456,1.376-1.953,3.573-1.05,5.48c0.43,0.905,1.128,1.624,1.993,2.101l-4.219,2.006    c-3.344,1.59-5.433,2.397-7.571,2.397c-1.564-0.001-3.168-0.443-5.199-1.436c-0.274-0.134-0.594-0.135-0.868-0.005l-7.98,3.794    l-9.05-19.041l4.565-2.169c3.705-1.763,5.02-5.067,6.292-8.264c1.199-3.014,2.332-5.86,5.424-7.33    c3.302-1.569,5.702-4.911,7.133-9.932c0.034-0.12,0.06-0.212,0.079-0.271c1.035-3.197,2.898-4.336,4.296-4.336    c0.871,0,1.653,0.404,2.202,1.137c0.831,1.11,0.99,2.829,0.436,4.713l-2.739,9.293c-0.112,0.379,0.01,0.787,0.31,1.044    c0.299,0.256,0.723,0.31,1.079,0.143l21.261-10.109c1.334-0.634,3.042-0.013,3.668,1.304    C59.687,18.219,59.101,19.864,57.732,20.515z"/>
  <path d="M44.104,8.625c0.109,0.039,0.221,0.057,0.331,0.057c0.413,0,0.799-0.257,0.943-0.669l1.19-3.391    c0.183-0.521-0.091-1.092-0.612-1.274c-0.52-0.188-1.091,0.091-1.274,0.612l-1.19,3.391C43.309,7.871,43.583,8.442,44.104,8.625z"/>
  <path d="M36.8,5.702c0.159,0.386,0.532,0.618,0.925,0.618c0.127,0,0.256-0.024,0.381-0.075c0.511-0.211,0.754-0.796,0.543-1.307    l-1.37-3.32c-0.21-0.511-0.796-0.751-1.306-0.543c-0.511,0.211-0.754,0.796-0.543,1.307L36.8,5.702z"/>
  <path d="M51.146,11.042c0.163,0,0.329-0.04,0.481-0.124l3.146-1.733c0.484-0.267,0.66-0.875,0.394-1.358    c-0.267-0.484-0.875-0.659-1.358-0.394l-3.146,1.733c-0.484,0.267-0.66,0.875-0.394,1.358    C50.452,10.855,50.794,11.042,51.146,11.042z"/>
</svg>