<svg viewBox="0 0 116 81" fill="currentColor" xmlns="http://www.w3.org/2000/svg">
  <path d="M111.969 1.02515C113.425 1.02515 114.522 2.0768 114.585 3.26316V3.36958V77.6523C114.585 78.8817 113.466 79.9973 111.966 79.9973H24.3721C11.7205 79.9973 1.53948 70.5555 1.53948 59.0818C1.53948 47.6072 11.7215 38.1663 24.3721 38.1663H37.8477H40.258L38.2732 36.7987L32.883 33.0846L32.8829 33.0846C31.7457 32.301 31.5418 30.8511 32.3645 29.8432C33.2199 28.7952 34.9015 28.5591 36.0747 29.3673C36.0747 29.3673 36.0747 29.3673 36.0747 29.3674L49.4758 38.6013C49.4822 38.6082 49.4889 38.6152 49.4959 38.6225L49.4992 38.6259C49.5253 38.653 49.6122 38.7432 49.7334 38.8186C49.7475 38.8299 49.7676 38.8478 49.798 38.8779C49.8213 38.901 49.8399 38.9202 49.8714 38.952C49.8989 38.9799 49.9346 39.0156 49.9738 39.0517C49.9923 39.0687 50.01 39.0839 50.0261 39.0973C50.0529 39.1488 50.0934 39.215 50.1537 39.2821C50.1656 39.2953 50.1778 39.308 50.1904 39.3204C50.1976 39.3319 50.2057 39.3449 50.215 39.3598C50.2384 39.3975 50.273 39.4535 50.312 39.5107C50.3525 39.59 50.3856 39.6729 50.3983 39.7193C50.4275 39.826 50.4678 39.9246 50.4905 39.9801L50.4944 39.9897C50.502 40.0083 50.5081 40.0233 50.5129 40.0355C50.5177 40.0905 50.5241 40.1373 50.5284 40.1686L50.5297 40.1785C50.5342 40.2116 50.5367 40.2302 50.5383 40.2466C50.5399 40.2616 50.5397 40.2659 50.5397 40.2636C50.5397 40.3456 50.5508 40.4132 50.5592 40.4556C50.5603 40.4615 50.5615 40.4674 50.5628 40.4733C50.5608 40.4829 50.5588 40.4929 50.5569 40.5032C50.5464 40.5618 50.5397 40.6258 50.5397 40.6966C50.5397 40.7627 50.5395 40.7992 50.5373 40.8317C50.5353 40.8605 50.5326 40.8709 50.5324 40.8717L50.5062 40.9681V40.9992C50.5051 41.0014 50.5039 41.0037 50.5026 41.0063C50.5007 41.01 50.4987 41.0139 50.4965 41.0181C50.4931 41.0246 50.4893 41.0317 50.4852 41.0395L50.4624 41.0818L50.4469 41.1102L50.434 41.1398C50.3993 41.2194 50.3697 41.2977 50.3494 41.3512C50.3448 41.3632 50.3408 41.3739 50.3372 41.3832C50.3146 41.4421 50.3037 41.4659 50.2947 41.4823C50.2525 41.5596 50.2109 41.6183 50.1442 41.71L50.1406 41.7151L50.1088 41.7298L50.0719 41.7979C50.0414 41.8196 50.0088 41.8454 49.9754 41.8758L49.935 41.9127L49.9004 41.9551C49.8446 42.0234 49.7626 42.0993 49.6855 42.1522L49.642 42.1822L49.6031 42.2179C49.5636 42.2542 49.5324 42.2874 49.5114 42.3103L49.5101 42.3119L36.0407 51.5929L36.0406 51.5928L36.0301 51.6003C35.5703 51.929 35.0215 52.0796 34.4449 52.0796C33.6431 52.0796 32.85 51.7349 32.3276 51.1138C31.5083 50.106 31.713 48.6586 32.849 47.876L32.849 47.876L38.2393 44.1618L40.224 42.7943H37.8137H24.3381C14.6866 42.7943 6.74282 50.0046 6.74282 59.0201C6.74282 68.0356 14.6864 75.246 24.3381 75.246H108.562H109.312L109.312 74.496L109.313 6.46513L109.313 5.71512H108.563H4.15792C2.65819 5.71512 1.53906 4.59951 1.53906 3.37014C1.53906 2.14076 2.65819 1.02515 4.15792 1.02515H111.969ZM50.23 41.7037C50.2304 41.7034 50.2305 41.7034 50.2301 41.7036L50.23 41.7037ZM69.2499 59.7824L70.267 60.1701V59.0816V43.2343V42.6226L69.6677 42.4996C63.023 41.1366 58.1387 35.7388 58.1387 29.3685C58.1387 22.9983 63.023 17.6003 69.6677 16.2374L70.267 16.1145V15.5027V12.6551C70.267 11.4257 71.3862 10.3101 72.8859 10.3101C74.3856 10.3101 75.5048 11.4257 75.5048 12.6551V15.5027V16.1145L76.104 16.2374C82.7488 17.6004 87.6331 22.9983 87.6331 29.3685C87.6331 30.5979 86.514 31.7135 85.0143 31.7135C83.5145 31.7135 82.3954 30.5979 82.3954 29.3685C82.3954 25.6756 79.9415 22.5428 76.5223 21.2394L75.5052 20.8517V21.9403V37.7875V38.3993L76.1045 38.5222C82.7492 39.8853 87.6335 45.2831 87.6335 51.6533C87.6335 58.0236 82.7492 63.4216 76.1045 64.7844L75.5052 64.9073V65.5191V68.3668C75.5052 69.5961 74.386 70.7117 72.8863 70.7117C71.3866 70.7117 70.2674 69.5961 70.2674 68.3668V65.5191V64.9074L69.6682 64.7844C63.0234 63.4214 58.1391 58.0236 58.1391 51.6533C58.1391 50.424 59.2582 49.3083 60.7579 49.3083C62.2577 49.3083 63.3768 50.424 63.3768 51.6533C63.3768 55.3462 65.8307 58.4791 69.2499 59.7824ZM76.5223 43.5243L75.5052 43.1365V44.2251V59.0816V60.1701L76.5223 59.7824C79.9415 58.4791 82.3954 55.3462 82.3954 51.6533C82.3954 47.9604 79.9415 44.8276 76.5223 43.5243ZM69.2499 37.4976L70.267 37.8853V36.7968V21.9403V20.8517L69.2499 21.2394C65.8307 22.5428 63.3768 25.6756 63.3768 29.3685C63.3768 33.0614 65.8307 36.1943 69.2499 37.4976Z" fill="currentColor" stroke="currentColor" stroke-width="1.5"/>
</svg>
