<svg viewBox="0 0 81 141" fill="none" xmlns="http://www.w3.org/2000/svg">
  <path d="M57.5243 26.4482L57.7427 26.4457L57.7509 26.4366C58.785 26.3743 59.6073 26.1699 60.1965 25.8645C60.8081 25.5475 61.2795 25.0532 61.274 24.4163C61.2686 23.7823 60.7924 23.2922 60.1792 22.9778C59.5479 22.6541 58.654 22.4453 57.5254 22.4023L57.5133 22.4018L57.5011 22.4019C52.728 22.4523 49.8953 19.9976 49.305 17.4372C49.0093 16.1546 49.2588 14.8077 50.1315 13.6443C51.0072 12.4769 52.537 11.4618 54.8505 10.9199L55.282 10.8188L55.2335 10.3783C55.1415 9.54289 55.2478 8.78902 55.5863 8.25225C55.9042 7.74822 56.4746 7.35952 57.5044 7.3206C58.5301 7.35525 59.1013 7.74647 59.4207 8.255C59.7607 8.79645 59.8669 9.55438 59.7735 10.3811L59.7235 10.824L60.1577 10.9244C63.6151 11.7237 65.8715 13.9466 65.8715 16.4956C65.8715 17.5091 64.9177 18.4346 63.6046 18.4346C62.2914 18.4346 61.3376 17.509 61.3376 16.4956V16.4543L61.3309 16.4135C61.2045 15.6541 60.5553 15.185 59.8861 14.917C59.1942 14.6399 58.3327 14.5116 57.4949 14.5127C56.657 14.5138 55.7963 14.6442 55.1059 14.9218C54.4392 15.1898 53.7899 15.658 53.666 16.4148L53.6595 16.4549V16.4956C53.6595 16.8243 53.8308 17.1119 54.0278 17.3295C54.2327 17.5559 54.513 17.7611 54.8422 17.9337C55.5029 18.2802 56.4165 18.5251 57.4907 18.5251V18.5251L57.496 18.525C62.2659 18.4745 65.099 20.9271 65.6912 23.4865C65.9878 24.7686 65.7396 26.1151 64.8685 27.2785C63.9945 28.446 62.4667 29.4617 60.1553 30.0053L59.7242 30.1067L59.7728 30.5469C59.8651 31.3818 59.7584 32.1349 59.4197 32.6711C59.1016 33.1747 58.531 33.5631 57.5018 33.602C56.4784 33.5676 55.9068 33.1774 55.5869 32.6699C55.2464 32.1299 55.1392 31.3738 55.2327 30.5488L55.283 30.1054L54.8481 30.0053C51.3871 29.2083 49.1278 26.9859 49.125 24.4368C49.1381 23.7956 49.4113 23.3357 49.8126 23.0246C50.2273 22.7031 50.7984 22.5281 51.3919 22.5279C51.9853 22.5277 52.5564 22.7024 52.971 23.0237C53.3714 23.334 53.6446 23.7929 53.6588 24.4332C53.6555 24.7685 53.8383 25.0575 54.0345 25.2683C54.2442 25.4937 54.5313 25.6985 54.8658 25.8705C55.5374 26.2159 56.4621 26.4606 57.5243 26.4482Z" fill="currentColor" stroke="currentColor"/>
  <path d="M59.7763 63.0369L59.242 63.1551L59.9289 63.803L71.3547 74.5794L71.3553 74.58C74.3314 77.3771 75.5194 81.261 74.5696 84.969L59.7763 63.0369ZM59.7763 63.0369V44.7835C59.7621 44.1464 59.4891 43.6869 59.0875 43.3748C58.6727 43.0525 58.1021 42.8761 57.5098 42.8743C56.9175 42.8724 56.3477 43.0454 55.9335 43.3659C55.5327 43.6761 55.2577 44.1373 55.2424 44.7845C55.233 49.5894 55.2372 56.9456 55.2414 64.1501C55.2451 70.5927 55.2487 76.9139 55.2425 81.1807L54.2863 81.3847L41.839 53.6502L41.835 53.6413L41.8313 53.6321C41.0875 51.7833 39.3284 50.3335 37.0925 49.7944L37.0915 49.7941C34.8963 49.26 32.5784 49.7071 30.8833 50.9544L30.6103 50.5835L30.8833 50.9544C24.9035 55.354 24.918 62.666 27.0247 69.7861C29.1232 76.8782 33.2402 83.5469 35.1035 86.3488L35.2879 86.626L35.1032 86.903C33.7214 88.9761 32.3634 91.8419 31.1117 94.9173L30.985 95.2288H30.6486H9.11633C7.20185 95.2512 5.84814 93.7243 5.81964 91.6869L5.81954 91.6799L5.81959 19.6075C5.81959 17.7724 7.11033 16.0586 8.8364 16.0586H18.0635H18.4824L18.5558 16.471L19.0191 19.072C19.0191 19.0722 19.0191 19.0723 19.0191 19.0725C19.4563 21.494 21.8257 23.3269 24.7458 23.3269H29.8381C31.1512 23.3269 32.1051 22.4014 32.1051 21.3879C32.1051 20.3744 31.1513 19.4489 29.8381 19.4489H24.7458C24.1659 19.4489 23.613 19.1124 23.5013 18.4882L23.5013 18.4879L23.1727 16.647L23.0678 16.0592H23.6649H30.7782C32.0913 16.0592 33.0452 15.1337 33.0452 14.1202C33.0452 13.1067 32.0914 12.1812 30.7782 12.1812H20.4293H8.83586C4.66488 12.1812 1.28516 15.5204 1.28516 19.608V91.6805C1.28516 95.5601 4.3041 98.7558 8.21464 99.0421L8.24676 99.0444L8.25359 99.0458C8.26982 99.0468 8.29429 99.0479 8.32808 99.0491C8.39741 99.0515 8.4955 99.054 8.61968 99.0564C8.86745 99.0612 9.21109 99.0657 9.61915 99.0698C10.4349 99.0781 11.5029 99.0851 12.565 99.0906C13.6269 99.0962 14.6821 99.1003 15.4719 99.1031L16.425 99.1063L16.6916 99.107L16.7617 99.1072L16.7797 99.1073L16.7843 99.1073L16.7854 99.1073H16.7858L17.1534 99.1083L17.2621 99.4595L19.4013 106.371L19.5187 106.751L19.1756 106.951C16.3438 108.603 15.2553 111.091 15.2573 114.022C15.2592 116.989 16.3837 120.395 18.0022 123.766C20.7604 129.51 24.8684 134.984 26.9396 137.744C27.2932 138.215 27.5875 138.607 27.8055 138.908C28.2382 139.44 28.9371 139.742 29.6703 139.742H29.6787C30.5746 139.757 31.305 139.284 31.6756 138.66C32.042 138.043 32.0472 137.309 31.5453 136.718L31.5363 136.707L31.5365 136.707C28.3637 132.752 24.8664 127.512 22.5056 122.739C21.3262 120.354 20.4197 118.064 19.9858 116.096C19.5581 114.156 19.5606 112.4 20.3747 111.201L20.398 111.167L20.4268 111.137C20.4044 111.16 21.4014 109.947 22.8702 109.824L22.8708 109.824C23.809 109.746 24.722 110.139 25.4713 110.584L25.8381 110.802L25.6808 111.199C25.3335 112.074 25.2706 112.817 25.4718 113.373C25.6611 113.896 26.1237 114.359 27.0856 114.611C28.3257 114.865 29.5484 114.159 29.8085 113.149L29.8092 113.146C30.5256 110.427 32.0257 105.29 33.8367 100.246C34.7422 97.7233 35.7278 95.2173 36.7344 93.0451C37.737 90.8818 38.7755 89.0161 39.7945 87.7979C40.3267 87.161 40.3572 86.3186 39.8804 85.6574L39.88 85.6568C37.5332 82.3931 33.7947 76.1776 31.7315 69.9557C30.7003 66.846 30.0752 63.6985 30.2754 60.9003C30.4764 58.089 31.5153 55.6003 33.8332 53.895L33.8507 53.8821L33.8694 53.8708C34.62 53.4135 35.3946 53.3336 36.0726 53.5652C36.7406 53.7935 37.265 54.3069 37.5652 54.946L37.5689 54.9538L37.5688 54.9538L55.0977 94.0168C55.404 94.6082 56.0127 95.0377 56.7137 95.1936C57.4151 95.3496 58.1572 95.2205 58.7174 94.7612L59.7763 63.0369ZM74.5695 84.9696L60.8553 138.219L60.8544 138.222C60.6011 139.236 59.3747 139.948 58.1299 139.693L58.1275 139.692C56.8598 139.439 56.1744 138.37 56.4275 137.39L56.4275 137.389L70.1406 84.1422L70.1408 84.1416C70.7824 81.6378 69.9682 79.0357 68.0016 77.1858L74.5695 84.9696ZM68.001 77.1853L60.6155 70.2188L59.7724 69.4235V70.5825V91.6735C59.7346 92.8367 59.5696 94.0582 58.7182 94.7606L68.001 77.1853ZM23.8771 105.674L24.2968 105.544L24.2872 106.021C25.002 106.118 25.7231 106.332 26.4564 106.622L26.9594 106.821L27.1183 106.304C27.7173 104.355 28.4444 102.105 29.2693 99.7746L29.5054 99.1078H28.798H22.5228H21.8446L22.0452 99.7556L23.8771 105.674Z" fill="currentColor" stroke="currentColor"/>
  <path d="M75.3128 20.4815L75.3132 20.4715V20.4614C75.3132 11.7519 67.2577 4.77575 57.4958 4.77575H57.4943C47.7348 4.77575 39.6784 11.7527 39.6784 20.4614V20.4714L39.6788 20.4815C39.8875 25.6559 42.1763 29.5587 45.5103 32.1583C48.8332 34.7492 53.1742 36.0322 57.4952 36.0325C61.8162 36.0328 66.1574 34.7506 69.4805 32.1598C72.8147 29.5603 75.1038 25.6572 75.3128 20.4815ZM72.544 5.88448C76.6757 9.1215 79.5375 13.9739 79.8471 20.4732C79.8398 31.1953 69.8782 40.025 57.4958 40.025H57.4943C45.1125 40.025 35.1518 31.195 35.1445 20.4731C35.4529 13.9755 38.3138 9.12351 42.4448 5.88628C46.5889 2.63877 52.0317 1.00235 57.494 1.00195C62.9562 1.00155 68.3993 2.63717 72.544 5.88448Z" fill="currentColor" stroke="currentColor"/>
</svg>
