<svg fill="currentColor" xmlns="http://www.w3.org/2000/svg" viewBox="0 0 128 160">
  <g data-name="1">
    <path d="M64.58472,86.28545A70.11562,70.11562,0,0,0,90.14258,65.3355a1.62931,1.62931,0,1,1,2.61072,1.95007A73.3289,73.3289,0,0,1,66.02417,89.20806a1.62893,1.62893,0,0,1-1.43945-2.92261Zm50.85717-33.04376a1.6291,1.6291,0,0,1-1.62921,1.62921h-6.22021a25.22868,25.22868,0,0,1-3.95331,12.2351C97.29053,77.06572,84.7085,90.72209,60.82074,99.21855a1.63062,1.63062,0,0,1-1.09229,0C39.69513,92.09306,27.61633,81.3394,20.49451,72.17967H14.18756a1.62921,1.62921,0,1,1,0-3.25842h3.92432q-.63409-.925-1.2016-1.81525a25.12579,25.12579,0,0,1-1.1648-25.17974A23.926,23.926,0,0,1,35.79681,28.732c.50739-.03,1.02027-.04455,1.53571-.04455a26.05092,26.05092,0,0,1,21.976,12.00586A1.62949,1.62949,0,0,1,56.56927,42.459,22.80448,22.80448,0,0,0,37.33252,31.94615c-.45172,0-.90118.01319-1.346.03949A20.69825,20.69825,0,0,0,18.64636,43.40978a21.89649,21.89649,0,0,0,1.012,21.94464c.72814,1.14251,1.54473,2.33685,2.45385,3.56683H38.2464l5.25909-15.77838A1.62958,1.62958,0,0,1,45.038,52.0291a1.67544,1.67544,0,0,1,1.55054,1.08911l6.59094,18.75287L63.28882,33.998a1.62861,1.62861,0,0,1,1.551-1.20935,1.6891,1.6891,0,0,1,1.5849,1.16529l8.68415,29.24237,5.83966-10.73371a1.63049,1.63049,0,0,1,1.43115-.8504h21.90314a22.32444,22.32444,0,0,0-2.37928-8.20245A20.697,20.697,0,0,0,84.5647,31.98564,22.98481,22.98481,0,0,0,71.79822,35.001a1.62943,1.62943,0,0,1-1.632-2.8208,26.25215,26.25215,0,0,1,14.588-3.44818,23.92571,23.92571,0,0,1,20.05017,13.19422,25.57872,25.57872,0,0,1,2.7497,9.686h6.2586A1.62915,1.62915,0,0,1,115.44189,53.24169ZM104.321,54.8709H83.34845l-7.253,13.33a1.62938,1.62938,0,0,1-2.99323-.31463L64.94617,40.42284,54.96655,77.81108a1.62855,1.62855,0,0,1-1.5108,1.20795c-.021.00073-.04266.0014-.06366.0014a1.62952,1.62952,0,0,1-1.53644-1.08905l-6.76343-19.243L40.9668,71.0659a1.6299,1.6299,0,0,1-1.54615,1.11377H24.68591c6.91834,8.21967,18.03028,17.4209,35.58869,23.77283,22.66205-8.19824,34.59033-21.1441,40.61627-30.59808A21.97837,21.97837,0,0,0,104.321,54.8709Z"/>
  </g>
</svg>