<svg viewBox="0 0 142 52" fill="currentColor" xmlns="http://www.w3.org/2000/svg">
  <g clip-path="url(#clip0_128_206)">
  <path d="M24.5678 24.7346L14.5957 18.9644L24.5678 13.1826L34.5986 18.9644L24.5678 24.7346Z" />
  <path d="M24.5216 7.38909L39.9735 16.2662L45.5475 13.0658L24.5216 0.964844L3.64844 13.0658L9.18716 16.2662L24.5216 7.38909Z" />
  <path d="M23.2868 27.0124L23.2398 38.4709L13.2324 32.7942V21.2656L23.2868 27.0124Z" />
  <path d="M8.19908 35.7263L8.2226 17.9954L2.62508 14.7949L2.60156 38.9501L23.5805 50.8641L23.604 44.4633L8.19908 35.7263Z" />
  <path d="M25.9336 26.9648L35.9292 21.2881L35.9762 32.7466L25.9571 38.4934L25.9336 26.9648Z" />
  <path d="M41.0672 35.6086L25.6152 44.439V50.8632L46.6647 38.8324L46.5589 14.8174L40.9967 17.9711L41.0672 35.6086Z" />
  <path d="M70.6651 15.3322H74.2987V22.2587C73.358 22.9596 72.2879 23.4852 71.0531 23.8706C69.8184 24.2561 68.5836 24.4196 67.3489 24.4196C65.5614 24.4196 63.9622 24.0342 62.5275 23.2866C61.0928 22.5391 59.9874 21.4878 59.1878 20.1329C58.3881 18.778 57.9766 17.2712 57.9766 15.5892C57.9766 13.9072 58.3881 12.3888 59.1878 11.0455C59.9874 9.70226 61.1281 8.6627 62.551 7.89179C63.9739 7.12088 65.6085 6.75879 67.4194 6.75879C68.9247 6.75879 70.3005 7.00408 71.5117 7.50634C72.7465 8.0086 73.7696 8.73278 74.6163 9.69058L72.0762 12.0267C70.8297 10.7535 69.348 10.1111 67.6311 10.1111C66.5375 10.1111 65.5732 10.3564 64.703 10.7885C63.8328 11.2207 63.1978 11.8982 62.7156 12.7158C62.2335 13.5334 62.0101 14.4912 62.0101 15.5775C62.0101 16.6404 62.257 17.5749 62.7156 18.4159C63.1978 19.2335 63.8563 19.8876 64.703 20.3665C65.5497 20.8454 66.514 21.0673 67.5841 21.0673C68.7247 21.0673 69.7596 20.822 70.6886 20.3431L70.6651 15.3322Z" />
  <path d="M77.9785 7.05078H85.7751C87.6448 7.05078 89.2912 7.41288 90.7141 8.1137C92.1487 8.81453 93.2541 9.81905 94.0538 11.0922C94.8534 12.3654 95.2415 13.8605 95.2415 15.5658C95.2415 17.2712 94.8534 18.7663 94.0538 20.0394C93.2541 21.3126 92.137 22.3288 90.7141 23.018C89.2794 23.7188 87.6331 24.0809 85.7751 24.0809H77.9785V7.05078ZM85.5752 20.8804C87.292 20.8804 88.6797 20.4015 89.691 19.4554C90.7141 18.521 91.2197 17.2128 91.2197 15.5775C91.2197 13.9422 90.7141 12.6691 89.691 11.6996C88.6679 10.7301 87.292 10.2746 85.5752 10.2746H81.9415V20.8571H85.5752V20.8804Z" />
  <path d="M109.319 20.4483H101.346L99.8168 24.1042H95.748L103.403 7.05078H107.331L115.01 24.1042H110.847L109.319 20.4483ZM108.06 17.4697L105.344 10.9287L102.627 17.4697H108.06Z" />
  <path d="M62.7163 44.6031C61.3639 43.8556 60.2938 42.8277 59.5177 41.4961C58.7416 40.1762 58.3535 38.7045 58.3535 37.0692C58.3535 35.434 58.7416 33.9389 59.5177 32.6423C60.2938 31.3225 61.3639 30.2829 62.7163 29.5353C64.0686 28.7878 65.5739 28.4023 67.2672 28.4023C68.502 28.4023 69.6662 28.5892 70.701 28.998C71.7476 29.4069 72.6413 29.9792 73.3704 30.7501L72.5943 31.5444C71.2184 30.2011 69.4662 29.5237 67.3143 29.5237C65.8796 29.5237 64.5508 29.839 63.3866 30.5048C62.1989 31.1589 61.2816 32.0466 60.5996 33.203C59.9175 34.3594 59.6118 35.6325 59.6118 37.0576C59.6118 38.4826 59.9528 39.7557 60.5996 40.9121C61.2816 42.0685 62.1989 42.9562 63.3866 43.6103C64.5743 44.2644 65.8796 44.5914 67.3143 44.5914C69.4427 44.5914 71.1949 43.914 72.5943 42.5474L73.3704 43.3416C72.6413 44.1125 71.7476 44.7083 70.6775 45.1171C69.6074 45.5259 68.4784 45.7128 67.2672 45.7128C65.5974 45.7361 64.0686 45.374 62.7163 44.6031Z" />
  <path d="M84.9534 33.9981C85.8001 34.7923 86.2352 35.9954 86.2352 37.5372V45.5967H85.0475V43.3307C84.6359 44.0783 84.0597 44.6506 83.26 45.0594C82.4839 45.4683 81.5432 45.6902 80.4495 45.6902C79.0149 45.6902 77.9095 45.3515 77.0863 44.709C76.2631 44.0316 75.8516 43.1672 75.8516 42.0926C75.8516 41.0297 76.2396 40.1887 76.9922 39.5229C77.7448 38.8688 78.9796 38.5417 80.6259 38.5417H85.0005V37.5022C85.0005 36.3225 84.6829 35.4114 84.0362 34.804C83.3776 34.2083 82.4369 33.8696 81.2021 33.8696C80.3555 33.8696 79.5323 34.0097 78.7562 34.3017C77.98 34.5938 77.3215 34.9792 76.7688 35.4815L76.1691 34.6171C76.8041 34.0448 77.5684 33.6009 78.4739 33.2972C79.3677 32.9819 80.3202 32.8183 81.2845 32.8183C82.872 32.795 84.1067 33.2038 84.9534 33.9981ZM83.3071 43.9848C84.0597 43.5059 84.6124 42.7818 84.9769 41.8707V39.4879H80.6142C79.3559 39.4879 78.4387 39.7098 77.8742 40.1653C77.3215 40.6209 77.0275 41.2516 77.0275 42.0459C77.0275 42.8635 77.345 43.541 77.9683 44.0199C78.6033 44.4988 79.4735 44.7441 80.5789 44.7441C81.6608 44.7207 82.578 44.4637 83.3071 43.9848Z" />
  <path d="M100.957 33.6124C101.922 34.1613 102.674 34.9322 103.239 35.9017C103.791 36.8829 104.062 37.9925 104.062 39.2423C104.062 40.4921 103.791 41.6251 103.239 42.5829C102.686 43.5641 101.933 44.335 100.957 44.8723C99.9931 45.4213 98.8995 45.6899 97.7118 45.6899C96.5711 45.6899 95.5598 45.4213 94.6308 44.8957C93.7136 44.3701 93.008 43.6459 92.5023 42.6881V50.3154H91.2676V32.8415H92.4553V35.8433C92.961 34.8622 93.6665 34.1146 94.6073 33.554C95.548 33.005 96.5711 32.7363 97.7118 32.7363C98.8995 32.7947 99.9931 33.0517 100.957 33.6124ZM100.275 43.9262C101.051 43.4707 101.675 42.8399 102.122 42.0223C102.58 41.2047 102.804 40.2936 102.804 39.2307C102.804 38.1677 102.58 37.2567 102.122 36.439C101.663 35.6214 101.051 34.9907 100.275 34.5351C99.4992 34.0796 98.6055 33.8576 97.6412 33.8576C96.6769 33.8576 95.7715 34.0796 95.0071 34.5351C94.231 34.9907 93.6312 35.6214 93.1609 36.439C92.7022 37.2567 92.4788 38.1677 92.4788 39.2307C92.4788 40.2936 92.7022 41.2047 93.1609 42.0223C93.6195 42.8399 94.231 43.4707 95.0071 43.9262C95.7832 44.3817 96.6534 44.6037 97.6412 44.6037C98.629 44.6037 99.511 44.3934 100.275 43.9262Z" />
  <path d="M107.743 29.5237C107.555 29.3369 107.449 29.1149 107.449 28.8229C107.449 28.5309 107.543 28.3207 107.743 28.1221C107.931 27.9352 108.178 27.8301 108.449 27.8301C108.719 27.8301 108.954 27.9235 109.154 28.1221C109.342 28.309 109.448 28.5309 109.448 28.8229C109.448 29.1149 109.354 29.3252 109.154 29.5237C108.966 29.7106 108.719 29.8158 108.449 29.8158C108.178 29.8041 107.931 29.6873 107.743 29.5237ZM107.837 32.8877H109.072V45.6194H107.837V32.8877Z" />
  <path d="M120.596 44.8257C120.278 45.1177 119.89 45.328 119.432 45.5032C118.973 45.6434 118.491 45.7485 117.973 45.7485C116.856 45.7485 116.009 45.4331 115.41 44.8374C114.81 44.2417 114.493 43.3657 114.493 42.2911V33.9629H112.141V32.8883H114.493V30.0967H115.727V32.8883H119.796V33.9512H115.727V42.1275C115.727 42.9452 115.915 43.5993 116.327 44.0315C116.715 44.4636 117.315 44.6856 118.114 44.6856C118.914 44.6856 119.573 44.4403 120.102 43.9847L120.596 44.8257Z" />
  <path d="M131.979 33.9981C132.826 34.7923 133.261 35.9954 133.261 37.5372V45.5967H132.073V43.3307C131.661 44.0783 131.05 44.6506 130.286 45.0594C129.509 45.4683 128.569 45.6902 127.451 45.6902C126.017 45.6902 124.911 45.3515 124.088 44.709C123.265 44.0316 122.854 43.1672 122.854 42.0926C122.854 41.0297 123.242 40.1887 123.994 39.5229C124.747 38.8454 125.982 38.5417 127.628 38.5417H132.014V37.5022C132.014 36.3225 131.697 35.4114 131.05 34.804C130.403 34.1966 129.451 33.8696 128.216 33.8696C127.369 33.8696 126.546 34.0097 125.77 34.3017C124.994 34.5938 124.335 34.9792 123.783 35.4815L123.183 34.6171C123.818 34.0448 124.582 33.6009 125.488 33.2972C126.381 32.9819 127.334 32.8183 128.322 32.8183C129.921 32.795 131.132 33.2038 131.979 33.9981ZM130.356 43.9848C131.109 43.5059 131.661 42.7818 132.026 41.8707V39.4879H127.663C126.405 39.4879 125.488 39.7098 124.923 40.1653C124.359 40.6209 124.077 41.2516 124.077 42.0459C124.077 42.8635 124.394 43.541 124.994 44.0199C125.629 44.4988 126.499 44.7441 127.604 44.7441C128.71 44.7207 129.615 44.4637 130.356 43.9848Z" />
  <path d="M138.33 27.5264H139.565V45.6194H138.33V27.5264Z" />
  </g>
  <defs>
    <clipPath id="clip0_128_206">
      <rect width="141.032" height="51.4641" fill="currentColor" transform="translate(0.566406 0.182617)"/>
    </clipPath>
  </defs>
</svg>
