<svg viewBox="0 0 102 33" fill="currentColor" xmlns="http://www.w3.org/2000/svg">
  <path d="M51.5838 0.313477H44.916V24.4288H51.8959C58.5965 24.4288 63.195 20.5573 63.195 12.2563C63.195 3.95539 58.5801 0.313477 51.5838 0.313477ZM51.2718 20.0323H50.3685V4.71002H51.2718C55.0327 4.71002 57.5783 6.49817 57.5783 12.2563C57.5783 18.0145 55.0327 20.0323 51.2718 20.0323Z" />
  <path d="M33.5842 14.2577V4.89047H41.2702L41.5494 4.44754L44.1607 0.313477H33.6334H33.5842C30.5623 0.346287 28.1152 2.79063 28.1152 5.82556V18.9168C28.1152 21.9353 30.5459 24.4124 33.5842 24.4288H41.2702L41.5494 23.9859L44.1607 19.8518H33.5842V14.2577Z" />
  <path d="M94.1363 12.0267L101.313 0.313477H95.3516L92.3954 5.18576C92.1819 5.54667 91.952 5.92399 91.7056 6.35052C91.4757 6.77705 91.2622 7.20358 91.0487 7.5973H90.9666C90.8023 7.18717 90.5888 6.77705 90.3589 6.35052C90.129 5.92399 89.8991 5.53027 89.6691 5.18576L86.7294 0.313477H80.4393L87.6655 12.1743L81.9338 21.4103L75.3481 0.313477H68.7953L61.2734 24.4288H66.8573L68.3354 18.7035L69.0909 15.767H74.8718L75.6109 18.6871L77.0726 24.4288H86.0232L89.2421 19.212C89.4885 18.8019 89.7513 18.3754 90.014 17.916C90.2932 17.4567 90.5232 16.9974 90.7202 16.5708H90.8023C91.0159 16.9974 91.2622 17.4567 91.525 17.9325C91.7877 18.4082 92.0341 18.8347 92.2476 19.212L95.4008 24.4288H101.691L94.1363 12.0267ZM70.2077 11.4197C70.766 9.20499 71.3573 6.71143 71.8828 4.44754H72.0306C72.5398 6.71143 73.1803 9.20499 73.7551 11.4197H70.2077Z" />
  <path d="M11.8068 9.61512H9.91812L18.606 0.313477H3.48022C1.72294 0.313477 0.310547 1.72431 0.310547 3.47964V24.0351C0.310547 24.2484 0.474779 24.4288 0.68828 24.4288H5.81232V15.1272L11.8068 9.61512Z" />
  <path d="M18.6054 0.313477V9.61512L12.6273 15.1272H14.516L5.82812 24.4288H20.9539C22.6948 24.4288 24.1236 23.018 24.1236 21.2627C24.1236 21.2627 24.1236 21.2627 24.1236 21.2463V0.707197C24.1236 0.493932 23.9429 0.313477 23.7294 0.313477H18.6054Z" />
  <path d="M77.1387 28.4805H77.5985V30.0225H79.3065V28.4805H79.7664V32.1552H79.3065V30.4327H77.5985V32.1552H77.1387V28.4805Z" />
  <path d="M80.5703 30.3016C80.5703 29.1205 81.2108 28.415 82.1305 28.415C83.0502 28.415 83.6907 29.1369 83.6907 30.3016C83.6907 31.4664 83.0502 32.221 82.1305 32.221C81.2108 32.221 80.5703 31.4828 80.5703 30.3016ZM83.2309 30.3016C83.2309 29.3829 82.8039 28.8252 82.1469 28.8252C81.49 28.8252 81.063 29.3829 81.063 30.3016C81.063 31.2203 81.49 31.8109 82.1469 31.8109C82.8039 31.8109 83.2309 31.2203 83.2309 30.3016Z" />
  <path d="M84.5117 28.4805H84.9716V31.7615H86.581V32.1552H84.5117V28.4805Z" />
  <path d="M87.2227 28.4805H88.1424C89.2756 28.4805 89.8668 29.1367 89.8668 30.3014C89.8668 31.4662 89.2591 32.1552 88.1588 32.1552H87.2227V28.4805ZM88.1095 31.7615C88.9635 31.7615 89.3905 31.2201 89.3905 30.3014C89.3905 29.3827 88.9635 28.8578 88.1095 28.8578H87.6989V31.7615H88.1095Z" />
  <path d="M90.6699 28.4805H91.1298V32.1552H90.6699V28.4805Z" />
  <path d="M92.1328 28.4805H92.6091L93.9394 30.7936L94.3335 31.5482H94.3499C94.3171 31.1873 94.2843 30.7608 94.2843 30.3835V28.4805H94.7277V32.1552H94.2514L92.9376 29.8421L92.5434 29.0875H92.527C92.5434 29.4648 92.5927 29.8421 92.5927 30.2358V32.1552H92.1492V28.4805H92.1328Z" />
  <path d="M95.5332 30.318C95.5332 29.1369 96.2394 28.415 97.2248 28.415C97.6189 28.415 98.0131 28.5791 98.2759 28.8744L98.0295 29.1861C97.8325 28.9564 97.5368 28.8416 97.2412 28.8416C96.5022 28.8416 96.0259 29.4157 96.0259 30.318C96.0259 31.2203 96.4693 31.8109 97.2412 31.8109C97.4711 31.8273 97.7175 31.7453 97.8981 31.5976V30.6461H97.1263V30.2524H98.3251V31.7945C98.0131 32.0898 97.619 32.2374 97.192 32.221C96.223 32.221 95.5332 31.5156 95.5332 30.318Z" />
  <path d="M98.9316 31.6798L99.2108 31.3517C99.4736 31.6306 99.8349 31.7947 100.229 31.8111C100.705 31.8111 101.001 31.565 101.001 31.2205C101.001 30.876 100.738 30.7283 100.393 30.5807L99.8678 30.351C99.5229 30.2034 99.1287 29.9409 99.1287 29.3995C99.1287 28.8582 99.6214 28.4316 100.278 28.4316C100.689 28.4316 101.067 28.5957 101.362 28.891L101.116 29.1863C100.902 28.973 100.59 28.8418 100.278 28.8418C99.8678 28.8418 99.5886 29.055 99.5886 29.3831C99.5886 29.7276 99.9006 29.8753 100.196 29.9901L100.722 30.2198C101.149 30.4002 101.477 30.6463 101.477 31.2041C101.477 31.7783 101.001 32.254 100.229 32.254C99.7364 32.2212 99.2765 32.0243 98.9316 31.6798Z" />
  <path d="M74.4944 29.498H28.1152V30.3675H74.4944V29.498Z" />
</svg>
