<svg width="661" height="661" viewBox="0 0 661 661" fill="none" xmlns="http://www.w3.org/2000/svg">
<rect x="0.351562" y="0.968506" width="660" height="660" rx="330" fill="#414141"/>
<path d="M442.656 295.496L407.717 257.063C407.551 256.231 407.177 255.482 406.594 254.817C405.762 253.985 404.806 253.568 403.725 253.568H256.604C255.523 253.568 254.566 253.985 253.734 254.817C253.152 255.482 252.82 256.231 252.736 257.063L218.173 295.496C218.089 295.496 218.048 295.537 218.048 295.621C217.966 295.621 217.923 295.662 217.923 295.746C217.84 295.828 217.757 295.911 217.674 295.995C217.633 296.161 217.59 296.328 217.549 296.494C217.3 296.827 217.175 297.242 217.175 297.741V298.116C217.175 298.615 217.382 299.198 217.799 299.863L327.606 452.096C327.772 452.345 327.981 452.554 328.23 452.72L328.855 452.969L328.979 453.094L329.229 453.219C329.311 453.219 329.478 453.261 329.728 453.343H329.977H330.351C330.768 453.343 331.142 453.302 331.475 453.219C332.14 452.969 332.639 452.595 332.972 452.096H333.097L442.904 299.863C443.071 299.447 443.196 299.073 443.278 298.74C443.445 298.573 443.529 298.407 443.529 298.241V298.116V297.741L443.278 296.619C443.112 296.203 442.904 295.828 442.655 295.496M372.777 261.679H402.974L432.424 294.497H387.502L372.778 261.679M333.721 301.11H380.515L333.721 430.757V301.11ZM333.721 261.679H365.291L380.016 294.497H333.72V261.679M326.982 261.679V294.497H280.687L295.412 261.679H326.982M257.602 261.679H288.049L273.325 294.497H228.03L257.602 261.679ZM227.156 301.11H273.201L318.998 428.637L227.16 301.11M326.987 301.11V430.757L280.318 301.11H326.987ZM341.586 428.637L387.756 301.11H433.55L341.586 428.637Z" fill="white"/>
</svg>
