<svg xmlns="http://www.w3.org/2000/svg" viewBox="0 0 69.68 14.27"><defs><style>.cls-1{opacity:0.94;}.cls-2{fill:#9ba9bb;}</style></defs><title>Asset 3</title><g id="Layer_2" data-name="Layer 2"><g id="Layer_1-2" data-name="Layer 1"><g class="cls-1"><path class="cls-2" d="M35.71.29V4.85c.38-.08.72-.19,1.07-.23a6.23,6.23,0,0,1,3,.19A2.06,2.06,0,0,1,41.2,6.53a12,12,0,0,1,.13,1.72c0,.93,0,1.87,0,2.8a2.9,2.9,0,0,1-2.5,3,9.8,9.8,0,0,1-2.66.21,30.22,30.22,0,0,1-3.1-.33c-.13,0-.17-.07-.16-.18s0-.09,0-.13q0-6.3,0-12.6c0-.2,0-.28.25-.32.84-.13,1.67-.27,2.51-.41Zm0,9.29c0,.68,0,1.36,0,2,0,.2.07.27.27.27.41,0,.82,0,1.22,0a1.15,1.15,0,0,0,1.22-1,3.13,3.13,0,0,0,.05-.62q0-1.2,0-2.4a.9.9,0,0,0-.72-.9,2.75,2.75,0,0,0-1.81.25.3.3,0,0,0-.2.32C35.71,8.22,35.71,8.9,35.71,9.58Z"/><path class="cls-2" d="M63.87,14.12H61V.73L63.87.26V8.85l0,0,.14-.21,2.38-3.78a.42.42,0,0,1,.41-.23c.85,0,1.71,0,2.56,0h.26l-.13.23C68.67,6.26,67.82,7.63,66.94,9a.46.46,0,0,0,0,.57c.88,1.46,1.75,2.92,2.63,4.38l.11.2h-1c-.6,0-1.2,0-1.8,0a.41.41,0,0,1-.41-.24c-.8-1.34-1.6-2.68-2.4-4a.39.39,0,0,0-.16-.16Z"/><path class="cls-2" d="M31.85,10.21H26.69c-.21,0-.3.06-.27.27s0,.37.06.55a1,1,0,0,0,1,.81,12.68,12.68,0,0,0,3.31-.17l.72-.1c0,.45,0,.87,0,1.29s0,.56,0,.85c0,.12,0,.19-.16.2-.82.1-1.63.23-2.46.3a10.49,10.49,0,0,1-1.77,0,3.68,3.68,0,0,1-3-1.58,3.45,3.45,0,0,1-.57-1.77c0-.94-.06-1.88,0-2.82a3.61,3.61,0,0,1,.77-2.31,3.19,3.19,0,0,1,1.92-1.07,6.5,6.5,0,0,1,3.52.19,2.83,2.83,0,0,1,1.93,2.44C31.83,8.24,31.81,9.21,31.85,10.21ZM27.66,8.33h.8c.52,0,.52,0,.48-.53s-.27-1-.75-1.08a2.34,2.34,0,0,0-.72-.06,1,1,0,0,0-1,.79c0,.22,0,.46-.05.68s.05.2.19.19Z"/><path class="cls-2" d="M51.65,9.37c0-.55,0-1.11,0-1.66A3.14,3.14,0,0,1,54,4.77a7.08,7.08,0,0,1,2.77-.19,4,4,0,0,1,2,.7A3.12,3.12,0,0,1,60,7.37a19,19,0,0,1,.09,2.88,4.94,4.94,0,0,1-.24,1.7A3.1,3.1,0,0,1,57.51,14a7.2,7.2,0,0,1-2.46.14,4.38,4.38,0,0,1-1.91-.58,3,3,0,0,1-1.42-2.2c-.1-.67-.1-1.35-.14-2Zm2.82,0c0,.44,0,.89,0,1.33a1.08,1.08,0,0,0,.91,1.12,3,3,0,0,0,.81,0,1.09,1.09,0,0,0,1-1.11q0-1.35,0-2.69A1,1,0,0,0,56.34,7a3.36,3.36,0,0,0-.7,0,1.11,1.11,0,0,0-1.16,1.16C54.48,8.51,54.48,8.94,54.48,9.37Z"/><path class="cls-2" d="M50.65,9.4c0,.58,0,1.16,0,1.73A3.08,3.08,0,0,1,48.2,14a6.41,6.41,0,0,1-3.8-.11,3,3,0,0,1-2.1-2.62A17.19,17.19,0,0,1,42.25,8,3.61,3.61,0,0,1,43,5.82a3.28,3.28,0,0,1,2.08-1.16,6.65,6.65,0,0,1,3.5.2,3,3,0,0,1,2,2.44c.11.69.1,1.4.15,2.1Zm-2.82,0c0-.47,0-.93,0-1.4a1,1,0,0,0-.71-1,2.84,2.84,0,0,0-.76-.09,1.13,1.13,0,0,0-1.26,1.2q0,1.27,0,2.53a1.09,1.09,0,0,0,.64,1.08,1.88,1.88,0,0,0,1.06.12,1.1,1.1,0,0,0,1-1.18Q47.83,10,47.83,9.4Z"/><path class="cls-2" d="M7.32,7l.19-1.85s0,0,0-.07c.07-.47.07-.47.55-.47,1,0,2,0,3.07,0a6.23,6.23,0,0,1,1.6.32,2.18,2.18,0,0,1,1.48,1.91,11.78,11.78,0,0,1,.11,1.61c0,1.77,0,3.55,0,5.32,0,.29,0,.29-.29.29H12l-.13-.59c-.33.14-.63.29-.94.39a4.71,4.71,0,0,1-2.68.2,2.34,2.34,0,0,1-1.79-1.94,3.68,3.68,0,0,1,0-1.63A2.09,2.09,0,0,1,8.27,8.91a6.28,6.28,0,0,1,1-.09c.67,0,1.34,0,2,0,.12,0,.21,0,.21-.16,0-.32,0-.64-.06-1a.6.6,0,0,0-.53-.55A11.3,11.3,0,0,0,9.52,7C8.88,7,8.24,7,7.6,7Zm3.28,3.67H9.9c-.44,0-.65.18-.68.59s.08.84.65.91A2.17,2.17,0,0,0,11,12c.54-.24.44-.1.45-.66,0-.13,0-.27,0-.4s0-.27-.25-.26S10.82,10.7,10.61,10.7Z"/><path class="cls-2" d="M4.34,14.12H1.47v-.28c0-2.17,0-4.35,0-6.52,0-.23-.06-.3-.28-.29s-.65,0-1,0C0,7,0,7,0,6.82q0-1,0-2c0-.16,0-.21.2-.21h1l.31,0c0-.13,0-.23,0-.34,0-.72,0-1.46.1-2.17a2.3,2.3,0,0,1,2.05-2A5.28,5.28,0,0,1,4.35,0C5.06,0,5.77,0,6.5,0V2.37H6.28c-.44,0-.87,0-1.31,0a.6.6,0,0,0-.62.6c0,.52,0,1.05,0,1.6l.29,0H6.28c.2,0,.27.06.24.25q-.12,1-.22,2c0,.15-.12.13-.21.13H4.65l-.3,0Z"/><path class="cls-2" d="M22.64,7.2c-.28,0-.53-.07-.78-.12a8.54,8.54,0,0,0-2.47-.15c-.93.09-1.11.47-1.15,1.26s0,1.6,0,2.4a2,2,0,0,0,.06.44c.13.57.51.75,1.05.82a10.92,10.92,0,0,0,3.06-.24l.15,0,.08,0c0,.48,0,1,0,1.46,0,.22,0,.43,0,.65s0,.19-.16.21c-.72.1-1.44.22-2.16.31a5.77,5.77,0,0,1-2.7-.31,3.12,3.12,0,0,1-2.14-2.7,21.37,21.37,0,0,1-.09-2.93,3.85,3.85,0,0,1,.79-2.4,3.5,3.5,0,0,1,2-1.2,7.22,7.22,0,0,1,2.6-.1c.56.07,1.12.17,1.68.27.06,0,.16.1.16.15C22.64,5.73,22.64,6.44,22.64,7.2Z"/></g></g></g></svg>