<svg xmlns="http://www.w3.org/2000/svg" viewBox="0 0 64.92 17.45"><defs><style>.cls-1{opacity:0.94;}.cls-2{fill:#9ba9bb;}</style></defs><title>Asset 7</title><g id="Layer_2" data-name="Layer 2"><g id="Layer_1-2" data-name="Layer 1"><g class="cls-1"><path class="cls-2" d="M9.2,13.89V10.61H8.64L6.9,10.52c0-.58-.06-1.16-.08-1.75,0-.29,0-.58,0-.86s.14-.46.47-.46q2.51,0,5,0c.36,0,.48.13.48.49q0,3.9,0,7.8a.56.56,0,0,1-.33.56,9.64,9.64,0,0,1-5.62,1.07,11.33,11.33,0,0,1-2.35-.45A5.65,5.65,0,0,1,.65,13,14,14,0,0,1,.76,4.26,5.85,5.85,0,0,1,5.88.12a12.77,12.77,0,0,1,5.2.34c1.1.31,1.1.33.84,1.42-.13.53-.27,1.07-.38,1.6-.07.36-.24.41-.56.3a9.22,9.22,0,0,0-3.85-.35A3.4,3.4,0,0,0,4,6.23,10.21,10.21,0,0,0,4,11.5a3.16,3.16,0,0,0,3.41,2.56c.5,0,1-.05,1.5-.09A1.48,1.48,0,0,0,9.2,13.89Z"/><path class="cls-2" d="M32.25,6.77H37v-.4q0-2.61,0-5.22c0-.48,0-.51.52-.51h2.55c.45,0,.51.05.51.49q0,7.75,0,15.5c0,.36-.13.49-.49.48q-1.31,0-2.63,0c-.35,0-.48-.11-.48-.48,0-2.09,0-4.18,0-6.27,0-.1,0-.2,0-.32H32.25v.44q0,3.06,0,6.12c0,.46,0,.5-.48.5-.86,0-1.73,0-2.59,0-.34,0-.49-.1-.49-.47q0-7.77,0-15.53c0-.34.11-.47.46-.47q1.33,0,2.66,0c.35,0,.45.13.45.47,0,1.74,0,3.48,0,5.22C32.25,6.46,32.25,6.59,32.25,6.77Z"/><path class="cls-2" d="M56.9,16.28a.43.43,0,0,0-.06.08c-.2.73-.2.73-1,.73-.43,0-.85,0-1.28,0s-.5-.12-.49-.48c0-.74,0-1.48,0-2.21q0-6.53,0-13.06c0-.71,0-.71.73-.71s1.6,0,2.4,0c.34,0,.46.12.46.46,0,1.7,0,3.4,0,5.16l.39-.16a5.71,5.71,0,0,1,3.84-.4,3.64,3.64,0,0,1,2.72,3,11.83,11.83,0,0,1-.17,5.86c-.6,2.11-2,3-4.47,2.79A5.74,5.74,0,0,1,56.9,16.28Zm.72-4.83c0,.75,0,1.5,0,2.25a.42.42,0,0,0,.29.45,4,4,0,0,0,1.93.34,1.26,1.26,0,0,0,1.28-1,7.26,7.26,0,0,0,.2-1.29,6.74,6.74,0,0,0-.17-2.53,1.56,1.56,0,0,0-1.83-1.24,9.73,9.73,0,0,0-1.44.38c-.21.06-.27.2-.27.42C57.63,10,57.62,10.72,57.62,11.46Z"/><path class="cls-2" d="M50,16.46c-.85.29-1.65.62-2.49.83a5.84,5.84,0,0,1-2.9-.06,3,3,0,0,1-2.44-3.18c0-2.23,0-4.45,0-6.68,0-.38,0-.75,0-1.13s.11-.37.36-.37h2.85c.37,0,.38.23.38.5q0,3.13,0,6.27a7.29,7.29,0,0,0,0,.86,1,1,0,0,0,1,1,3.55,3.55,0,0,0,1.82-.33.56.56,0,0,0,.38-.59c0-2.39,0-4.78,0-7.17,0-.5,0-.53.53-.53H52.1c.3,0,.43.11.43.42q0,5.2,0,10.39c0,.31-.13.42-.43.42q-.81,0-1.61,0c-.28,0-.42-.1-.45-.38C50,16.62,50,16.5,50,16.46Z"/><path class="cls-2" d="M24.62,5.87c.74,0,1.42,0,2.11,0,.35,0,.46.13.46.46q0,1,0,2.06c0,.32-.12.45-.45.44-.69,0-1.37,0-2.09,0,0,.15,0,.27,0,.39q0,2,0,3.9A1.19,1.19,0,0,0,26,14.5a7.83,7.83,0,0,0,.86,0c.27,0,.4.07.4.35,0,.65,0,1.3,0,2a.49.49,0,0,1-.28.36,6.12,6.12,0,0,1-3.65,0,3,3,0,0,1-2.13-3c-.05-1.61,0-3.23,0-4.84,0-.15,0-.29,0-.49-.51,0-1,0-1.42,0s-.45-.1-.44-.43c0-.55,0-1.1,0-1.65a.36.36,0,0,1,.33-.42c.4-.09.8-.21,1.2-.28s.35-.16.34-.42c0-.86,0-1.73,0-2.59,0-.28.09-.38.37-.37q1.39,0,2.78,0c.28,0,.37.1.37.37,0,.8,0,1.6,0,2.4C24.62,5.57,24.62,5.71,24.62,5.87Z"/><path class="cls-2" d="M14.53,11.43q0-2.53,0-5.06c0-.45,0-.49.5-.49.89,0,1.78,0,2.66,0,.31,0,.42.13.42.42q0,5.16,0,10.32c0,.34-.14.5-.49.49-.85,0-1.7,0-2.55,0-.45,0-.54-.1-.54-.56Q14.53,14,14.53,11.43Z"/><path class="cls-2" d="M16.36,5a2,2,0,0,1,0-4,2,2,0,0,1,0,4Z"/></g></g></g></svg>