<svg xmlns="http://www.w3.org/2000/svg" viewBox="0 0 40.91 21.26"><defs><style>.cls-1{opacity:0.94;}.cls-2{fill:#9ba9bb;}</style></defs><title>Asset 4</title><g id="Layer_2" data-name="Layer 2"><g id="Layer_1-2" data-name="Layer 1"><g class="cls-1"><path class="cls-2" d="M0,21.26V0H21.3V12.22H19.95V1.37H1.4V19.88H19.94V18.6h1.34v2.66Z"/><path class="cls-2" d="M8,15.55v2.38H6.71v-5c.41,0,.81,0,1.2,0a.57.57,0,0,1,.35.26c.37.6.72,1.22,1.15,2V12.95h1.34v5a9.8,9.8,0,0,1-1.1,0c-.12,0-.25-.18-.32-.31-.43-.7-.84-1.4-1.25-2.11Z"/><path class="cls-2" d="M11.45,18V12.86c.92.05,1.84.06,2.74.17a1.34,1.34,0,0,1,1.13,1.12,5.31,5.31,0,0,1,0,2.58A1.4,1.4,0,0,1,14,17.87C13.19,18,12.34,18,11.45,18Zm1.35-1.27c1,.09,1.24-.13,1.27-1,0-.18,0-.35,0-.53,0-.91-.33-1.16-1.27-1Z"/><path class="cls-2" d="M40,15.44c0,.08,0,.16,0,.24,0,2.23-1.55,2.58-3.16,2.18a1.52,1.52,0,0,1-1.1-1.13,4.6,4.6,0,0,1,0-2.62A1.55,1.55,0,0,1,37,12.93a4.69,4.69,0,0,1,1.39,0,1.67,1.67,0,0,1,1.48,1.45c.07.36.09.73.14,1.1Zm-3,0c0,.22,0,.45.05.67a.72.72,0,0,0,.76.66.67.67,0,0,0,.77-.62,7,7,0,0,0,0-1.34.68.68,0,0,0-.82-.68.72.72,0,0,0-.74.73C37,15.08,37,15.28,37,15.47Z"/><path class="cls-2" d="M26.17,15.4c0-.06,0-.13,0-.19,0-1.79,1-2.63,2.79-2.33a1.72,1.72,0,0,1,1.5,1.37,4.83,4.83,0,0,1,0,2.39,1.6,1.6,0,0,1-1.35,1.28,4.74,4.74,0,0,1-1.44,0,1.63,1.63,0,0,1-1.38-1.38,11.53,11.53,0,0,1-.15-1.15Zm3,.1c0-.24,0-.44,0-.63a.71.71,0,0,0-.75-.71c-.45,0-.76.18-.8.65a9.08,9.08,0,0,0,0,1.34.67.67,0,0,0,.75.65.71.71,0,0,0,.78-.63A5.64,5.64,0,0,0,29.2,15.5Z"/><path class="cls-2" d="M34.94,13.25l-.7,1.08a8.16,8.16,0,0,0-.92-.16c-.51,0-.78.17-.84.66a6.33,6.33,0,0,0,0,1.4.75.75,0,0,0,1.13.56c.17-.11.21-.44.35-.75L33,16l.13-1.06h1.93V18c-.8,0-1.58,0-2.34,0a1.47,1.47,0,0,1-1.53-1.29,10.19,10.19,0,0,1,0-2.48,1.47,1.47,0,0,1,1.28-1.27A3.39,3.39,0,0,1,34.94,13.25Z"/><path class="cls-2" d="M24.42,16l-.82,0,.14-1.07h1.93V18a25.29,25.29,0,0,1-2.58,0,1.49,1.49,0,0,1-1.35-1.44,9.61,9.61,0,0,1,0-2.16,1.57,1.57,0,0,1,1.37-1.43,3.29,3.29,0,0,1,2.4.33l-.69,1.07c-.34-.06-.65-.13-1-.15a.66.66,0,0,0-.79.65,7.85,7.85,0,0,0,0,1.44c.06.49.39.68.92.6S24.46,16.42,24.42,16Z"/><path class="cls-2" d="M20.76,14.79C20.67,16,20.67,16,19.64,16l-.31,0v.68h2v1.22H18v-5h3.31v1.17h-2v.68Z"/><path class="cls-2" d="M17.25,17.94H16v-5h1.3Z"/><path class="cls-2" d="M4.71,12.93H6v5H4.71Z"/><path class="cls-2" d="M40.91,17.57c-.24.13-.38.28-.51.27s-.2-.21-.29-.32c.13-.1.25-.25.4-.28S40.71,17.39,40.91,17.57Z"/></g></g></g></svg>