<svg xmlns="http://www.w3.org/2000/svg" viewBox="0 0 99.55 11.61"><defs><style>.cls-1{opacity:0.94;}.cls-2{fill:#9ba9bb;}</style></defs><title>Asset 2</title><g id="Layer_2" data-name="Layer 2"><g id="Layer_1-2" data-name="Layer 1"><g class="cls-1"><path class="cls-2" d="M3.64,4l2-3A1.77,1.77,0,0,1,7.2.21,1.75,1.75,0,0,1,8.5.75,1.76,1.76,0,0,1,8.75,3L6.9,5.69,9.16,8.56a1.5,1.5,0,0,1,.34,1A1.75,1.75,0,0,1,9,10.86a1.77,1.77,0,0,1-1.3.55,1.55,1.55,0,0,1-1.28-.53L3.62,7.43V9.35a2.42,2.42,0,0,1-.28,1.28,1.67,1.67,0,0,1-1.51.83,1.66,1.66,0,0,1-1.38-.6A2.56,2.56,0,0,1,0,9.33V2.26A2.19,2.19,0,0,1,.47.81,1.71,1.71,0,0,1,1.83.21a1.8,1.8,0,0,1,1.36.6,1.34,1.34,0,0,1,.38.66,3.59,3.59,0,0,1,0,.79V4ZM13.82,2.47V9.31a2.21,2.21,0,0,1-.47,1.47,1.62,1.62,0,0,1-1.36.64,1.72,1.72,0,0,1-1.34-.6,2.18,2.18,0,0,1-.47-1.51V2.47A2.38,2.38,0,0,1,10.65.81,1.73,1.73,0,0,1,12,.21a1.71,1.71,0,0,1,1.34.58A2.48,2.48,0,0,1,13.82,2.47ZM20.38,0a5.84,5.84,0,0,1,3.71,1.34,3,3,0,0,1,1.32,2.22,1.75,1.75,0,0,1-.81,1.51,1.68,1.68,0,0,1-1,.3,1.74,1.74,0,0,1-.85-.21,7.63,7.63,0,0,1-.83-.81,2,2,0,0,0-1.55-.68,2.07,2.07,0,0,0-1.51.62,2.21,2.21,0,0,0,0,3.07A2,2,0,0,0,20.36,8a2.19,2.19,0,0,0,1.38-.51l.79-.77a1.61,1.61,0,0,1,1.06-.36,1.89,1.89,0,0,1,1.3.51,1.68,1.68,0,0,1,.55,1.26,2.83,2.83,0,0,1-1.19,2,5.61,5.61,0,0,1-3.86,1.45A5.9,5.9,0,0,1,17.85,11a5.82,5.82,0,0,1-2.41-2.13,5.62,5.62,0,0,1-.89-3.09A5.66,5.66,0,0,1,16.4,1.53,5.77,5.77,0,0,1,20.38,0Zm9.33,4,2-3A1.77,1.77,0,0,1,33.27.21a1.75,1.75,0,0,1,1.3.53A1.76,1.76,0,0,1,34.82,3L33,5.69l2.26,2.88a1.5,1.5,0,0,1,.34,1,1.75,1.75,0,0,1-.53,1.3,1.77,1.77,0,0,1-1.3.55,1.55,1.55,0,0,1-1.28-.53L29.69,7.43V9.35a2.42,2.42,0,0,1-.28,1.28,1.84,1.84,0,0,1-2.9.23A2.29,2.29,0,0,1,26,9.39V2.26A2.19,2.19,0,0,1,26.52.81a1.91,1.91,0,0,1,2.77,0,1.34,1.34,0,0,1,.38.66,3.59,3.59,0,0,1,0,.79Zm8.14,3.13a2.15,2.15,0,0,1,1.3.53,2.64,2.64,0,0,0,1.17.66c.32,0,.47-.17.47-.49a.53.53,0,0,0-.28-.45,15.32,15.32,0,0,0-1.64-.62,3.18,3.18,0,0,1-2.43-3.17A3.28,3.28,0,0,1,37.72.87,4.49,4.49,0,0,1,40.51,0,4.55,4.55,0,0,1,43,.68a2,2,0,0,1,1.06,1.77,1.53,1.53,0,0,1-.4,1.09,1.34,1.34,0,0,1-1,.43,2.54,2.54,0,0,1-1.49-.64,1.65,1.65,0,0,0-.77-.4.39.39,0,0,0-.45.43c0,.28.36.53,1.11.75a6.67,6.67,0,0,1,2.34,1.17,3.15,3.15,0,0,1,1.11,2.58,3.45,3.45,0,0,1-1.24,2.83,4.53,4.53,0,0,1-3,.94,4.69,4.69,0,0,1-3.07-1,2.35,2.35,0,0,1-1-1.83,1.57,1.57,0,0,1,.47-1.17,1.75,1.75,0,0,1,1.19-.47Zm9.73-3.47h-1a2,2,0,0,1-1.32-.43A1.58,1.58,0,0,1,44.75,2,1.68,1.68,0,0,1,45,1.11a1.46,1.46,0,0,1,.68-.62,6.08,6.08,0,0,1,2-.19h3.66a5.71,5.71,0,0,1,1.75.17,1.41,1.41,0,0,1,.7.62,1.83,1.83,0,0,1,.28.92,1.66,1.66,0,0,1-.6,1.3,2.05,2.05,0,0,1-1.41.4h-.83V9.2a2.73,2.73,0,0,1-.3,1.38,1.66,1.66,0,0,1-1.49.83,1.77,1.77,0,0,1-1.51-.75,2.56,2.56,0,0,1-.34-1.43ZM56.42,9.9a3,3,0,0,1-.53.92,1.72,1.72,0,0,1-1.34.6,1.7,1.7,0,0,1-1.49-.77,1.78,1.78,0,0,1-.32-1,2.27,2.27,0,0,1,.23-1L56.42,1.3A1.71,1.71,0,0,1,58.11.23a1.75,1.75,0,0,1,1.7,1.11L63.3,8.73a2,2,0,0,1,.21.87,1.79,1.79,0,0,1-.43,1.15,1.83,1.83,0,0,1-2.58.23,3.52,3.52,0,0,1-.7-1.06H56.42v0ZM71.55,7.07l.85,1.38a2.22,2.22,0,0,1,.36,1.17,1.67,1.67,0,0,1-.53,1.28,1.82,1.82,0,0,1-1.3.51,1.64,1.64,0,0,1-1.49-.83L67.92,8.09V9.58a1.82,1.82,0,0,1-.51,1.3,1.67,1.67,0,0,1-1.28.53,1.61,1.61,0,0,1-1.43-.68,2.49,2.49,0,0,1-.43-1.55V2.39C64.28,1,65,.3,66.54.3h2.32A3.59,3.59,0,0,1,71,1a3.81,3.81,0,0,1,1.43,1.7,3.92,3.92,0,0,1,.34,1.6A4.15,4.15,0,0,1,71.55,7.07Zm4.32-3.39h-1a2,2,0,0,1-1.32-.43A1.58,1.58,0,0,1,73,2a1.68,1.68,0,0,1,.26-.89A1.46,1.46,0,0,1,74,.49,6.08,6.08,0,0,1,76,.3h3.66a5.71,5.71,0,0,1,1.75.17,1.41,1.41,0,0,1,.7.62,1.83,1.83,0,0,1,.28.92,1.66,1.66,0,0,1-.6,1.3,2.05,2.05,0,0,1-1.41.4h-.83V9.2a2.73,2.73,0,0,1-.3,1.38,1.66,1.66,0,0,1-1.49.83,1.77,1.77,0,0,1-1.51-.75,2.56,2.56,0,0,1-.34-1.43ZM86.65,7.92h1.66a2.39,2.39,0,0,1,1.53.43,1.67,1.67,0,0,1,.6,1.3,1.58,1.58,0,0,1-.6,1.3,2.35,2.35,0,0,1-1.51.38H85.5a4.17,4.17,0,0,1-1.38-.15,1.56,1.56,0,0,1-1-1A4.65,4.65,0,0,1,83,8.78v-6a8.76,8.76,0,0,1,0-1,1.75,1.75,0,0,1,.43-.89,1.85,1.85,0,0,1,1-.53A7.31,7.31,0,0,1,85.6.3h2.17a10.18,10.18,0,0,1,1,0,1.91,1.91,0,0,1,1,.34A1.55,1.55,0,0,1,90.44,2a1.65,1.65,0,0,1-.58,1.34,2.17,2.17,0,0,1-1.41.4H86.67v.75H88.1a1.54,1.54,0,0,1,1,.34,1.15,1.15,0,0,1,.43,1c0,.87-.53,1.32-1.6,1.32h-1.3v.83Zm11.69-.85.85,1.38a2.22,2.22,0,0,1,.36,1.17A1.67,1.67,0,0,1,99,10.91a1.82,1.82,0,0,1-1.3.51,1.64,1.64,0,0,1-1.49-.83L94.72,8.09V9.58a1.82,1.82,0,0,1-.51,1.3,1.67,1.67,0,0,1-1.28.53,1.61,1.61,0,0,1-1.43-.68,2.49,2.49,0,0,1-.43-1.55V2.39C91.08,1,91.82.3,93.33.3h2.32A3.59,3.59,0,0,1,97.77,1a3.81,3.81,0,0,1,1.43,1.7,3.92,3.92,0,0,1,.34,1.6,4.15,4.15,0,0,1-1.19,2.81Z"/></g></g></g></svg>