<svg xmlns="http://www.w3.org/2000/svg" viewBox="0 0 58.87 14.42"><defs><style>.cls-1{opacity:0.94;}.cls-2{fill:#9ba9bb;}</style></defs><title>Asset 5</title><g id="Layer_2" data-name="Layer 2"><g id="Layer_1-2" data-name="Layer 1"><g class="cls-1"><path class="cls-2" d="M36.43,8.38c0-.08.07-.16.12-.24.24-.39.47-.79.72-1.17a1.51,1.51,0,0,1,.36-.35,1,1,0,0,1,1.72.74c0,.41,0,.83,0,1.24a5.12,5.12,0,0,0,0,.56c.06.4.35.53.67.28a1.79,1.79,0,0,0,.49-.57c.27-.55.51-1.13.75-1.7.1-.22.18-.45.28-.68a.38.38,0,0,1,.49-.22.36.36,0,0,1,.3.41c0,.49-.1,1-.14,1.46a6.77,6.77,0,0,0,0,.9c0,.23.06.48.33.57a.51.51,0,0,0,.59-.24,9.18,9.18,0,0,0,.75-1.18c.28-.55.48-1.14.75-1.7a.94.94,0,0,1,.42-.44c.29-.12.45,0,.43.34,0,.69-.08,1.37-.08,2.07a2.57,2.57,0,0,1,.19-.36,7.53,7.53,0,0,1,.95-1.21.91.91,0,0,1,1.59.49c.08.24.11.49.16.71.24-.33.47-.67.73-1a1.24,1.24,0,0,1,.86-.44,1,1,0,0,1,1.17.88,13.32,13.32,0,0,1,0,1.63,3.5,3.5,0,0,0,0,.42c0,.33.26.43.5.2a2.07,2.07,0,0,0,.49-.65c.32-.74.6-1.5.91-2.24a.73.73,0,0,1,.26-.34c.21-.13.38,0,.47.19s.27.76.41,1.14c0,.09.08.19.1.24.35-.41.67-.85,1.06-1.23a1.52,1.52,0,0,1,1.48-.42,1.81,1.81,0,0,1,1.39,1.59,2,2,0,0,1-1.59,2.47,2.23,2.23,0,0,1-1.7-.39c.11.49.24.94.29,1.39a11.15,11.15,0,0,1,.08,1.71,1.16,1.16,0,0,1-.62,1,1.14,1.14,0,0,1-1.68-.57,2.93,2.93,0,0,1,0-2c.22-.77.51-1.53.75-2.3a.9.9,0,0,0,0-.47c-.08-.31-.21-.61-.34-1a9,9,0,0,1-.36.89,13.08,13.08,0,0,1-.82,1.38,1.14,1.14,0,0,1-1,.51.84.84,0,0,1-.88-.85c0-.33,0-.66,0-1a6.3,6.3,0,0,0,0-.93A.6.6,0,0,0,50,7.5a.58.58,0,0,0-.5.12,1.93,1.93,0,0,0-.45.67c-.23.6-.42,1.23-.62,1.84-.08.24-.08.58-.45.54s-.29-.39-.31-.63c-.06-.68-.08-1.37-.14-2.05,0-.24-.07-.52-.36-.58a.55.55,0,0,0-.6.38c-.32.71-.61,1.43-.9,2.15-.06.16-.1.32-.16.48a.35.35,0,0,1-.45.23.48.48,0,0,1-.22-.36c0-.64,0-1.28,0-1.92,0-.18,0-.35,0-.61-.07.14-.11.23-.15.32-.29.53-.55,1.07-.89,1.57a2.5,2.5,0,0,1-.78.71A.94.94,0,0,1,41.72,10a7.52,7.52,0,0,1-.46-1c-.23.27-.47.58-.75.85a1.23,1.23,0,0,1-1.13.39.81.81,0,0,1-.69-.66,12.24,12.24,0,0,1-.1-1.37c0-.23,0-.47,0-.7a.42.42,0,0,0-.67-.32,1.66,1.66,0,0,0-.48.5A7.29,7.29,0,0,0,36.59,10c0,.12-.06.24-.1.35a.37.37,0,0,1-.45.29.38.38,0,0,1-.37-.39l-.19-2.36-.21.25a8.2,8.2,0,0,1-2.22,2.1A3.57,3.57,0,0,1,28.89,10a3.77,3.77,0,0,1-1.41-2.47,5.89,5.89,0,0,1,2.38-6A3.51,3.51,0,0,1,32.47.86,1.77,1.77,0,0,1,34,3.22a1.16,1.16,0,0,1-.64.71,1.19,1.19,0,0,1-.45,0,2.5,2.5,0,0,1,.07-.4A5.54,5.54,0,0,0,33.19,3c.2-.83-.35-1.43-1.26-1.38a3.23,3.23,0,0,0-2.08,1,5.23,5.23,0,0,0-1.59,4.1,4.08,4.08,0,0,0,.49,1.92,2.62,2.62,0,0,0,3.39,1.18A6.75,6.75,0,0,0,34.45,8l.17-.19a2.94,2.94,0,0,0,.93-2.25,10.6,10.6,0,0,1,.71-4A4.47,4.47,0,0,1,36.9.47,1.08,1.08,0,0,1,38.18.08a1.14,1.14,0,0,1,.72,1.09,4.72,4.72,0,0,1-.52,2.45,15.09,15.09,0,0,1-1.94,3,.74.74,0,0,0-.18.59c0,.39.08.78.11,1.16Zm20.88.15a1.49,1.49,0,0,0,0-.2,1.2,1.2,0,0,0-.72-1.09,1,1,0,0,0-1.17.39,12.37,12.37,0,0,0-.87,1.27.29.29,0,0,0,0,.26,1.94,1.94,0,0,0,1,.65A1.28,1.28,0,0,0,57.31,8.53ZM36.2,5.65l.11,0a11.65,11.65,0,0,0,1.76-3.44,3.48,3.48,0,0,0,.09-1,.49.49,0,0,0-.26-.38.54.54,0,0,0-.44.14,1.52,1.52,0,0,0-.37.56,13.24,13.24,0,0,0-.53,1.72C36.41,4.07,36.32,4.86,36.2,5.65ZM54,10.22h-.11c-.17.79-.35,1.57-.5,2.36a1.77,1.77,0,0,0,0,.67.49.49,0,0,0,.95,0,1.19,1.19,0,0,0,.07-.3A8.27,8.27,0,0,0,54,10.22Z"/><path class="cls-2" d="M8.23,7.91c.14-.43.25-.86.41-1.28.34-.86.67-1.74,1.09-2.56a4.51,4.51,0,0,1,1-1.2,1.77,1.77,0,0,1,.9-.41,1.26,1.26,0,0,1,1.56,1.23,8.16,8.16,0,0,1-.07,1.71c-.14,1.11-.34,2.21-.5,3.32a2.52,2.52,0,0,0,0,.84.66.66,0,0,0,.83.53.82.82,0,0,0,.75-.87,3,3,0,0,1,1.15-2.46,2.49,2.49,0,0,1,.53-.33,1.28,1.28,0,0,1,1.61.31c0-.14.07-.27.11-.4a.6.6,0,0,1,.8-.37c.23.09.23.28.19.47-.07.36-.18.71-.24,1.07s-.12,1-.15,1.45a.56.56,0,0,0,.36.59.59.59,0,0,0,.71-.2,5.87,5.87,0,0,0,.67-1c.27-.55.46-1.13.7-1.69a.75.75,0,0,1,.32-.39c.37-.15.58,0,.58.44a18.53,18.53,0,0,0,.05,2.19c.12,1,.76,1.19,1.54.62l.13-.1a.89.89,0,0,0,.38-1A11.32,11.32,0,0,1,24,2.46a3.29,3.29,0,0,1,.69-1.14,1.09,1.09,0,0,1,1.94.47,5.22,5.22,0,0,1,0,2.76,11.53,11.53,0,0,1-1.9,4.27.34.34,0,0,0,0,.41,1,1,0,0,0,1.65.38c.1-.07.18-.17.28-.24s.23-.12.26-.09a.4.4,0,0,1,.14.3,1.18,1.18,0,0,1-.21.48,1.51,1.51,0,0,1-2.2.19,7,7,0,0,1-.54-.61c-1.5,1.58-3.12,1.07-3.51-1.06a4.17,4.17,0,0,1-.24.4,7.66,7.66,0,0,1-.79,1,1.24,1.24,0,0,1-2.13-.43l-.08-.16c-.66,1.48-2,1.82-2.89.85-.15.11-.3.23-.46.32a1.39,1.39,0,0,1-2.21-1.18A19.77,19.77,0,0,1,12,7c.11-.92.24-1.84.36-2.77a1.25,1.25,0,0,0,0-.31c-.07-.61-.59-.87-1.08-.5a2.6,2.6,0,0,0-.74.87C10.09,5.17,9.69,6.1,9.32,7s-.68,1.87-1,2.81a1.26,1.26,0,0,1-.22.45.61.61,0,0,1-.43.18.42.42,0,0,1-.26-.31A9.44,9.44,0,0,1,7.37,9c.05-1.46.14-2.91.17-4.37A9.49,9.49,0,0,0,7.39,3a.68.68,0,0,0-.49-.63.71.71,0,0,0-.79.32,6.92,6.92,0,0,0-.79,1.48c-.55,1.67-1,3.36-1.54,5-.09.31-.18.61-.28.92a1.35,1.35,0,0,1-.13.31.52.52,0,0,1-.56.23c-.24,0-.25-.25-.25-.42,0-.55,0-1.11.07-1.66.08-1.8.18-3.61.25-5.41a3.29,3.29,0,0,0-.12-.95.81.81,0,0,0-1.42-.39,4.58,4.58,0,0,0-.61,1c-.08.14-.11.32-.18.47a1.62,1.62,0,0,1-.18.26A1.05,1.05,0,0,1,.1,3.34.84.84,0,0,1,0,3,2,2,0,0,1,2.5.91a1.36,1.36,0,0,1,1,.92,4.52,4.52,0,0,1,.2,1.84C3.63,4.84,3.54,6,3.46,7.18a1,1,0,0,0,0,.39c.12-.43.22-.87.35-1.29.31-1,.6-1.94,1-2.88A6.16,6.16,0,0,1,5.6,2.09a1.45,1.45,0,0,1,1.08-.6,1.32,1.32,0,0,1,1.45,1,5.61,5.61,0,0,1,.25,2.23c0,1-.12,2-.18,3,0,.06,0,.13,0,.19ZM24.36,8a2,2,0,0,0,.12-.16,10.82,10.82,0,0,0,1.41-4.1,8.65,8.65,0,0,0,0-1.65.43.43,0,0,0-.26-.32.51.51,0,0,0-.39.2,2.51,2.51,0,0,0-.4.77,19.64,19.64,0,0,0-.48,2.14A11,11,0,0,0,24.36,8ZM15,9c0,.16,0,.24,0,.33a.63.63,0,0,0,1,.57,1.59,1.59,0,0,0,.55-.42,4.3,4.3,0,0,0,.79-1.79.4.4,0,0,0-.06-.26A.79.79,0,0,0,16,7.1,2.35,2.35,0,0,0,15,9Z"/><ellipse class="cls-2" cx="42.27" cy="4.33" rx="0.6" ry="0.59" transform="translate(-0.09 0.97) rotate(-1.31)"/><path class="cls-2" d="M21.45,3.75a.61.61,0,0,1,.61.58.6.6,0,0,1-.59.59.59.59,0,0,1-.6-.58A.6.6,0,0,1,21.45,3.75Z"/><path class="cls-2" d="M58.44,10c.22,0,.4.06.43.31s-.21.44-.38.41a.34.34,0,0,1-.33-.35C58.15,10.12,58.25,10,58.44,10Z"/></g></g></g></svg>