<svg xmlns="http://www.w3.org/2000/svg" viewBox="0 0 52.42 20.95"><defs><style>.cls-1{opacity:0.94;}.cls-2,.cls-3{fill:#9ba9bb;}.cls-2{opacity:0.83;}</style></defs><title>Asset 6</title><g id="Layer_2" data-name="Layer 2"><g id="Layer_1-2" data-name="Layer 1"><g class="cls-1"><path class="cls-2" d="M4.56,18.64H.8c-.72,0-.88-.18-.77-.9.25-1.64.52-3.28.78-4.92Q1.73,7,2.66,1.11C2.79.26,3.08,0,3.94,0H10a9.75,9.75,0,0,1,3.6.56,3.88,3.88,0,0,1,2.49,4.27c0,.18,0,.35,0,.53s-.12.54-.18.8a6.46,6.46,0,0,1-5.15,5.27,18.77,18.77,0,0,1-3.94.21c-.85,0-1.17.3-1.3,1.15C5.18,14.75,4.86,16.69,4.56,18.64Z"/><path class="cls-3" d="M4.56,18.64c.31-1.95.62-3.89.92-5.84.13-.85.45-1.14,1.3-1.15a18.77,18.77,0,0,0,3.94-.21,6.46,6.46,0,0,0,5.15-5.27c.06-.27.12-.54.18-.8a3,3,0,0,1,1.69,2.56A7,7,0,0,1,16,13.34a5.83,5.83,0,0,1-4,1.75c-.46,0-.93,0-1.4.05s-.88.23-1,.83Q9.34,18,9,20c-.11.71-.35.92-1.06.92h-3c-.51,0-.66-.18-.6-.69S4.47,19.18,4.56,18.64Z"/><path class="cls-3" d="M20.92,13.65c-.94,0-.89.12-.73-.86.3-1.83.58-3.66.86-5.49.09-.59.13-.63.73-.63.84,0,1.68,0,2.51,0A1.73,1.73,0,0,1,26.14,8a2.69,2.69,0,0,1-2.54,3.28c-.33,0-.66,0-1,0a.43.43,0,0,0-.5.42c-.06.43-.15.86-.22,1.3-.1.62-.1.62-.72.62Zm2-3.73.41,0a1,1,0,0,0,.93-1.13c0-.48-.3-.68-1-.69h-.25c-.27,0-.4.08-.43.36s-.1.65-.15,1C22.39,9.95,22.39,9.95,22.94,9.93Z"/><path class="cls-3" d="M38.93,13.66c-1.09,0-.89,0-.76-.88.27-1.84.58-3.68.87-5.53.08-.51.14-.57.66-.57.85,0,1.7,0,2.55,0A1.75,1.75,0,0,1,44.09,9a2.52,2.52,0,0,1-2.75,2.32h-.58c-.56,0-.64.07-.72.61s-.14.78-.17,1.18-.22.62-.65.56A1.92,1.92,0,0,0,38.93,13.66Zm2-3.73.45,0a1,1,0,0,0,.89-1.13c0-.46-.3-.67-.94-.68H41c-.24,0-.35.08-.38.32s-.11.68-.16,1C40.37,9.94,40.38,9.94,40.91,9.93Z"/><path class="cls-3" d="M29.47,13.15a3.27,3.27,0,0,1-1.25.59,1.91,1.91,0,0,1-2.39-2A2.77,2.77,0,0,1,29.25,9a1.36,1.36,0,0,1,.78.5c0-.45.29-.49.64-.49,1.3,0,1.07-.1.91,1.08-.14,1-.31,2-.47,3-.09.55-.13.58-.68.58-.18,0-.36,0-.54,0S29.35,13.64,29.47,13.15Zm-1-.67a1.33,1.33,0,0,0,1.35-1.35.93.93,0,0,0-1-1,1.37,1.37,0,0,0-1.38,1.39A.91.91,0,0,0,28.48,12.49Zm1,.65,0,0h0Z"/><path class="cls-3" d="M48,9.48c0-.42.2-.52.52-.48h.21c1.21,0,.94,0,.81.95-.15,1.1-.36,2.19-.52,3.29,0,.31-.19.43-.49.43H47.9c-.31,0-.61,0-.5-.5a2.53,2.53,0,0,1-2.1.57,1.89,1.89,0,0,1-1.54-2A2.81,2.81,0,0,1,47.23,9,1.7,1.7,0,0,1,48,9.48Zm-.23,1.68a.94.94,0,0,0-1-1,1.38,1.38,0,0,0-1.37,1.36.92.92,0,0,0,1,1A1.32,1.32,0,0,0,47.8,11.16Z"/><path class="cls-3" d="M34.76,11.61c.54-.79,1-1.5,1.51-2.23A.71.71,0,0,1,37,9c.22,0,.44,0,.66,0s.35-.06.44.13-.07.28-.15.4l-2.28,3.28c-.49.71-1,1.42-1.47,2.14a.6.6,0,0,1-.61.32c-.31,0-.63,0-.95,0s-.36-.15-.19-.39c.34-.48.68-1,1-1.44a.5.5,0,0,0,.08-.53c-.39-1.1-.76-2.2-1.13-3.31-.19-.55-.16-.61.4-.6,1.34,0,1.07-.17,1.46,1.08C34.44,10.56,34.59,11,34.76,11.61Z"/><path class="cls-3" d="M50.62,13.66c-.79,0-.79,0-.67-.78.3-1.9.61-3.79.89-5.69.06-.38.18-.53.6-.52,1.08,0,1.08,0,.91,1.08q-.41,2.6-.82,5.2C51.41,13.66,51.4,13.66,50.62,13.66Z"/><polygon class="cls-3" points="29.43 13.14 29.44 13.17 29.42 13.17 29.43 13.14"/></g></g></g></svg>