<svg xmlns="http://www.w3.org/2000/svg" viewBox="0 0 45.48 18.93"><defs><style>.cls-1{opacity:0.94;}.cls-2,.cls-3{fill:#9ba9bb;}.cls-2{fill-rule:evenodd;}</style></defs><title>Asset 8</title><g id="Layer_2" data-name="Layer 2"><g id="Layer_1-2" data-name="Layer 1"><g class="cls-1"><g id="Stripe"><path class="cls-2" d="M45.48,9.78C45.48,6.54,43.92,4,40.92,4s-4.83,2.55-4.83,5.76c0,3.8,2.15,5.73,5.23,5.73a7.07,7.07,0,0,0,3.5-.82V12.13a6.66,6.66,0,0,1-3.1.7c-1.23,0-2.31-.44-2.45-1.91h6.18C45.45,10.74,45.48,10.08,45.48,9.78ZM39.23,8.58c0-1.42.88-2,1.67-2s1.6.6,1.6,2Z"/><path class="cls-2" d="M31.21,4a3.53,3.53,0,0,0-2.47,1l-.16-.78H25.8V18.93L29,18.26V14.69a3.54,3.54,0,0,0,2.23.8c2.26,0,4.32-1.82,4.32-5.83C35.52,6,33.43,4,31.21,4Zm-.75,8.71A1.89,1.89,0,0,1,29,12.1l0-4.69a1.9,1.9,0,0,1,1.51-.63c1.15,0,1.95,1.29,1.95,2.94S31.63,12.7,30.46,12.7Z"/><polygon class="cls-2" points="21.45 3.24 24.62 2.57 24.62 0 21.45 0.67 21.45 3.24"/><rect class="cls-3" x="21.45" y="4.2" width="3.17" height="11.06"/><path class="cls-2" d="M18.06,5.14l-.2-.93H15.13V15.26h3.15V7.77a2.24,2.24,0,0,1,2.41-.66V4.2A2.15,2.15,0,0,0,18.06,5.14Z"/><path class="cls-2" d="M11.73,1.46l-3.08.65V12.24a3.18,3.18,0,0,0,3.28,3.25,4.87,4.87,0,0,0,2.21-.42V12.5c-.4.16-2.39.74-2.39-1.12V6.89h2.4V4.2h-2.4Z"/><path class="cls-2" d="M3.19,7.41c0-.49.41-.68,1.07-.68a7.07,7.07,0,0,1,3.14.81v-3A8.34,8.34,0,0,0,4.27,4C1.71,4,0,5.33,0,7.56,0,11.06,4.8,10.49,4.8,12c0,.58-.51.77-1.21.77a8,8,0,0,1-3.45-1v3a8.75,8.75,0,0,0,3.45.72c2.62,0,4.43-1.3,4.43-3.57C8,8.16,3.19,8.83,3.19,7.41Z"/></g></g></g></g></svg>