<svg width="123" height="105" viewBox="0 0 123 105" fill="none" xmlns="http://www.w3.org/2000/svg">
<path d="M81.3218 22.3269C81.3218 33.5561 72.2938 42.6592 61.1573 42.6592C50.0208 42.6592 40.9922 33.5561 40.9922 22.3269C40.9922 11.0977 50.0208 1.99463 61.1573 1.99463C72.2938 1.99463 81.3218 11.0977 81.3218 22.3269Z" stroke="white" stroke-width="3" stroke-miterlimit="10" stroke-linecap="round"/>
<path d="M29.975 88.7741C29.975 96.6461 23.6458 103.028 15.8388 103.028C8.03173 103.028 1.70312 96.6461 1.70312 88.7741C1.70312 80.902 8.03173 74.5208 15.8388 74.5208C23.6458 74.5208 29.975 80.902 29.975 88.7741Z" stroke="white" stroke-width="3" stroke-miterlimit="10" stroke-linecap="round"/>
<path d="M75.2954 88.7741C75.2954 96.6461 68.9668 103.028 61.1597 103.028C53.3527 103.028 47.0234 96.6461 47.0234 88.7741C47.0234 80.902 53.3527 74.5208 61.1597 74.5208C68.9668 74.5208 75.2954 80.902 75.2954 88.7741Z" stroke="white" stroke-width="3" stroke-miterlimit="10" stroke-linecap="round"/>
<path d="M120.819 88.7741C120.819 96.6461 114.49 103.028 106.683 103.028C98.8761 103.028 92.5469 96.6461 92.5469 88.7741C92.5469 80.902 98.8761 74.5208 106.683 74.5208C114.49 74.5208 120.819 80.902 120.819 88.7741Z" stroke="white" stroke-width="3" stroke-miterlimit="10" stroke-linecap="round"/>
<path d="M19.1641 74.9404L61.1565 42.6599" stroke="white" stroke-width="3" stroke-miterlimit="10" stroke-linecap="round"/>
<path d="M61.1562 42.6599V74.5212" stroke="white" stroke-width="3" stroke-miterlimit="10" stroke-linecap="round"/>
<path d="M61.1562 42.6599L106.683 74.5212" stroke="white" stroke-width="3" stroke-miterlimit="10" stroke-linecap="round"/>
</svg>
