<svg xmlns="http://www.w3.org/2000/svg" viewBox="0 0 56.42 63.08"><defs><style>.cls-1{fill:#6b91bf;stroke:#6b91bf;stroke-miterlimit:10;}</style></defs><title>Asset 7</title><g id="Layer_2" data-name="Layer 2"><g id="Layer_1-2" data-name="Layer 1"><path class="cls-1" d="M47.07,1.8H44c-.47,0-1,0-1-.62s.54-.67,1-.67c1.53,0,3.07,0,4.6,0,.62,0,.87.24.86.85,0,1.56,0,3.11,0,4.67,0,.47-.06.92-.64.92s-.66-.43-.66-.91c0-1,0-2.06,0-3.26-.27.25-.46.41-.63.58l-44.09,44c-.17.17-.31.42-.52.48a3.3,3.3,0,0,1-.9,0,3.72,3.72,0,0,1,0-1c.06-.2.32-.34.49-.51L46.53,2.57A6.11,6.11,0,0,1,47.21,2Z"/><path class="cls-1" d="M35.9,62.58H32.25c-.45,0-.85-.11-.86-.63s.4-.67.89-.67h7.31c.45,0,.85.09.86.62s-.41.68-.88.67Z"/><path class="cls-1" d="M51.35,31.7H47.69c-.46,0-.84-.1-.84-.64s.38-.66.84-.66h7.38c.46,0,.84.15.85.66s-.38.64-.85.64Z"/><path class="cls-1" d="M51.36,16.29H47.77c-.47,0-.91-.08-.91-.66s.44-.64.91-.64H55c.47,0,.93,0,1,.61s-.45.69-1,.69Z"/><path class="cls-1" d="M35.9,31.7H32.24c-.45,0-.85-.1-.85-.63s.37-.67.83-.67H39.6c.45,0,.84.11.85.64s-.37.66-.83.65Z"/><path class="cls-1" d="M4.94,62.58H1.43c-.47,0-.92-.07-.93-.63s.41-.67.89-.67H8.63c.46,0,.92,0,.92.63s-.47.67-1,.67Z"/><path class="cls-1" d="M51.41,54.83H47.76c-.44,0-.85-.06-.87-.61s.4-.69.87-.69H55c.48,0,.91.11.91.66s-.45.64-.92.64Z"/><path class="cls-1" d="M51.4,45.86h3.66c.46,0,.85.11.85.64s-.4.66-.85.66H47.67c-.46,0-.83-.15-.81-.69s.38-.61.81-.6Z"/><path class="cls-1" d="M51.36,62.58H47.71c-.46,0-.84-.12-.85-.64s.35-.66.82-.66h7.38c.46,0,.85.13.86.63s-.42.67-.9.67Z"/><path class="cls-1" d="M20.52,62.58H16.86c-.48,0-.91-.08-.9-.66s.45-.64.92-.64h7.17c.47,0,.93.06.94.62s-.46.68-1,.68C22.86,62.57,21.69,62.58,20.52,62.58Z"/><path class="cls-1" d="M5,54.83c-1.22,0-2.44,0-3.65,0-.47,0-.84-.15-.83-.66s.35-.64.79-.64H8.77c.43,0,.78.15.78.64s-.36.66-.82.66Z"/><path class="cls-1" d="M36,45.86h3.52c.47,0,1,0,1,.66s-.48.64-.93.64H32.33c-.46,0-.93-.07-.94-.64s.49-.66,1-.66Z"/><path class="cls-1" d="M20.52,45.86h3.58c.48,0,.91.1.89.67s-.43.63-.88.63H16.81c-.45,0-.84-.11-.85-.65s.38-.65.83-.65Z"/><path class="cls-1" d="M51.36,38.13c1.22,0,2.44,0,3.66,0,.48,0,.91.09.9.66s-.4.64-.86.64H47.74c-.45,0-.85-.1-.86-.63s.41-.66.89-.66Z"/><path class="cls-1" d="M20.45,54.83H16.86c-.44,0-.85-.06-.87-.61s.41-.68.88-.68h7.25c.46,0,.86.13.88.63s-.4.67-.89.67C22.89,54.83,21.67,54.83,20.45,54.83Z"/><path class="cls-1" d="M35.92,54.83H32.26c-.48,0-.84-.16-.82-.67s.36-.63.8-.63h7.39c.46,0,.83.14.81.68s-.37.61-.8.61Z"/><path class="cls-1" d="M35.92,39.42H32.33c-.49,0-.9-.13-.89-.68s.42-.62.87-.61h7.25c.48,0,.9.08.89.67s-.42.63-.87.63Z"/><path class="cls-1" d="M20.55,38.13c1.2,0,2.39,0,3.59,0,.46,0,.86.11.86.63s-.37.67-.83.67H16.85c-.45,0-.85-.1-.86-.64s.42-.66.9-.66Z"/><path class="cls-1" d="M51.35,24H47.76c-.43,0-.86-.06-.87-.61s.42-.68.89-.68H55c.45,0,.87.1.88.62S55.49,24,55,24Z"/><path class="cls-1" d="M36,22.69h3.52c.46,0,.91,0,.92.64S40,24,39.53,24H32.36c-.47,0-.92-.07-.93-.64s.44-.66.92-.66Z"/></g></g></svg>