<svg width="131" height="122" viewBox="0 0 131 122" fill="none" xmlns="http://www.w3.org/2000/svg">
<path d="M6.14336 46.4564L5.40629 46.0595V46.8967V54.7023C5.40629 55.1603 5.64458 55.5873 5.97445 55.9596C6.31072 56.3391 6.78995 56.7167 7.3852 57.0853C8.57787 57.824 10.3094 58.571 12.5105 59.2395C16.918 60.578 23.279 61.6223 31.1506 61.6223C39.0223 61.6223 45.3834 60.578 49.791 59.2395C51.9921 58.571 53.7236 57.824 54.9162 57.0853C55.5115 56.7167 55.9907 56.339 56.3269 55.9595C56.6567 55.5873 56.895 55.1603 56.8949 54.7023C56.8949 54.7022 56.8949 54.7022 56.8949 54.7022V46.8967V46.0595L56.1578 46.4564C50.5008 49.5029 40.8339 51.1083 31.1506 51.1083C21.4673 51.1083 11.8004 49.5029 6.14336 46.4564ZM6.14333 17.6886L5.40629 17.2918V18.1289V25.934C5.40629 26.3921 5.64457 26.819 5.97443 27.1913C6.31069 27.5709 6.78992 27.9486 7.38517 28.3173C8.57783 29.056 10.3094 29.8033 12.5104 30.4719C16.918 31.8108 23.2789 32.8555 31.1506 32.8555C39.0221 32.8555 45.383 31.8108 49.7906 30.4719C51.9917 29.8033 53.7233 29.056 54.916 28.3173C55.5112 27.9486 55.9905 27.5709 56.3267 27.1913C56.6566 26.819 56.8949 26.3921 56.8949 25.934V18.1289V17.2918L56.1578 17.6886C50.5008 20.7346 40.8339 22.3395 31.1506 22.3395C21.4673 22.3395 11.8004 20.7346 6.14333 17.6886ZM56.8949 32.5129V31.6757L56.1578 32.0727C50.5008 35.1191 40.8339 36.7245 31.1506 36.7245C21.4673 36.7245 11.8004 35.1191 6.14336 32.0727L5.40629 31.6757V32.5129V40.3175C5.40629 40.7756 5.64457 41.2026 5.97443 41.5749C6.31069 41.9544 6.78992 42.3321 7.38517 42.7008C8.57783 43.4396 10.3094 44.1868 12.5104 44.8555C16.918 46.1943 23.2789 47.239 31.1506 47.239C39.0221 47.239 45.383 46.1943 49.7906 44.8555C51.9917 44.1868 53.7233 43.4396 54.916 42.7008C55.5112 42.3321 55.9905 41.9544 56.3267 41.5749C56.6566 41.2026 56.8949 40.7756 56.8949 40.3175V32.5129ZM51.8914 62.6515C46.2371 64.5253 38.6822 65.4912 31.1511 65.4913H31.1506C23.6195 65.4912 16.0646 64.5253 10.4103 62.6515C7.58103 61.7139 5.2595 60.5592 3.65455 59.2102C2.05485 57.8655 1.20312 56.3619 1.20312 54.7023V11.5507C1.20312 9.89074 2.05489 8.38684 3.65458 7.04199C5.25953 5.69272 7.58105 4.53797 10.4103 3.60026C16.0647 1.7262 23.6198 0.760254 31.1511 0.760254C38.6817 0.760254 46.2369 1.72623 51.8914 3.6003C54.7207 4.53802 57.0424 5.69279 58.6474 7.04205C60.2472 8.3869 61.0991 9.89079 61.0991 11.5507L61.0986 54.7023C61.0986 56.3619 60.2468 57.8655 58.6471 59.2102C57.0422 60.5592 54.7207 61.7139 51.8914 62.6515ZM56.8949 11.5507C56.8949 11.0927 56.6566 10.6657 56.3267 10.2934C55.9905 9.91388 55.5113 9.53618 54.916 9.16747C53.7233 8.42871 51.9918 7.68144 49.7907 7.01283C45.3832 5.67395 39.0222 4.62926 31.1506 4.62926C23.2791 4.62926 16.9181 5.67395 12.5105 7.01283C10.3095 7.68144 8.57789 8.42871 7.38521 9.16747C6.78995 9.53618 6.31071 9.91388 5.97445 10.2934C5.64458 10.6657 5.40629 11.0927 5.40629 11.5507C5.40629 12.0088 5.64458 12.4357 5.97445 12.808C6.31072 13.1875 6.78995 13.5652 7.3852 13.9338C8.57787 14.6724 10.3094 15.4195 12.5105 16.0879C16.918 17.4264 23.279 18.4708 31.1506 18.4708C39.0221 18.4708 45.383 17.4264 49.7906 16.0879C51.9917 15.4195 53.7232 14.6724 54.9159 13.9338C55.5112 13.5652 55.9904 13.1875 56.3267 12.808C56.6566 12.4358 56.8949 12.0088 56.8949 11.5507Z" fill="white" stroke="black"/>
<path d="M125.523 66.2866C125.853 66.6589 126.091 67.0859 126.091 67.5439C126.091 68.002 125.853 68.4289 125.523 68.8012C125.187 69.1807 124.708 69.5583 124.112 69.927C122.92 70.6656 121.188 71.4127 118.987 72.0811C114.579 73.4196 108.218 74.4639 100.347 74.4639C92.4753 74.4639 86.1144 73.4196 81.7068 72.0811C79.5057 71.4127 77.7742 70.6656 76.5815 69.927C75.9863 69.5583 75.507 69.1807 75.1708 68.8012C74.8409 68.4289 74.6027 68.002 74.6026 67.544L125.523 66.2866ZM125.523 66.2866C125.187 65.907 124.708 65.5293 124.112 65.1606M125.523 66.2866L124.112 65.1606M124.112 65.1606C122.92 64.4219 121.188 63.6746 118.987 63.006M124.112 65.1606L118.987 63.006M118.987 63.006C114.579 61.6671 108.219 60.6224 100.347 60.6224M118.987 63.006L100.347 60.6224M100.347 60.6224C92.4751 60.6224 86.1141 61.6671 81.7065 63.006M100.347 60.6224L81.7065 63.006M81.7065 63.006C79.5054 63.6746 77.7739 64.4219 76.5812 65.1606M81.7065 63.006L76.5812 65.1606M76.5812 65.1606C75.986 65.5294 75.5068 65.9071 75.1706 66.2866M76.5812 65.1606L75.1706 66.2866M75.1706 66.2866C74.8408 66.6589 74.6026 67.0859 74.6026 67.5439L75.1706 66.2866ZM75.3392 88.0658L74.6021 87.6689L74.6021 88.5061L74.6026 96.3107C74.6026 96.7687 74.8409 97.1957 75.1708 97.568C75.507 97.9476 75.9862 98.3253 76.5815 98.694C77.7742 99.4327 79.5057 100.18 81.7068 100.849C86.1143 102.187 92.4753 103.232 100.347 103.232C108.218 103.232 114.579 102.187 118.987 100.849C121.188 100.18 122.92 99.4327 124.112 98.694C124.708 98.3253 125.187 97.9476 125.523 97.568C125.853 97.1957 126.091 96.7687 126.091 96.3107L126.091 88.506L126.091 87.6689L125.354 88.0658C119.697 91.1123 110.03 92.7177 100.346 92.7177C90.6631 92.7177 80.9962 91.1123 75.3392 88.0658ZM75.3397 73.6823L74.6026 73.2854V74.1225V81.9277C74.6026 82.3857 74.8409 82.8127 75.1708 83.185C75.507 83.5645 75.9862 83.9422 76.5815 84.3109C77.7742 85.0497 79.5057 85.797 81.7068 86.4656C86.1143 87.8045 92.4753 88.8492 100.347 88.8492C108.218 88.8492 114.579 87.8045 118.987 86.4656C121.188 85.797 122.92 85.0497 124.112 84.3109C124.708 83.9422 125.187 83.5645 125.523 83.185C125.853 82.8127 126.091 82.3857 126.091 81.9277V74.1225V73.2854L125.354 73.6823C119.697 76.7283 110.03 78.3332 100.347 78.3332C90.6636 78.3332 80.9967 76.7283 75.3397 73.6823ZM75.3397 102.45L74.6026 102.053V102.89V110.696C74.6026 111.154 74.8409 111.581 75.1708 111.953C75.507 112.333 75.9863 112.71 76.5815 113.079C77.7742 113.818 79.5057 114.565 81.7068 115.233C86.1144 116.572 92.4753 117.616 100.347 117.616C108.218 117.616 114.579 116.572 118.987 115.233C121.188 114.565 122.92 113.817 124.112 113.079C124.708 112.71 125.187 112.332 125.523 111.953C125.853 111.581 126.091 111.154 126.091 110.695V102.89V102.053L125.354 102.45C119.697 105.496 110.03 107.101 100.347 107.102C90.6636 107.102 80.9967 105.497 75.3397 102.45ZM79.6061 59.5934C85.2604 57.7194 92.8153 56.7535 100.346 56.7534H100.347C107.878 56.7535 115.433 57.7194 121.087 59.5935C123.916 60.5312 126.238 61.6859 127.843 63.0352C129.443 64.3801 130.294 65.8839 130.294 67.5439V110.695C130.294 112.355 129.443 113.859 127.843 115.203C126.238 116.552 123.916 117.707 121.087 118.645C115.433 120.519 107.878 121.484 100.346 121.484C92.8152 121.484 85.26 120.519 79.6056 118.645C76.7763 117.707 74.4548 116.553 72.8499 115.204C71.2502 113.859 70.3984 112.355 70.3984 110.695L70.3989 67.5439C70.3989 65.8839 71.2507 64.38 72.8504 63.0352C74.4553 61.6859 76.7769 60.5311 79.6061 59.5934Z" fill="white" stroke="black"/>
<path d="M31.1493 98.6869H31.1015C29.9327 98.6633 29.0476 97.7767 29.048 96.7531V96.7529V82.4173V81.2647L28.2064 82.0522L25.1076 84.9517L25.1076 84.9517C24.2835 85.7228 22.9358 85.7228 22.1117 84.9517C21.3065 84.1984 21.3065 82.9928 22.1117 82.2394L29.6509 75.1851C29.8413 75.0069 30.0734 74.8622 30.3361 74.7603C30.856 74.559 31.4433 74.5591 31.9633 74.7604L31.9636 74.7605C32.2258 74.8618 32.4577 75.0063 32.6479 75.1847L32.6483 75.1851L40.1875 82.2394L40.1875 82.2394C40.9927 82.9927 40.9927 84.1983 40.1876 84.9517C39.7787 85.3341 39.238 85.5301 38.6895 85.5301C38.1409 85.5301 37.6002 85.3341 37.1915 84.9517L34.0927 82.0522L33.2511 81.2647V82.4173V94.3179V94.8179H33.7511H53.8698C55.0626 94.8179 55.9716 95.7147 55.9716 96.7524C55.9716 97.7902 55.0626 98.6869 53.8698 98.6869H31.1493Z" fill="white" stroke="black"/>
<path d="M100.346 23.5588H100.394C101.563 23.5825 102.448 24.4691 102.448 25.4929V39.8284V40.981L103.289 40.1935L106.388 37.294L106.388 37.294C107.212 36.5229 108.56 36.523 109.384 37.294C110.189 38.0473 110.189 39.2529 109.384 40.0063L101.845 47.0607C101.654 47.2388 101.422 47.3835 101.16 47.4854C100.898 47.5869 100.621 47.6395 100.346 47.6395C100.07 47.6395 99.7941 47.5869 99.5319 47.4854L99.5316 47.4853C99.2694 47.3839 99.0375 47.2394 98.8473 47.061L98.8469 47.0607L91.3077 40.0063L91.3077 40.0063C90.5025 39.253 90.5025 38.0474 91.3077 37.294C92.1317 36.5229 93.4794 36.5229 94.3036 37.294L97.4023 40.1935L98.244 40.981V39.8284V27.9278V27.4278H97.744H77.6253C76.4325 27.4278 75.5234 26.5311 75.5234 25.4933C75.5234 24.4556 76.4325 23.5588 77.6253 23.5588H100.346Z" fill="white" stroke="black"/>
</svg>
