<svg width="101" height="115" viewBox="0 0 101 115" fill="none" xmlns="http://www.w3.org/2000/svg">
<path d="M97.0742 57.1259L97.0141 57.0729C95.5034 55.7413 93.6068 54.9583 91.7044 54.7349L90.9368 54.6448L91.0499 53.8802C91.4198 51.3817 90.5687 48.8664 88.4289 46.8646C87.0598 45.6611 85.1593 44.8689 83.2206 44.5274L82.4027 44.3833L82.6291 43.5843C82.7338 43.2148 82.7367 42.9493 82.7367 42.4687C82.7367 40.2913 81.7457 38.0934 79.9957 36.5504C79.1252 35.7831 78.1181 35.2235 76.9503 34.7659L75.8061 34.3176L76.7279 33.505L87.7561 23.7839C91.5019 20.482 91.5019 15.2491 87.7561 11.9475C83.955 8.59701 77.8445 8.59687 74.0436 11.9474L73.5496 11.387L74.0436 11.9475L35.5127 45.9118L34.82 46.5224L34.3644 45.7192C32.8871 43.1148 30.4692 39.4454 27.3884 36.1393L27.3833 36.1339L27.3784 36.1284C25.3973 33.9162 22.7354 31.7994 19.5068 29.7832L19.5044 29.7818C14.9797 26.9329 9.03211 26.9392 4.65451 29.7765L4.64622 29.7818L4.64619 29.7818C1.17313 31.9684 0.364903 35.9193 2.67023 39.021L2.6732 39.025L2.67318 39.025L8.39104 46.8256L97.0742 57.1259ZM97.0742 57.1259C98.9326 58.7892 99.8923 60.8514 99.8923 63.1116C99.8923 65.2891 98.9016 67.487 97.1512 69.0299L89.2542 75.991L89.2286 76.0136L89.2052 76.0384C88.6314 76.6452 87.8064 77.07 86.8257 77.5641L86.6615 77.6469L86.5542 77.7961C80.4776 86.2474 72.2231 94.1236 66.1146 99.3886C60.4434 104.271 52.2419 106.377 44.4289 104.743L44.4249 104.742L42.6547 104.382L42.2891 104.308L42.0092 104.554L32.4786 112.956C31.9573 113.415 31.3268 113.608 30.6602 113.608C30 113.608 29.375 113.419 28.8566 112.968C27.9291 112.047 27.9762 110.763 28.8418 110L39.7077 100.422C40.3932 99.9276 41.2541 99.6687 42.0718 99.8488L42.0718 99.8488L42.0836 99.8512L45.6234 100.571L45.6256 100.572C51.8342 101.815 58.0607 100.201 62.5982 96.326L62.5982 96.3261L62.6071 96.3183C67.5196 91.988 74.0914 85.8348 79.5766 79.0657L80.2459 78.2398L79.2434 77.8862C77.9494 77.4299 76.6783 76.7527 75.6774 75.8704C74.1686 74.5404 73.3083 72.8967 73.064 71.2805L72.9676 70.6426H72.3224C71.9959 70.6426 71.7149 70.6789 71.4899 70.7094L71.4632 70.713C71.2394 70.7433 71.0979 70.7625 70.9609 70.7625C68.399 70.7625 66.0012 69.9759 64.1167 68.3205C62.7242 66.9776 61.8539 65.429 61.4809 63.7859L61.3483 63.2019H60.7495C60.5133 63.2019 60.2502 63.2331 60.0272 63.2595C60.0059 63.2621 59.9849 63.2646 59.9644 63.267C59.7077 63.2971 59.4752 63.3218 59.2519 63.3218C58.077 63.3218 57.0734 63.2068 56.0836 62.8796L55.2316 62.5979L55.1056 63.4863C53.9259 71.8034 47.7551 77.2628 43.8204 79.2346C43.3686 79.4318 42.9319 79.5239 42.5055 79.5239C41.458 79.5239 40.6704 79.119 40.2989 78.464C39.7092 77.4241 40.0633 76.1867 41.2388 75.5274L41.2453 75.5237L41.2518 75.52L41.2518 75.5199C41.2521 75.5198 41.2534 75.519 41.256 75.5175L41.2682 75.5106L41.3086 75.4878C41.3416 75.4691 41.385 75.4444 41.4376 75.4141C41.5429 75.3533 41.6834 75.2702 41.8532 75.1648C42.1924 74.9539 42.6474 74.6539 43.1704 74.2621C44.2148 73.4796 45.5387 72.3251 46.7548 70.7758C49.2001 67.6606 51.1952 62.9595 49.6342 56.5757C49.0223 53.9817 49.8687 51.1403 52.26 49.0324L52.2636 49.0293L83.9822 20.7088C83.9828 20.7083 83.9833 20.7079 83.9839 20.7074C85.8185 19.0886 85.818 16.4012 83.9822 14.783C82.2012 13.2131 79.3252 13.2131 77.5443 14.783L35.7457 51.6277L36.2416 52.1903L35.7457 51.6277C35.0798 52.2146 34.2288 52.4785 33.4078 52.2978L33.3743 52.2904L33.3402 52.2861C32.6523 52.1995 31.9105 51.6464 31.6066 51.0218L31.5965 51.0267C31.6066 51.0218 31.6066 51.0217 31.6066 51.0217L31.6064 51.0213L31.6057 51.02L31.6036 51.0156L31.5957 50.9996L31.5659 50.9392C31.5397 50.8866 31.5012 50.8097 31.4506 50.7103C31.3494 50.5116 31.2002 50.2233 31.0061 49.8611C30.6179 49.1368 30.0496 48.1161 29.3268 46.9252C27.8835 44.5475 25.8132 41.4732 23.3185 38.7243L23.3184 38.7243C21.6332 36.8678 19.2668 34.9073 16.4979 33.1972C13.9242 31.4703 10.3421 31.4857 7.65732 33.194C7.03857 33.584 6.59419 34.1608 6.44193 34.8319C6.28827 35.5093 6.44897 36.2164 6.91879 36.8048L12.6259 44.5908C12.626 44.5909 12.6261 44.5911 12.6262 44.5912C16.2078 49.5027 18.06 55.3422 17.9282 61.1722C17.9282 61.1728 17.9282 61.1734 17.9282 61.1741L17.5198 76.0455C17.3912 78.8308 16.128 81.401 13.9609 83.3113L6.20052 90.152C5.67922 90.6115 5.04868 90.8046 4.38211 90.8046C3.72188 90.8046 3.09694 90.6151 2.57853 90.165C1.65104 89.2434 1.69808 87.9596 2.5637 87.1966L10.324 80.3561C11.6735 79.167 12.481 77.6571 12.4844 75.9637L12.8928 61.092C13.0341 56.0026 11.4835 51.0391 8.39133 46.826L97.0742 57.1259ZM55.8963 57.9128C57.6772 59.4827 60.5532 59.4827 62.3342 57.9128L76.3578 45.5513C77.1927 44.8153 77.7013 43.7736 77.7013 42.5883C77.7013 41.5384 77.2041 40.3713 76.3578 39.6254C74.5768 38.0555 71.7009 38.0555 69.9199 39.6254L55.8963 51.987C54.06 53.6057 54.06 56.2942 55.8963 57.9128ZM67.6053 65.354C69.3863 66.9239 72.2623 66.9239 74.0433 65.354L84.7993 55.8727C86.6356 54.254 86.6356 51.5655 84.7993 49.9468C83.9601 49.2071 82.685 48.7992 81.5804 48.7992C80.4966 48.7992 79.3496 49.0758 78.3614 49.9468L67.6053 59.4281C65.769 61.0468 65.769 63.7353 67.6053 65.354ZM85.4798 73.0351L93.3768 66.074C94.2887 65.2702 94.8824 64.2144 94.7197 63.0516C94.7014 62.0173 94.2071 60.88 93.3768 60.1481C91.5958 58.5782 88.7198 58.5782 86.9388 60.1481L79.0418 67.1092C77.2055 68.7279 77.2055 71.4164 79.0418 73.0351C80.8228 74.605 83.6988 74.605 85.4798 73.0351Z" fill="white" stroke="black" stroke-width="1.5"/>
<path d="M35.4931 11.025C35.4931 12.085 34.423 13.1555 32.9751 13.1555C31.5272 13.1555 30.457 12.085 30.457 11.025V3.1041C30.457 2.04408 31.5272 0.973633 32.9751 0.973633C34.423 0.973633 35.4931 2.04408 35.4931 3.1041V11.025Z" fill="white" stroke="black" stroke-width="1.5"/>
<path d="M16.9962 17.6635L16.9961 17.6635L10.6123 12.0368C9.68399 11.1152 9.73081 9.83088 10.5967 9.06762C11.0476 8.67017 11.7109 8.44482 12.4154 8.44482C13.1198 8.44482 13.7832 8.67017 14.2341 9.06762L20.6173 14.6943C21.5457 15.6159 21.4989 16.9003 20.633 17.6635C20.1117 18.123 19.4811 18.3161 18.8146 18.3161C18.148 18.3161 17.5175 18.123 16.9962 17.6635Z" fill="white" stroke="black" stroke-width="1.5"/>
<path d="M48.9528 17.6635C48.4315 18.123 47.801 18.3161 47.1344 18.3161C46.474 18.3161 45.8486 18.1266 45.3302 17.6765C44.4028 16.7549 44.4498 15.4712 45.3154 14.7081L51.7143 9.06762C52.1652 8.67017 52.8286 8.44482 53.533 8.44482C54.2299 8.44482 54.8866 8.66537 55.3372 9.05492C56.2644 9.97643 56.2173 11.26 55.3517 12.023L48.9528 17.6635Z" fill="white" stroke="black" stroke-width="1.5"/>
</svg>
