<svg width="129" height="120" viewBox="0 0 129 120" fill="none" xmlns="http://www.w3.org/2000/svg">
<mask id="path-1-inside-1_143_1716" fill="white">
<path d="M66.7371 56.4444C60.2141 53.9544 57.4488 52.1422 57.4488 48.5154C57.4488 45.7309 59.624 42.5265 65.3791 42.5265C68.0498 42.4994 70.6944 43.0323 73.1237 44.088L73.7601 44.3826C73.7962 44.4147 73.8454 44.4303 73.8945 44.4243C73.9847 44.4903 74.0985 44.5201 74.2113 44.5082C74.6124 44.5114 74.9812 44.2993 75.1648 43.9602C75.1889 43.9602 75.2087 43.9418 75.2087 43.9185C75.2945 43.7925 75.3422 43.6463 75.3451 43.4964L76.2963 41.2201C76.2963 41.1784 76.3426 41.1784 76.3426 41.1344C76.3426 41.0904 76.3864 41.051 76.3864 41.0088C76.4795 40.6331 76.3382 40.2404 76.0234 39.9971C75.9444 39.9256 75.8528 39.8683 75.7525 39.8275L74.2113 39.1943C74.1674 39.1943 74.0773 39.1526 74.031 39.1526C71.7719 38.3347 69.3813 37.8925 66.9642 37.8457V31.9778C66.9642 31.7405 66.8629 31.5127 66.6841 31.3469C66.5047 31.1814 66.2627 31.0916 66.013 31.098H63.2478C62.732 31.0967 62.3092 31.4875 62.2967 31.9778V38.1363C55.4101 39.1897 51.016 43.5776 51.016 49.3534C51.016 55.3845 55.7274 58.5911 63.3844 61.3736C68.9125 63.4827 71.8122 65.843 71.8122 69.681C71.8122 73.64 68.2322 76.5125 62.9313 76.5125C59.9742 76.496 57.0547 75.8774 54.369 74.6998L53.2376 74.1523C53.0693 74.0703 52.8832 74.0263 52.6938 74.0249C52.3269 74.0185 51.9837 74.1944 51.787 74.4886L50.6555 77.3479C50.4266 77.8515 50.6695 78.4361 51.1988 78.6548L52.7377 79.3719C52.7922 79.4053 52.8563 79.4195 52.9209 79.4136C55.727 80.5642 58.7435 81.1809 61.7993 81.2281V87.3866C61.795 87.618 61.8885 87.8416 62.0592 88.007C62.2298 88.172 62.4627 88.2655 62.7066 88.2664H65.5595C65.8097 88.2728 66.0517 88.183 66.2306 88.0171C66.4099 87.8517 66.5107 87.6239 66.5107 87.3866V81.0256C74.2114 79.8443 78.3351 74.6998 78.3351 69.1755C78.3351 62.9905 74.4384 59.3966 66.7371 56.4444ZM114.202 88.2842C113.588 88.281 113.002 88.0468 112.57 87.6331C112.139 87.2193 111.897 86.6598 111.9 86.0769C111.902 85.4941 112.147 84.9364 112.582 84.5253C117.193 80.1791 120.513 74.7507 122.202 68.7902C123.892 62.8301 123.892 56.5519 122.202 50.5917C120.513 44.6316 117.193 39.2032 112.582 34.8566C112.134 34.4479 111.878 33.8856 111.871 33.2959C111.864 32.7057 112.106 32.138 112.544 31.7195C112.982 31.3016 113.578 31.068 114.198 31.0712C114.819 31.0744 115.412 31.3149 115.845 31.7379C121.034 36.6303 124.769 42.7406 126.671 49.4484C128.572 56.1562 128.572 63.2234 126.671 69.932C124.769 76.6406 121.034 82.7509 115.845 87.6425C115.408 88.0549 114.817 88.2854 114.202 88.2826V88.2842ZM107.26 79.4864C106.659 79.4869 106.081 79.2646 105.65 78.8678C105.218 78.4706 104.965 77.9294 104.946 77.3585C104.926 76.7875 105.141 76.2317 105.545 75.8088C109.644 71.3435 111.903 65.6175 111.903 59.6912C111.903 53.7649 109.644 48.0392 105.545 43.5737C105.133 43.1412 104.918 42.5711 104.948 41.9882C104.978 41.4053 105.25 40.8578 105.704 40.4656C106.16 40.0739 106.759 39.8695 107.373 39.8979C107.986 39.9263 108.562 40.1852 108.974 40.6173C113.825 45.9024 116.497 52.6785 116.497 59.6909C116.497 66.7033 113.825 73.4799 108.974 78.7645C108.535 79.2241 107.913 79.4869 107.26 79.4864ZM14.7001 88.2842C14.0927 88.281 13.5108 88.0514 13.0803 87.6441C7.89065 82.7517 4.15557 76.6413 2.25414 69.9336C0.352723 63.2258 0.352847 56.1586 2.25414 49.45C4.15544 42.7414 7.89065 36.631 13.0803 31.7395C13.6694 31.2011 14.514 30.9985 15.3017 31.2056C16.089 31.4132 16.7031 32.0002 16.9167 32.7498C17.1307 33.4999 16.9124 34.3009 16.343 34.8581C11.7315 39.2043 8.41227 44.6328 6.72263 50.5932C5.03298 56.5533 5.03298 62.8315 6.72263 68.7917C8.41227 74.7518 11.7315 80.1803 16.343 84.5269C16.7798 84.9393 17.0252 85.5006 17.0252 86.0857C17.0252 86.6709 16.7803 87.2322 16.3435 87.645C15.9072 88.0579 15.3157 88.2884 14.7001 88.2856L14.7001 88.2842ZM21.642 79.4864C20.9888 79.4869 20.3665 79.2248 19.9272 78.7652C15.077 73.4801 12.4048 66.704 12.4048 59.6916C12.4048 52.6792 15.077 45.9025 19.9272 40.618C20.4831 40.0361 21.3229 39.7795 22.1313 39.9458C22.9397 40.1121 23.5935 40.6753 23.8461 41.4241C24.0987 42.1723 23.9121 42.9921 23.3568 43.5745C19.2576 48.0398 16.9985 53.7657 16.9985 59.692C16.9985 65.6183 19.2576 71.344 23.3568 75.8095C23.7603 76.2325 23.9753 76.7883 23.956 77.3592C23.9362 77.9302 23.6841 78.4713 23.2522 78.8686C22.8202 79.2654 22.2427 79.4869 21.642 79.4864ZM92.2194 119.076H36.6836C34.2288 119.076 31.8743 118.149 30.1389 116.499C28.403 114.85 27.4276 112.612 27.4276 110.279V9.10418C27.4276 6.77089 28.4029 4.53297 30.1389 2.88344C31.8743 1.23345 34.2289 0.306396 36.6836 0.306396H92.2194C94.6742 0.306396 97.0286 1.23337 98.7641 2.88344C100.5 4.53297 101.475 6.77101 101.475 9.10418V110.279C101.475 112.612 100.5 114.85 98.7641 116.499C97.0286 118.149 94.6741 119.076 92.2194 119.076ZM36.6836 4.70529C35.4562 4.70529 34.279 5.16854 33.4112 5.99375C32.543 6.81854 32.0556 7.93747 32.0556 9.10418V110.279C32.0556 111.445 32.543 112.564 33.4112 113.389C34.2789 114.214 35.4561 114.678 36.6836 114.678H92.2194C93.4467 114.678 94.6239 114.214 95.4918 113.389C96.36 112.564 96.8473 111.445 96.8473 110.279V9.10418C96.8473 7.93756 96.36 6.81863 95.4918 5.99375C94.624 5.16849 93.4468 4.70529 92.2194 4.70529H36.6836Z"/>
</mask>
<path d="M66.7371 56.4444C60.2141 53.9544 57.4488 52.1422 57.4488 48.5154C57.4488 45.7309 59.624 42.5265 65.3791 42.5265C68.0498 42.4994 70.6944 43.0323 73.1237 44.088L73.7601 44.3826C73.7962 44.4147 73.8454 44.4303 73.8945 44.4243C73.9847 44.4903 74.0985 44.5201 74.2113 44.5082C74.6124 44.5114 74.9812 44.2993 75.1648 43.9602C75.1889 43.9602 75.2087 43.9418 75.2087 43.9185C75.2945 43.7925 75.3422 43.6463 75.3451 43.4964L76.2963 41.2201C76.2963 41.1784 76.3426 41.1784 76.3426 41.1344C76.3426 41.0904 76.3864 41.051 76.3864 41.0088C76.4795 40.6331 76.3382 40.2404 76.0234 39.9971C75.9444 39.9256 75.8528 39.8683 75.7525 39.8275L74.2113 39.1943C74.1674 39.1943 74.0773 39.1526 74.031 39.1526C71.7719 38.3347 69.3813 37.8925 66.9642 37.8457V31.9778C66.9642 31.7405 66.8629 31.5127 66.6841 31.3469C66.5047 31.1814 66.2627 31.0916 66.013 31.098H63.2478C62.732 31.0967 62.3092 31.4875 62.2967 31.9778V38.1363C55.4101 39.1897 51.016 43.5776 51.016 49.3534C51.016 55.3845 55.7274 58.5911 63.3844 61.3736C68.9125 63.4827 71.8122 65.843 71.8122 69.681C71.8122 73.64 68.2322 76.5125 62.9313 76.5125C59.9742 76.496 57.0547 75.8774 54.369 74.6998L53.2376 74.1523C53.0693 74.0703 52.8832 74.0263 52.6938 74.0249C52.3269 74.0185 51.9837 74.1944 51.787 74.4886L50.6555 77.3479C50.4266 77.8515 50.6695 78.4361 51.1988 78.6548L52.7377 79.3719C52.7922 79.4053 52.8563 79.4195 52.9209 79.4136C55.727 80.5642 58.7435 81.1809 61.7993 81.2281V87.3866C61.795 87.618 61.8885 87.8416 62.0592 88.007C62.2298 88.172 62.4627 88.2655 62.7066 88.2664H65.5595C65.8097 88.2728 66.0517 88.183 66.2306 88.0171C66.4099 87.8517 66.5107 87.6239 66.5107 87.3866V81.0256C74.2114 79.8443 78.3351 74.6998 78.3351 69.1755C78.3351 62.9905 74.4384 59.3966 66.7371 56.4444ZM114.202 88.2842C113.588 88.281 113.002 88.0468 112.57 87.6331C112.139 87.2193 111.897 86.6598 111.9 86.0769C111.902 85.4941 112.147 84.9364 112.582 84.5253C117.193 80.1791 120.513 74.7507 122.202 68.7902C123.892 62.8301 123.892 56.5519 122.202 50.5917C120.513 44.6316 117.193 39.2032 112.582 34.8566C112.134 34.4479 111.878 33.8856 111.871 33.2959C111.864 32.7057 112.106 32.138 112.544 31.7195C112.982 31.3016 113.578 31.068 114.198 31.0712C114.819 31.0744 115.412 31.3149 115.845 31.7379C121.034 36.6303 124.769 42.7406 126.671 49.4484C128.572 56.1562 128.572 63.2234 126.671 69.932C124.769 76.6406 121.034 82.7509 115.845 87.6425C115.408 88.0549 114.817 88.2854 114.202 88.2826V88.2842ZM107.26 79.4864C106.659 79.4869 106.081 79.2646 105.65 78.8678C105.218 78.4706 104.965 77.9294 104.946 77.3585C104.926 76.7875 105.141 76.2317 105.545 75.8088C109.644 71.3435 111.903 65.6175 111.903 59.6912C111.903 53.7649 109.644 48.0392 105.545 43.5737C105.133 43.1412 104.918 42.5711 104.948 41.9882C104.978 41.4053 105.25 40.8578 105.704 40.4656C106.16 40.0739 106.759 39.8695 107.373 39.8979C107.986 39.9263 108.562 40.1852 108.974 40.6173C113.825 45.9024 116.497 52.6785 116.497 59.6909C116.497 66.7033 113.825 73.4799 108.974 78.7645C108.535 79.2241 107.913 79.4869 107.26 79.4864ZM14.7001 88.2842C14.0927 88.281 13.5108 88.0514 13.0803 87.6441C7.89065 82.7517 4.15557 76.6413 2.25414 69.9336C0.352723 63.2258 0.352847 56.1586 2.25414 49.45C4.15544 42.7414 7.89065 36.631 13.0803 31.7395C13.6694 31.2011 14.514 30.9985 15.3017 31.2056C16.089 31.4132 16.7031 32.0002 16.9167 32.7498C17.1307 33.4999 16.9124 34.3009 16.343 34.8581C11.7315 39.2043 8.41227 44.6328 6.72263 50.5932C5.03298 56.5533 5.03298 62.8315 6.72263 68.7917C8.41227 74.7518 11.7315 80.1803 16.343 84.5269C16.7798 84.9393 17.0252 85.5006 17.0252 86.0857C17.0252 86.6709 16.7803 87.2322 16.3435 87.645C15.9072 88.0579 15.3157 88.2884 14.7001 88.2856L14.7001 88.2842ZM21.642 79.4864C20.9888 79.4869 20.3665 79.2248 19.9272 78.7652C15.077 73.4801 12.4048 66.704 12.4048 59.6916C12.4048 52.6792 15.077 45.9025 19.9272 40.618C20.4831 40.0361 21.3229 39.7795 22.1313 39.9458C22.9397 40.1121 23.5935 40.6753 23.8461 41.4241C24.0987 42.1723 23.9121 42.9921 23.3568 43.5745C19.2576 48.0398 16.9985 53.7657 16.9985 59.692C16.9985 65.6183 19.2576 71.344 23.3568 75.8095C23.7603 76.2325 23.9753 76.7883 23.956 77.3592C23.9362 77.9302 23.6841 78.4713 23.2522 78.8686C22.8202 79.2654 22.2427 79.4869 21.642 79.4864ZM92.2194 119.076H36.6836C34.2288 119.076 31.8743 118.149 30.1389 116.499C28.403 114.85 27.4276 112.612 27.4276 110.279V9.10418C27.4276 6.77089 28.4029 4.53297 30.1389 2.88344C31.8743 1.23345 34.2289 0.306396 36.6836 0.306396H92.2194C94.6742 0.306396 97.0286 1.23337 98.7641 2.88344C100.5 4.53297 101.475 6.77101 101.475 9.10418V110.279C101.475 112.612 100.5 114.85 98.7641 116.499C97.0286 118.149 94.6741 119.076 92.2194 119.076ZM36.6836 4.70529C35.4562 4.70529 34.279 5.16854 33.4112 5.99375C32.543 6.81854 32.0556 7.93747 32.0556 9.10418V110.279C32.0556 111.445 32.543 112.564 33.4112 113.389C34.2789 114.214 35.4561 114.678 36.6836 114.678H92.2194C93.4467 114.678 94.6239 114.214 95.4918 113.389C96.36 112.564 96.8473 111.445 96.8473 110.279V9.10418C96.8473 7.93756 96.36 6.81863 95.4918 5.99375C94.624 5.16849 93.4468 4.70529 92.2194 4.70529H36.6836Z" fill="white" stroke="black" stroke-width="2" mask="url(#path-1-inside-1_143_1716)"/>
</svg>
