<svg width="137" height="137" viewBox="0 0 137 137" fill="none" xmlns="http://www.w3.org/2000/svg">
<path d="M48.6785 98.9139C46.6607 98.9139 45.0188 100.174 45.0188 101.724C45.0188 103.273 46.6604 104.534 48.6785 104.534C50.6962 104.534 52.3381 103.273 52.3381 101.724C52.3381 100.175 50.6966 98.9139 48.6785 98.9139ZM48.6785 102.901C47.8326 102.901 47.1449 102.373 47.1449 101.723C47.1449 101.074 47.8326 100.546 48.6785 100.546C49.5244 100.546 50.2121 101.074 50.2121 101.723C50.2121 102.373 49.5244 102.901 48.6785 102.901ZM88.5421 98.6788C86.5243 98.6788 84.8824 99.9392 84.8824 101.489C84.8824 103.038 86.524 104.299 88.5421 104.299C90.5598 104.299 92.2017 103.038 92.2017 101.489C92.2017 99.9395 90.5602 98.6788 88.5421 98.6788ZM88.5421 102.666C87.6962 102.666 87.0085 102.138 87.0085 101.488C87.0085 100.839 87.6962 100.311 88.5421 100.311C89.388 100.311 90.0757 100.839 90.0757 101.488C90.0757 102.138 89.388 102.666 88.5421 102.666ZM113.079 27.7031H24.3595C23.7722 27.7031 23.2969 28.0688 23.2969 28.519V72.0213C23.2969 72.4722 23.7731 72.8371 24.3595 72.8371H40.4736V108.5C40.4736 108.951 40.9499 109.316 41.5363 109.316H95.9035C96.4908 109.316 96.9661 108.95 96.9661 108.5V72.8371H113.078C113.665 72.8371 114.141 72.4715 114.141 72.0213L114.14 28.519C114.14 28.0681 113.664 27.7031 113.078 27.7031H113.079ZM40.4725 54.3447H39.4509V46.1967H40.4725V54.3447ZM94.8398 107.685L42.5996 107.685V46.1967H48.2404V94.9465C48.2404 95.3974 48.7167 95.7624 49.303 95.7624C52.9058 95.7624 55.8386 98.4059 55.8386 101.655C55.8386 102.106 56.3148 102.472 56.9012 102.472H80.539C81.1262 102.472 81.6016 102.106 81.6016 101.656C81.6016 98.407 84.533 95.7634 88.1371 95.7634C88.7244 95.7634 89.1998 95.3978 89.1998 94.9475L89.1989 46.1968H94.8397V107.684L94.8398 107.685ZM85.7437 46.1979C86.1781 46.3183 86.6222 46.4066 87.0729 46.4661V94.1942C83.1048 94.619 79.9598 97.3782 79.528 100.841H57.909C57.4773 97.3782 54.3322 94.6194 50.3642 94.1942V46.196H85.7425L85.7437 46.1979ZM98.2309 46.1979V54.3459H96.9643V46.1979H98.2309ZM112.014 71.2062H96.9643V55.977H99.2935C99.8807 55.977 100.356 55.6113 100.356 55.1611V45.382C100.356 44.9311 99.8799 44.5661 99.2935 44.5661H38.3883C37.8011 44.5661 37.3257 44.9318 37.3257 45.382V55.1611C37.3257 55.612 37.802 55.977 38.3883 55.977H40.4725V71.2062H25.4208L25.4212 29.3354H112.016V71.2054L112.014 71.2062Z" fill="white"/>
<circle cx="68.5972" cy="68.5068" r="66.7011" stroke="white" stroke-width="2.3"/>
<line x1="17.8526" y1="113.279" x2="114.342" y2="20.7718" stroke="white" stroke-width="2.3"/>
</svg>
