<svg width="129" height="103" viewBox="0 0 129 103" fill="none" xmlns="http://www.w3.org/2000/svg">
<path d="M127.457 37.0517L127.458 37.0515C127.753 36.7053 127.93 36.2203 127.93 35.7009C127.93 35.1818 127.753 34.6969 127.457 34.3504C127.163 34.0055 126.784 33.8315 126.408 33.8315H118.643H118.175L118.144 33.3649C117.818 28.5075 116.671 23.7764 114.773 19.4471L114.771 19.4424C112.465 14.0316 108.984 9.44096 104.688 6.12784C100.393 2.81611 95.4368 0.89794 90.3203 0.558288L90.3198 0.558255C84.1154 0.140157 77.9357 1.84948 72.5343 5.48721C72.0648 5.80589 71.7438 6.42257 71.7446 7.1261V7.12641C71.745 7.83028 72.0665 8.44563 72.5365 8.7633C72.9932 9.07142 73.5417 9.071 73.9981 8.76153L73.9995 8.76059C78.8908 5.46782 84.5043 3.91102 90.1513 4.29202C94.7726 4.60149 99.2348 6.33637 103.086 9.31042L102.783 9.70322L103.086 9.31045C106.936 12.2838 110.04 16.3895 112.09 21.205C113.743 24.9738 114.758 29.0781 115.082 33.293L115.123 33.8314H114.583H87.4083C87.1513 33.8318 86.8933 33.9124 86.6611 34.0741C86.4268 34.2375 86.2254 34.478 86.0852 34.7785L127.457 37.0517ZM127.457 37.0517C127.164 37.3957 126.784 37.57 126.408 37.57H118.69H118.213L118.191 38.0466C117.898 44.3017 116.228 50.3571 113.347 55.6217L113.347 55.6228C105.511 70.0295 89.9776 89.7954 60.4675 102.099C60.1521 102.23 59.8118 102.23 59.4964 102.099C34.7456 91.7804 19.8319 76.2145 11.0411 62.9641L10.8927 62.7405H10.6244H2.79892C2.29625 62.7405 1.78737 62.425 1.49696 61.8351L1.49685 61.8349C1.20417 61.241 1.20418 60.5016 1.49684 59.9079L1.49698 59.9076C1.78733 59.3177 2.29617 59.0023 2.79892 59.0023H7.6678H8.53968L8.09935 58.2498C7.57714 57.3573 7.08289 56.4821 6.61607 55.6234L6.61509 55.6216C3.68238 50.2792 2.00364 44.1186 1.75324 37.7624L1.75324 37.7624C1.50232 31.4064 2.68872 25.0885 5.18892 19.4485L5.18897 19.4486L5.19178 19.442C7.49822 14.0312 10.9797 9.43996 15.2748 6.12748L15.2748 6.12747C19.5698 2.81501 24.5269 0.896893 29.6427 0.557916L29.6442 0.557812C30.2618 0.515017 30.8867 0.494174 31.5151 0.494175L31.5159 0.494174C36.8462 0.485847 42.0975 2.051 46.7856 5.05286L47.0401 4.65544L46.7856 5.05288C51.4754 8.05542 55.4518 12.3999 58.3426 17.6926L58.3433 17.6939C58.6586 18.267 58.6911 19.0057 58.4227 19.6188C58.1551 20.2291 57.6561 20.5757 57.1528 20.6044C56.6514 20.633 56.1338 20.3485 55.821 19.7802C53.222 15.0195 49.6364 11.0942 45.3888 8.374C41.1403 5.65251 36.3685 4.22568 31.5149 4.23289M127.457 37.0517L86.0848 34.7792L78.8397 50.3877L78.2472 51.6642L77.9015 50.3L67.1282 7.78117C67.0164 7.38247 66.8045 7.04713 66.5342 6.81391C66.2656 6.58327 65.9549 6.46461 65.646 6.45848C65.3387 6.46547 65.0301 6.58868 64.7682 6.82798C64.5025 7.07086 64.3008 7.41948 64.2082 7.82749L64.2081 7.82782L51.6647 62.9028L51.2433 64.753L50.6983 62.9354L42.522 35.6688C42.4015 35.2929 42.1912 34.9811 41.9294 34.7653C41.6698 34.5519 41.3718 34.4423 41.0749 34.4372C40.7808 34.4411 40.4844 34.5522 40.2282 34.7704L40.228 34.7707C39.9689 34.991 39.7643 35.3113 39.6554 35.6937L33.1301 58.6381L33.0268 59.0013H32.6492H12.6305H12.3547L12.2076 58.7681C11.0738 56.9703 10.0559 55.2249 9.1473 53.5545C6.51976 48.7656 5.0202 43.2535 4.79706 37.5762C4.57344 31.9 5.63331 26.2524 7.87174 21.2036C9.92237 16.3885 13.0256 12.2833 16.8759 9.30998C20.7279 6.33538 25.1904 4.60103 29.8116 4.2916C30.3743 4.25267 30.9433 4.2329 31.5149 4.23289M31.5149 4.23289C31.515 4.23289 31.5151 4.23289 31.5153 4.23289V4.73289L31.5145 4.23289C31.5146 4.23289 31.5148 4.23289 31.5149 4.23289ZM115.159 37.5699L115.131 38.0966C114.837 43.5911 113.352 48.912 110.814 53.5555C103.295 67.3804 88.418 86.2975 60.1754 98.2722L59.9802 98.3549L59.785 98.2722C37.906 88.9949 24.0484 75.5509 15.4181 63.5331L14.8495 62.7415H15.8242H34.1065C34.4047 62.7415 34.7056 62.6321 34.9657 62.4123L34.9661 62.412C35.2273 62.1918 35.4338 61.8704 35.5436 61.4851C35.5436 61.485 35.5436 61.485 35.5436 61.4849L40.6627 43.4856L41.1309 41.8393L41.6226 43.4788L50.0141 71.4614L50.0142 71.4617C50.1271 71.8388 50.3335 72.1528 50.5922 72.3679C50.8504 72.5821 51.147 72.6889 51.4413 72.6889C51.4602 72.6889 51.4793 72.6885 51.497 72.6876L51.4972 72.6876C51.8017 72.6735 52.1052 72.5462 52.3621 72.3056L115.159 37.5699ZM115.159 37.5699H114.631H88.6094H88.2903L88.1559 37.8594L79.1569 57.2441L79.1568 57.2443C78.9506 57.6889 78.6143 57.9936 78.2445 58.122M115.159 37.5699L78.2445 58.122M78.2445 58.122C77.8791 58.2486 77.4849 58.2032 77.139 57.9835C76.7877 57.7598 76.5061 57.3678 76.3812 56.8744L76.3811 56.8743L66.2618 16.937L65.2896 16.9488L52.9074 71.3195L52.9074 71.3197C52.8165 71.7195 52.6207 72.0628 52.3624 72.3054L78.2445 58.122ZM97.4603 53.5583L97.4615 53.5565C97.8032 53.0204 98.3309 52.7791 98.8287 52.8481L98.8288 52.8481C99.333 52.9179 99.815 53.3082 100.047 53.9426C100.281 54.5795 100.203 55.3127 99.8577 55.8545C91.1692 69.3633 79.8574 80.2332 66.8687 87.5672L66.8646 87.5695C66.3982 87.8387 65.8501 87.8009 65.4064 87.4535C64.9504 87.0957 64.6647 86.4516 64.7042 85.7501C64.7437 85.0491 65.0966 84.4661 65.576 84.1882C78.142 77.0967 89.0718 66.5929 97.4603 53.5583Z" fill="white" stroke="black"/>
</svg>
