<svg xmlns="http://www.w3.org/2000/svg" fill='currentColor' viewBox="0 0 64 80" x="0px" y="0px">
  <path d="M58.87,47.43a30.89,30.89,0,0,0,0-30.86s0-.05,0-.07l-.05-.06A31.21,31.21,0,0,0,47.56,5.2l-.06,0-.07,0a30.89,30.89,0,0,0-30.86,0l-.07,0-.06,0A31.21,31.21,0,0,0,5.2,16.44l0,.06s0,.05,0,.07a30.89,30.89,0,0,0,0,30.86s0,0,0,.07l.07.09A31.31,31.31,0,0,0,16.44,58.8l.06.05.11,0a30.87,30.87,0,0,0,30.78,0l.11,0,.06-.05A31.31,31.31,0,0,0,58.78,47.59l.07-.09S58.86,47.45,58.87,47.43ZM31,58v3a28.64,28.64,0,0,1-12.62-3.38l1.5-2.6A25.77,25.77,0,0,0,31,58Zm2,0a25.77,25.77,0,0,0,11.12-3l1.5,2.6A28.64,28.64,0,0,1,33,61Zm-1-2A24,24,0,1,1,56,32,24,24,0,0,1,32,56ZM3,33H6A25.77,25.77,0,0,0,9,44.12l-2.6,1.5A28.64,28.64,0,0,1,3,33ZM6.41,18.38,9,19.88A25.77,25.77,0,0,0,6,31H3A28.64,28.64,0,0,1,6.41,18.38ZM33,6V3A28.64,28.64,0,0,1,45.62,6.41L44.12,9A25.77,25.77,0,0,0,33,6ZM31,6A25.77,25.77,0,0,0,19.88,9l-1.5-2.6A28.64,28.64,0,0,1,31,3ZM61,31H58a25.77,25.77,0,0,0-3-11.12l2.6-1.5A28.64,28.64,0,0,1,61,31Zm-3,2h3a28.64,28.64,0,0,1-3.38,12.62L55,44.12A25.77,25.77,0,0,0,58,33ZM56.59,16.65,54,18.15A26.35,26.35,0,0,0,45.85,10l1.5-2.6A29.32,29.32,0,0,1,56.59,16.65ZM16.65,7.41l1.5,2.6A26.35,26.35,0,0,0,10,18.15l-2.6-1.5A29.32,29.32,0,0,1,16.65,7.41ZM7.41,47.35l2.6-1.5A26.35,26.35,0,0,0,18.15,54l-1.5,2.6A29.32,29.32,0,0,1,7.41,47.35Zm39.94,9.24L45.85,54A26.35,26.35,0,0,0,54,45.85l2.6,1.5A29.32,29.32,0,0,1,47.35,56.59Z"/>
  <path d="M39,22H25a3,3,0,0,0-3,3V39a3,3,0,0,0,3,3H39a3,3,0,0,0,3-3V25A3,3,0,0,0,39,22Zm1,17a1,1,0,0,1-1,1H25a1,1,0,0,1-1-1V25a1,1,0,0,1,1-1H39a1,1,0,0,1,1,1Z"/>
  <path d="M19,26H11a1,1,0,0,0,0,2h8a1,1,0,0,0,0-2Z"/>
  <path d="M45,28h8a1,1,0,0,0,0-2H45a1,1,0,0,0,0,2Z"/>
  <path d="M19,36H11a1,1,0,0,0,0,2h8a1,1,0,0,0,0-2Z"/>
  <path d="M54,37a1,1,0,0,0-1-1H45a1,1,0,0,0,0,2h8A1,1,0,0,0,54,37Z"/>
</svg>