<svg x="0px" y="0px" fill='currentColor' viewBox="0 0 100 100">
  <g>
    <path d="M24.5,95h50.9c3.9,0,7-3.1,7-7V12c0-3.9-3.1-7-7-7H24.5c-3.9,0-7,3.1-7,7v76C17.5,91.8,20.7,95,24.5,95z M25.5,13h48.9v74   H25.5V13z"/>
    <path d="M63.7,56.2H36.3c-2.2,0-4,1.8-4,4s1.8,4,4,4h27.3c2.2,0,4-1.8,4-4S65.9,56.2,63.7,56.2z"/>
    <path d="M63.7,69.9H36.3c-2.2,0-4,1.8-4,4s1.8,4,4,4h27.3c2.2,0,4-1.8,4-4S65.9,69.9,63.7,69.9z"/>
    <path d="M50,49.4c7.9,0,14.2-6.4,14.2-14.2S57.9,21,50,21s-14.2,6.4-14.2,14.2S42.1,49.4,50,49.4z M50,29c3.4,0,6.2,2.8,6.2,6.2   c0,3.4-2.8,6.2-6.2,6.2s-6.2-2.8-6.2-6.2C43.8,31.8,46.6,29,50,29z"/>
  </g>
</svg>