<svg xmlns="http://www.w3.org/2000/svg" fill='currentColor' x="0px" y="0px" viewBox="0 0 128 160" style="enable-background:new 0 0 128 128;" xml:space="preserve">
  <path d="M36,0H4C1.8,0,0,1.8,0,4v32c0,2.2,1.8,4,4,4h32c2.2,0,4-1.8,4-4V4C40,1.8,38.2,0,36,0z M36,36H4V4h32V36z"/>
  <path d="M80,0H48c-2.2,0-4,1.8-4,4v32c0,2.2,1.8,4,4,4h32c2.2,0,4-1.8,4-4V4C84,1.8,82.2,0,80,0z M80,36H48V4h32V36z"/>
  <path d="M124,0H92c-2.2,0-4,1.8-4,4v32c0,2.2,1.8,4,4,4h32c2.2,0,4-1.8,4-4V4C128,1.8,126.2,0,124,0z M124,36H92V4h32V36z"/>
  <path d="M10,18c1.1,0,2-0.9,2-2v-4h4c1.1,0,2-0.9,2-2s-0.9-2-2-2h-6c-1.1,0-2,0.9-2,2v6C8,17.1,8.9,18,10,18z"/>
  <path d="M24,32h6c1.1,0,2-0.9,2-2v-6c0-1.1-0.9-2-2-2s-2,0.9-2,2v4h-4c-1.1,0-2,0.9-2,2S22.9,32,24,32z"/>
  <path d="M54,18c1.1,0,2-0.9,2-2v-4h4c1.1,0,2-0.9,2-2s-0.9-2-2-2h-6c-1.1,0-2,0.9-2,2v6C52,17.1,52.9,18,54,18z"/>
  <path d="M68,32h6c1.1,0,2-0.9,2-2v-6c0-1.1-0.9-2-2-2s-2,0.9-2,2v4h-4c-1.1,0-2,0.9-2,2S66.9,32,68,32z"/>
  <path d="M98,18c1.1,0,2-0.9,2-2v-4h4c1.1,0,2-0.9,2-2s-0.9-2-2-2h-6c-1.1,0-2,0.9-2,2v6C96,17.1,96.9,18,98,18z"/>
  <path d="M112,32h6c1.1,0,2-0.9,2-2v-6c0-1.1-0.9-2-2-2s-2,0.9-2,2v4h-4c-1.1,0-2,0.9-2,2S110.9,32,112,32z"/>
  <path d="M36,44H4c-2.2,0-4,1.8-4,4v32c0,2.2,1.8,4,4,4h32c2.2,0,4-1.8,4-4V48C40,45.8,38.2,44,36,44z M36,80H4V48h32V80z"/>
  <path d="M80,44H48c-2.2,0-4,1.8-4,4v32c0,2.2,1.8,4,4,4h32c2.2,0,4-1.8,4-4V48C84,45.8,82.2,44,80,44z M80,80H48V48h32V80z"/>
  <path d="M124,44H92c-2.2,0-4,1.8-4,4v32c0,2.2,1.8,4,4,4h32c2.2,0,4-1.8,4-4V48C128,45.8,126.2,44,124,44z M124,80H92V48h32V80z"/>
  <path d="M10,62c1.1,0,2-0.9,2-2v-4h4c1.1,0,2-0.9,2-2s-0.9-2-2-2h-6c-1.1,0-2,0.9-2,2v6C8,61.1,8.9,62,10,62z"/>
  <path d="M24,76h6c1.1,0,2-0.9,2-2v-6c0-1.1-0.9-2-2-2s-2,0.9-2,2v4h-4c-1.1,0-2,0.9-2,2S22.9,76,24,76z"/>
  <path d="M54,62c1.1,0,2-0.9,2-2v-4h4c1.1,0,2-0.9,2-2s-0.9-2-2-2h-6c-1.1,0-2,0.9-2,2v6C52,61.1,52.9,62,54,62z"/>
  <path d="M68,76h6c1.1,0,2-0.9,2-2v-6c0-1.1-0.9-2-2-2s-2,0.9-2,2v4h-4c-1.1,0-2,0.9-2,2S66.9,76,68,76z"/>
  <path d="M98,62c1.1,0,2-0.9,2-2v-4h4c1.1,0,2-0.9,2-2s-0.9-2-2-2h-6c-1.1,0-2,0.9-2,2v6C96,61.1,96.9,62,98,62z"/>
  <path d="M112,76h6c1.1,0,2-0.9,2-2v-6c0-1.1-0.9-2-2-2s-2,0.9-2,2v4h-4c-1.1,0-2,0.9-2,2S110.9,76,112,76z"/>
  <path d="M36,88H4c-2.2,0-4,1.8-4,4v32c0,2.2,1.8,4,4,4h32c2.2,0,4-1.8,4-4V92C40,89.8,38.2,88,36,88z M36,124H4V92h32V124z"/>
  <path d="M80,88H48c-2.2,0-4,1.8-4,4v32c0,2.2,1.8,4,4,4h32c2.2,0,4-1.8,4-4V92C84,89.8,82.2,88,80,88z M80,124H48V92h32V124z"/>
  <path d="M124,88H92c-2.2,0-4,1.8-4,4v32c0,2.2,1.8,4,4,4h32c2.2,0,4-1.8,4-4V92C128,89.8,126.2,88,124,88z M124,124H92V92h32V124z"/>
  <path d="M10,106c1.1,0,2-0.9,2-2v-4h4c1.1,0,2-0.9,2-2s-0.9-2-2-2h-6c-1.1,0-2,0.9-2,2v6C8,105.1,8.9,106,10,106z"/>
  <path d="M24,120h6c1.1,0,2-0.9,2-2v-6c0-1.1-0.9-2-2-2s-2,0.9-2,2v4h-4c-1.1,0-2,0.9-2,2S22.9,120,24,120z"/>
  <path d="M54,106c1.1,0,2-0.9,2-2v-4h4c1.1,0,2-0.9,2-2s-0.9-2-2-2h-6c-1.1,0-2,0.9-2,2v6C52,105.1,52.9,106,54,106z"/>
  <path d="M68,120h6c1.1,0,2-0.9,2-2v-6c0-1.1-0.9-2-2-2s-2,0.9-2,2v4h-4c-1.1,0-2,0.9-2,2S66.9,120,68,120z"/>
  <path d="M98,106c1.1,0,2-0.9,2-2v-4h4c1.1,0,2-0.9,2-2s-0.9-2-2-2h-6c-1.1,0-2,0.9-2,2v6C96,105.1,96.9,106,98,106z"/>
  <path d="M112,120h6c1.1,0,2-0.9,2-2v-6c0-1.1-0.9-2-2-2s-2,0.9-2,2v4h-4c-1.1,0-2,0.9-2,2S110.9,120,112,120z"/>
</svg>