<svg xmlns="http://www.w3.org/2000/svg" viewBox="0 0 94.25 54.55"><defs><style>.cls-1{fill:#fff;}.cls-2{fill:none;stroke:#fff;stroke-miterlimit:10;}</style></defs><title>Asset 9</title><g id="Layer_2" data-name="Layer 2"><g id="Layer_1-2" data-name="Layer 1"><circle class="cls-1" cx="92.09" cy="36.99" r="2.16"/><circle class="cls-1" cx="78.07" cy="52.39" r="2.16"/><rect class="cls-1" width="14.34" height="4.13" rx="2.06" ry="2.06"/><path class="cls-2" d="M60.91,24.69a5.14,5.14,0,1,1-5.1-5.17A5.16,5.16,0,0,1,60.91,24.69Z"/><path class="cls-2" d="M66.91,25.68a5.13,5.13,0,1,1-5.19,5.07A5.13,5.13,0,0,1,66.91,25.68Z"/><path class="cls-2" d="M38.74,24.69a5.14,5.14,0,1,1-5.11-5.16A5.14,5.14,0,0,1,38.74,24.69Z"/><path class="cls-2" d="M11.55,29.48a5.14,5.14,0,1,1,5.15-5.13A5.14,5.14,0,0,1,11.55,29.48Z"/><path class="cls-2" d="M55.89,17.14a5.13,5.13,0,0,1,0-10.26,5.13,5.13,0,1,1,0,10.26Z"/><path class="cls-2" d="M72.81,37a5.14,5.14,0,1,1,5.12,5.16A5.14,5.14,0,0,1,72.81,37Z"/><path class="cls-2" d="M61.86,18.11a5.13,5.13,0,1,1,5.06,5.19A5.13,5.13,0,0,1,61.86,18.11Z"/><path class="cls-2" d="M44.68,13.31a5.13,5.13,0,1,1,0,10.25,5.13,5.13,0,1,1,0-10.25Z"/><path class="cls-2" d="M72.95,24.33A5.13,5.13,0,1,1,78,29.48,5.13,5.13,0,0,1,72.95,24.33Z"/><path class="cls-2" d="M27.65,30.86a5.13,5.13,0,1,1-5.09-5.17A5.15,5.15,0,0,1,27.65,30.86Z"/><path class="cls-2" d="M33.71,17.15a5.12,5.12,0,1,1,0-10.25,5.12,5.12,0,1,1,0,10.25Z"/><path class="cls-2" d="M39.68,5.8a5.13,5.13,0,1,1,5.13,5.14A5.13,5.13,0,0,1,39.68,5.8Z"/><path class="cls-2" d="M22.63,23.31a5.13,5.13,0,0,1,0-10.26,5.13,5.13,0,1,1,0,10.26Z"/><path class="cls-2" d="M16.56,37a5.13,5.13,0,1,1-5.09-5.16A5.15,5.15,0,0,1,16.56,37Z"/></g></g></svg>