<svg xmlns="http://www.w3.org/2000/svg" viewBox="0 0 448.66 823.01"><defs><style>.cls-1{fill:#8e54e9;}.cls-2{fill:#6b91bf;}.cls-3{fill:#5fb0b7;}.cls-4{fill:#5bc8af;}.cls-5{fill:#d6f7a3;}.cls-10,.cls-11,.cls-12,.cls-13,.cls-14,.cls-15,.cls-16,.cls-17,.cls-6,.cls-7,.cls-8,.cls-9{fill:none;stroke-miterlimit:10;}.cls-17,.cls-6{stroke:#d6f7a3;}.cls-10,.cls-6,.cls-7,.cls-8,.cls-9{stroke-width:2px;}.cls-16,.cls-7{stroke:#5bc8af;}.cls-13,.cls-14,.cls-8{stroke:#5fb0b7;}.cls-15,.cls-9{stroke:#6b91bf;}.cls-10,.cls-11,.cls-12{stroke:#8e54e9;}.cls-12{stroke-width:0.57px;}.cls-14{stroke-width:0.75px;}.cls-15{stroke-width:0.25px;}</style></defs><title>Asset 6</title><g id="Layer_2" data-name="Layer 2"><g id="Layer_1-2" data-name="Layer 1"><path class="cls-1" d="M100.5,62.53v87.12a1.08,1.08,0,0,0,2.16,0V62.53a1.08,1.08,0,0,0-2.16,0Z"/><path class="cls-1" d="M0,1V62.53a1.08,1.08,0,0,0,2.16,0V1A1.08,1.08,0,0,0,0,1Z"/><path class="cls-2" d="M100.5,235.76v15.06a1.08,1.08,0,0,0,2.16,0V235.76a1.08,1.08,0,0,0-2.16,0Z"/><path class="cls-3" d="M100.5,397.35v29.24a1.08,1.08,0,0,0,2.16,0V397.35a1.08,1.08,0,0,0-2.16,0Z"/><path class="cls-4" d="M99.1,510.32v36.22a1.08,1.08,0,0,0,2.16,0V510.32a1.08,1.08,0,0,0-2.16,0Z"/><path class="cls-5" d="M100.5,664.37V701.6a1.08,1.08,0,0,0,2.16,0V664.37a1.08,1.08,0,0,0-2.16,0Z"/><path class="cls-5" d="M100.5,784.74V822a1.08,1.08,0,0,0,2.16,0V784.74a1.08,1.08,0,0,0-2.16,0Z"/><path class="cls-2" d="M401,250.82v32a1.08,1.08,0,0,0,2.16,0v-32a1.08,1.08,0,0,0-2.16,0Z"/><path class="cls-3" d="M401,365.32v32a1.08,1.08,0,0,0,2.16,0v-32a1.08,1.08,0,0,0-2.16,0Z"/><path class="cls-4" d="M401,546.54v21.15a1.08,1.08,0,0,0,2.16,0V546.54a1.08,1.08,0,0,0-2.16,0Z"/><path class="cls-5" d="M401,651v13.42a1.08,1.08,0,0,0,2.16,0V651a1.08,1.08,0,0,0-2.16,0Z"/><path class="cls-2" d="M402.09,249.74H101.58a1.08,1.08,0,0,0,0,2.16H402.09a1.08,1.08,0,0,0,0-2.16Z"/><path class="cls-3" d="M402,396.27H101.58a1.08,1.08,0,0,0,0,2.16H402a1.08,1.08,0,0,0,0-2.16Z"/><path class="cls-4" d="M402.09,545.46H100.18a1.08,1.08,0,0,0,0,2.16h301.9a1.08,1.08,0,0,0,0-2.16Z"/><path class="cls-5" d="M402.09,663.29H102a1.08,1.08,0,0,0,0,2.16H402.09a1.08,1.08,0,0,0,0-2.16Z"/><path class="cls-1" d="M101.58,61.45H1.08a1.08,1.08,0,0,0,0,2.16h100.5a1.08,1.08,0,0,0,0-2.16Z"/><circle class="cls-6" cx="78.59" cy="763.55" r="2.19"/><circle class="cls-6" cx="70.8" cy="755.44" r="2.19"/><rect class="cls-6" x="54.12" y="701.71" width="100.82" height="82.57" rx="12" ry="12"/><circle class="cls-7" cx="380.26" cy="581.84" r="2.19"/><circle class="cls-7" cx="357.05" cy="593.54" r="2.19"/><rect class="cls-7" x="413.39" y="580.13" width="14.57" height="4.19" rx="2.1" ry="2.1"/><rect class="cls-7" x="345.87" y="567.68" width="100.82" height="82.57" rx="12" ry="12"/><circle class="cls-8" cx="66.19" cy="443.14" r="2.19"/><circle class="cls-8" cx="58.59" cy="455.43" r="2.19"/><rect class="cls-8" x="121.47" y="441.04" width="14.57" height="4.19" rx="2.1" ry="2.1"/><rect class="cls-8" x="46.95" y="426.59" width="100.82" height="82.57" rx="12" ry="12"/><circle class="cls-9" cx="367.31" cy="296.33" r="2.19"/><circle class="cls-9" cx="361.23" cy="306.15" r="2.19"/><rect class="cls-9" x="411" y="289.94" width="14.57" height="4.19" rx="2.1" ry="2.1"/><rect class="cls-9" x="346.84" y="282.8" width="100.82" height="82.57" rx="12" ry="12"/><circle class="cls-10" cx="91.43" cy="162.79" r="2.19"/><circle class="cls-10" cx="127.57" cy="224.06" r="2.19"/><rect class="cls-10" x="70.99" y="160.7" width="14.57" height="4.19" rx="2.1" ry="2.1"/><rect class="cls-10" x="51.13" y="151.64" width="100.82" height="82.57" rx="12" ry="12"/><path class="cls-11" d="M100.53,218.65H75a4.74,4.74,0,0,1-4.8-3.54,5.22,5.22,0,0,1-.18-1.35q0-19.87,0-39.73a4.66,4.66,0,0,1,4.78-4.83h51.5a4.59,4.59,0,0,1,4.71,4.61q0,20.11,0,40.22a4.63,4.63,0,0,1-4.94,4.62H100.53ZM73.32,184v.71q0,14.37,0,28.73c0,1.38.49,1.88,1.87,1.88H126c1.33,0,1.78-.44,1.78-1.77q0-14.48,0-29c0-.19,0-.38,0-.6Zm.07-3.28h54.36c0-2.32,0-4.6,0-6.88a1.35,1.35,0,0,0-1.17-1.32,4.36,4.36,0,0,0-.76,0H75.42c-1.7,0-2,.33-2,2.06s0,3.21,0,4.81Z"/><path class="cls-1" d="M94.84,177.39a2.16,2.16,0,1,1-2.14-2.18A2.13,2.13,0,0,1,94.84,177.39Z"/><path class="cls-1" d="M78.27,175.21a2.16,2.16,0,1,1-2.15,2.12A2.17,2.17,0,0,1,78.27,175.21Z"/><path class="cls-1" d="M87.63,177.38a2.15,2.15,0,0,1-2.14,2.14,2.19,2.19,0,0,1-2.17-2.18,2.16,2.16,0,0,1,4.31,0Z"/><path class="cls-12" d="M94.79,198.46l10.78,5-3.46,2,2.8,3.9-2.8,2.05-2.81-3.89-3,2.69Z"/><path class="cls-12" d="M93.68,197.78c.07.58.15,1.08.19,1.58a.4.4,0,0,1-.13.27.88.88,0,0,1-.33.23c-.58.18-.69.59-.63,1.14a11.64,11.64,0,0,1,0,1.25H88.93c0-.57,0-1.14,0-1.72a.45.45,0,0,0-.29-.48A4.87,4.87,0,0,1,90,190.9a4.65,4.65,0,0,1,4.57,1.65,4.7,4.7,0,0,1,.88,4.75c0,.07-.06.13-.1.23-.37-.19-.72-.35-1.05-.55-.07,0-.09-.25-.06-.37a3.44,3.44,0,0,0-2.69-4.3,3.45,3.45,0,1,0-.8,6.84A3.5,3.5,0,0,0,93.68,197.78Z"/><path class="cls-1" d="M85.46,201.69l-.75-.75,1.7-1.73.77.77Z"/><path class="cls-1" d="M96.24,189.81l.78.78-1.68,1.68-.75-.76Z"/><path class="cls-1" d="M85.22,195v1.21H82.8c0-.33,0-.67,0-1,0-.07.1-.19.16-.19Z"/><path class="cls-1" d="M98.88,196.25H96.46V195h2.26c.06,0,.15.12.16.19C98.89,195.56,98.88,195.89,98.88,196.25Z"/><path class="cls-1" d="M92.07,203v1.18h-2.4V203Z"/><path class="cls-1" d="M86.28,192.29l-1.66-1.66.8-.75,1.67,1.67Z"/><path class="cls-1" d="M91.43,187.74v2.38H90.25v-2.38Z"/><path class="cls-13" d="M92.45,486.14l3.3,1.86c0-.2,0-.35,0-.5q0-8.56,0-17.13a.71.71,0,0,0-.4-.72q-7.49-4.3-15-8.62l-.48-.24v13.13H76.07v-.56c0-4.85,0-9.7,0-14.54a2.23,2.23,0,0,1,1.24-2.14q9.3-5.26,18.58-10.55a2.2,2.2,0,0,1,2.38,0q9.32,5.32,18.67,10.6a2.13,2.13,0,0,1,1.17,2q0,10.61,0,21.22a2.13,2.13,0,0,1-1.18,2q-9.34,5.29-18.67,10.6a2.14,2.14,0,0,1-2.33,0q-1.53-.91-3.09-1.75a.66.66,0,0,1-.4-.71C92.47,488.81,92.45,487.5,92.45,486.14Zm21.76-25.36-.36.18q-7.57,4.37-15.15,8.74a.63.63,0,0,0-.33.65q0,8.59,0,17.18V488l.34-.17q7.58-4.3,15.16-8.6a.66.66,0,0,0,.34-.7q0-7.62,0-15.24Zm-32.93-1.9.43.27q7.5,4.33,15,8.67a.71.71,0,0,0,.82-.05l14.81-8.56.52-.33-.32-.21q-7.55-4.29-15.1-8.59a.67.67,0,0,0-.78,0L88,455.09Z"/><path class="cls-14" d="M86.68,493c.83-.21,1.56-.38,2.29-.57.44-.12.79,0,1,.42s-.13.7-.62.83l-3.91,1a.64.64,0,0,1-.87-.5q-.52-2-1-4c-.09-.39,0-.74.43-.85s.72.13.83.55c.22.85.42,1.69.65,2.59a8.35,8.35,0,0,0-10.62-11.76c2.3,1.15,3.13,2.47,2.75,4.38a3.64,3.64,0,0,1-3.17,2.87c-1.88.18-3.2-.74-4-2.9-.1.24-.19.4-.24.57A8.46,8.46,0,0,0,81.19,496.2c.71-.25,1-.23,1.22.16s0,.78-.72,1a9.38,9.38,0,0,1-10.13-1.85,9.71,9.71,0,0,1,5-16.8,9.19,9.19,0,0,1,9.29,3.75,9.41,9.41,0,0,1,1.1,9.92C86.87,492.56,86.8,492.71,86.68,493ZM74,486.59a2.31,2.31,0,0,0,2.36-2.33A2.35,2.35,0,0,0,74,481.91a2.32,2.32,0,0,0-2.35,2.35A2.29,2.29,0,0,0,74,486.59Z"/><path class="cls-2" d="M410.69,349.64h-2.17l-.1-.19a7.53,7.53,0,0,1,1.47-.88C410,348.53,410.36,349.19,410.69,349.64Z"/><path class="cls-2" d="M419.55,349.66v-1.15h2.39c1.81,0,2.6-.86,2.75-2.63a4.87,4.87,0,0,1,1-2,8.47,8.47,0,0,1-.12,3.56,3.29,3.29,0,0,1-3,2.25C421.6,349.71,420.61,349.66,419.55,349.66Z"/><path class="cls-2" d="M380.08,325.2a1.17,1.17,0,0,1-1.15,1.15,1.17,1.17,0,1,1,0-2.34A1.17,1.17,0,0,1,380.08,325.2Z"/><path class="cls-2" d="M392.22,325.16a1.19,1.19,0,0,1-1.11,1.19,1.17,1.17,0,1,1-.05-2.34A1.2,1.2,0,0,1,392.22,325.16Z"/><path class="cls-2" d="M385,324a1.17,1.17,0,1,1-1.17,1.14A1.2,1.2,0,0,1,385,324Z"/><path class="cls-2" d="M385,344.42a1.15,1.15,0,1,1,0-2.31,1.15,1.15,0,1,1,0,2.31Z"/><path class="cls-2" d="M392.22,343.26a1.16,1.16,0,0,1-1.13,1.16,1.15,1.15,0,1,1-.08-2.31A1.16,1.16,0,0,1,392.22,343.26Z"/><path class="cls-2" d="M378.93,344.42a1.15,1.15,0,1,1,1.15-1.13A1.14,1.14,0,0,1,378.93,344.42Z"/><path class="cls-2" d="M401.36,342.8c-.05.81-.31,1.17-1.05,1.07a14.76,14.76,0,0,0-1.6,0c-.38,0-.64-.18-.62-.6s.3-.46.65-.46C399.59,342.81,400.45,342.8,401.36,342.8Z"/><path class="cls-2" d="M408.69,308.28h-9.58a1.32,1.32,0,0,1-.61,0c-.18-.11-.42-.35-.41-.52a1,1,0,0,1,.42-.58c.13-.09.36,0,.55,0h19.34c.15,0,.33-.05.43,0s.55.39.52.54-.31.45-.54.6-.36,0-.55,0Z"/><path class="cls-2" d="M386.16,307.67a1.17,1.17,0,1,1-1.21-1.14A1.16,1.16,0,0,1,386.16,307.67Z"/><path class="cls-2" d="M380.08,307.69a1.14,1.14,0,0,1-1.19,1.15,1.15,1.15,0,1,1,.07-2.3A1.14,1.14,0,0,1,380.08,307.69Z"/><path class="cls-2" d="M391.07,308.83a1.15,1.15,0,1,1,0-2.3,1.15,1.15,0,1,1,0,2.3Z"/><path class="cls-2" d="M398.62,312.1v4.67H421a3.55,3.55,0,0,1,3.86,3.87c0,1.56,0,3.11,0,4.67v.64h-1.19q0-.45,0-.91c0-1.56,0-3.11,0-4.67a2.3,2.3,0,0,0-2.41-2.44q-23.24,0-46.47,0a2.3,2.3,0,0,0-2.42,2.5q0,2.74,0,5.47a2.35,2.35,0,0,0,2.57,2.54c6.53,0,13.07,0,19.6,0a2.24,2.24,0,0,1,2.17,1.13c-.16,0-.32,0-.47,0h-21.4a3.49,3.49,0,0,1-3.65-3.63c0-1.85,0-3.69,0-5.54a3.5,3.5,0,0,1,3.7-3.65h22.5V312.1H375.19a6,6,0,0,1-1.42-.13,3.46,3.46,0,0,1-2.62-3.44q0-2.83,0-5.66a3.51,3.51,0,0,1,3.76-3.61h45.92a5.65,5.65,0,0,1,1.47.16,3.44,3.44,0,0,1,2.52,3.38q0,2.86,0,5.72A3.51,3.51,0,0,1,421,312.1H398.62ZM398,300.44H374.91a2.31,2.31,0,0,0-2.57,2.58c0,1.8,0,3.61,0,5.41a2.3,2.3,0,0,0,2.48,2.49h46.35a2.3,2.3,0,0,0,2.48-2.49c0-1.74,0-3.48,0-5.23,0-1.93-.84-2.77-2.76-2.77Z"/><path class="cls-2" d="M403.66,347.67h-5v4.08h25.45c.4,0,.72.13.73.57s-.34.62-.76.61H371.8c-.39,0-.7-.22-.61-.6.05-.22.36-.42.6-.56s.36,0,.55,0h25v-4.08h-.83q-10.76,0-21.52,0a3.68,3.68,0,0,1-3.11-1.37,3.55,3.55,0,0,1-.74-2.26c0-1.85,0-3.69,0-5.54a3.51,3.51,0,0,1,3.69-3.67H394.5c.67,0,.7.06.73,1.19H375c-1.85,0-2.7.86-2.71,2.69s0,3.53,0,5.29a2.31,2.31,0,0,0,2.53,2.5c8.56,0,17.13,0,25.69,0A4.18,4.18,0,0,1,403.66,347.67Z"/><path class="cls-15" d="M400.41,338.41c-.48,0-1,0-1.43,0a.7.7,0,0,1-.8-.61q-.35-1.51-.75-3a.64.64,0,0,1,.42-.84c.79-.37,1.56-.77,2.36-1.1a1.15,1.15,0,0,0,.7-.9,1.82,1.82,0,0,0-.66-2.21,16.45,16.45,0,0,1-1.42-1.39.63.63,0,0,1-.1-.89c.59-.9,1.17-1.81,1.75-2.72a.65.65,0,0,1,.89-.3c.85.33,1.72.6,2.56.94a1,1,0,0,0,1-.11,1.91,1.91,0,0,0,1.15-2.19,15.52,15.52,0,0,1,0-1.93.62.62,0,0,1,.56-.69c1-.22,2.06-.46,3.09-.7a.73.73,0,0,1,.94.47c.35.79.76,1.57,1.1,2.37a1.09,1.09,0,0,0,.81.64,1.89,1.89,0,0,0,2.35-.74,14.73,14.73,0,0,1,1.26-1.29.67.67,0,0,1,1-.11q1.29.86,2.62,1.67a.72.72,0,0,1,.33,1c-.32.83-.6,1.68-.93,2.5a1,1,0,0,0,.12,1,1.91,1.91,0,0,0,2.2,1.13,15.52,15.52,0,0,1,1.8,0,.73.73,0,0,1,.83.65c.21,1,.41,2,.66,3a.76.76,0,0,1-.52,1c-.78.34-1.53.73-2.31,1.07a1,1,0,0,0-.61.75,1.93,1.93,0,0,0,.73,2.42,13.9,13.9,0,0,1,1.33,1.31.62.62,0,0,1,.09.89c-.59.9-1.17,1.81-1.75,2.72a.65.65,0,0,1-.9.28c-.84-.35-1.7-.65-2.54-1a1,1,0,0,0-.9.11,1.9,1.9,0,0,0-1.15,2.19,14.24,14.24,0,0,1,0,1.86.71.71,0,0,1-.63.78c-1,.21-2,.43-3,.68a.69.69,0,0,1-.9-.43c-.38-.83-.79-1.64-1.15-2.48a1,1,0,0,0-.76-.61,2,2,0,0,0-2.41.75,13,13,0,0,1-1.26,1.29.64.64,0,0,1-.93.12c-.88-.58-1.77-1.15-2.67-1.71a.71.71,0,0,1-.31-1c.32-.81.58-1.64.9-2.45a1.17,1.17,0,0,0-.11-1C402.45,338.31,401.49,338.27,400.41,338.41Zm-.52-10.64c.6.58,1.15,1.15,1.74,1.66a1.57,1.57,0,0,1,.6,1.85c-.16.49-.14,1-.3,1.52a1.47,1.47,0,0,1-.59.78c-.75.43-1.57.75-2.33,1.16a.67.67,0,0,0-.28.54c.07.55.24,1.09.33,1.64.05.34.2.44.53.44a24.25,24.25,0,0,1,2.49,0,1.52,1.52,0,0,1,.91.48c.41.46.71,1,1.09,1.51a1.11,1.11,0,0,1,.14,1.21c-.35.88-.65,1.77-1,2.67.61.39,1.18.74,1.72,1.12a.44.44,0,0,0,.68-.09c.54-.57,1.12-1.11,1.66-1.68a1.32,1.32,0,0,1,1.35-.4c.61.13,1.24.18,1.83.36a1.52,1.52,0,0,1,.82.62c.48.86.88,1.77,1.32,2.69l2.44-.53a5.53,5.53,0,0,0,0-1,3.21,3.21,0,0,1,2.11-3.93,1.65,1.65,0,0,1,1-.12c.93.27,1.83.64,2.78,1l1.36-2.13c-.67-.66-1.27-1.29-1.93-1.86a1.3,1.3,0,0,1-.44-1.49,9.21,9.21,0,0,0,.28-1.53,1.1,1.1,0,0,1,.74-1c.88-.39,1.74-.83,2.6-1.25l-.54-2.44c-1,0-2,0-2.91,0a1.46,1.46,0,0,1-.91-.48c-.44-.51-.78-1.12-1.19-1.67a1.11,1.11,0,0,1-.16-1.21c.35-.88.65-1.78,1-2.69l-2.15-1.37a18,18,0,0,0-1.37,1.47,2.37,2.37,0,0,1-2.6.83,2.55,2.55,0,0,1-2.36-1.88c-.19-.57-.44-1.35-.89-1.55s-1.18.19-1.79.27c-.43.06-.63.23-.56.68,0,.14,0,.29,0,.43a3.45,3.45,0,0,1-2,4,1.29,1.29,0,0,1-1.21.15c-.88-.35-1.78-.65-2.68-1Z"/><path class="cls-15" d="M411.1,327.21a6.22,6.22,0,0,1,6.24,6.25,6.15,6.15,0,0,1-6.22,6.18,6.27,6.27,0,0,1-6.25-6.26A6.14,6.14,0,0,1,411.1,327.21Zm5.09,6.23a5.09,5.09,0,1,0-5.21,5A5.09,5.09,0,0,0,416.19,333.44Z"/><path class="cls-16" d="M427.8,606.66l-1.42-.56v-.64q0-5.87,0-11.73a4.28,4.28,0,0,0-4.54-4.52H384.1l-.17-1.42h38a5.69,5.69,0,0,1,5.88,5.87q0,6.19,0,12.39Z"/><path class="cls-16" d="M366.31,620.63h41.23L408,622H366.33a10.2,10.2,0,0,0,.31,3.76,4.28,4.28,0,0,0,4.11,2.66h40.06c-1.1.47-2.18.94-3.26,1.38a1.44,1.44,0,0,1-.53,0h-6.56c0,1.57,0,3.08,0,4.6a10.42,10.42,0,0,0,.05,1.71,4.34,4.34,0,0,0,3.43,3.6H382.82l.49-.18a4,4,0,0,0,2.87-3.58c.14-2,0-4.06,0-6.16H370.86a5.7,5.7,0,0,1-6-6q0-13.48,0-27v-.65l1.42.4Zm20.57,17.74h12.85c-1.3-2.76-.39-5.68-.77-8.47H387.66c0,1.41,0,2.79,0,4.17A7.48,7.48,0,0,1,386.89,638.37Z"/><path class="cls-16" d="M416.72,639.81c-2.28-.1-5.16-.18-8-.36a11.54,11.54,0,0,1-2.59-.55,2.17,2.17,0,0,1-1.52-1.92,4.81,4.81,0,0,1,2.2-5.11,14,14,0,0,1,4.52-2,3.14,3.14,0,0,0,2.53-2.52.74.74,0,0,0-.22-.62,11.37,11.37,0,0,1-5-8.41,12.71,12.71,0,0,1,2-9,8.57,8.57,0,0,1,6.18-4.07,7.74,7.74,0,0,1,6.54,2.26,11.72,11.72,0,0,1,3.6,7.9,12.69,12.69,0,0,1-2.77,9.35A8.39,8.39,0,0,1,421.2,627a.55.55,0,0,0-.33.75,2.21,2.21,0,0,0,1.2,1.6,14.84,14.84,0,0,0,1.87.71,12.74,12.74,0,0,1,4.42,2.2c1.85,1.53,2,2.94,1.56,5.27a1.82,1.82,0,0,1-1.48,1.39,23,23,0,0,1-3.67.6C422.3,639.71,419.81,639.73,416.72,639.81Zm8.76-22.64a12,12,0,0,0-2.3-7.75c-3-3.82-7.91-3.86-11-.08a10.77,10.77,0,0,0-2.34,6.27,10.94,10.94,0,0,0,3.14,8.86,6.41,6.41,0,0,0,9,.22A10.36,10.36,0,0,0,425.48,617.18Zm-8.07,21.35v-.25c2.19,0,4.38.07,6.57,0a29.16,29.16,0,0,0,4-.56,1,1,0,0,0,.67-.62,3.56,3.56,0,0,0-1.21-3.72,12.27,12.27,0,0,0-3.56-1.82c-.76-.26-1.51-.56-2.28-.81a.72.72,0,0,0-.52.07,6.63,6.63,0,0,1-7.23-.13.81.81,0,0,0-.61,0c-.59.2-1.16.49-1.76.68a12.69,12.69,0,0,0-4.27,2.1,3.34,3.34,0,0,0-1.08,3.58,1,1,0,0,0,.59.64,6.29,6.29,0,0,0,1.72.4C411.42,638.23,414.41,638.37,417.41,638.53Zm-2.8-9.07a5,5,0,0,0,5.52.14l-.75-1.86h-4.05Z"/><path class="cls-16" d="M391.21,614.91h-9.95V605.7a3.08,3.08,0,0,1-.86-.27c-1.35-1-2.67-2-4.06-3.08,1.24-1.19,2.41-2.38,3.67-3.48a4.07,4.07,0,0,1,1.44-.49c.3-.09.61-.15.91-.27a1.84,1.84,0,0,1,2.19.3,2.19,2.19,0,0,0,3-.28,1.1,1.1,0,0,1,1.18-.26l2.67.77a1.08,1.08,0,0,1,.42.21c1.21,1.1,2.41,2.22,3.64,3.36-1.26,1-2.48,2-3.72,2.9a1.24,1.24,0,0,0-.56,1.12c0,2.67,0,5.33,0,8Zm-1.41-1.42V602.14l1.62,1.63,2-1.56a9,9,0,0,1-.7-.67,6.21,6.21,0,0,0-3.59-2.1,1,1,0,0,0-.91.14,3.66,3.66,0,0,1-4.56,0c-.12-.09-.29-.25-.39-.22a9.29,9.29,0,0,0-2.55.87,12.45,12.45,0,0,0-2,2.11l2.12,1.59,1.85-1.61v11.19Z"/><path class="cls-16" d="M368.81,595.38a7.82,7.82,0,1,1,7.82-7.84A7.8,7.8,0,0,1,368.81,595.38Zm0-1.42a6.4,6.4,0,1,0-6.39-6.41A6.38,6.38,0,0,0,368.8,594Z"/><path class="cls-16" d="M397.63,609.21V605h7.06v4.18Zm5.65-2.77h-4.2v1.35h4.2Z"/><path class="cls-16" d="M409,599.33v1.35H397.64v-1.35Z"/><path class="cls-16" d="M397.64,603.52v-1.35h7v1.35Z"/><path class="cls-16" d="M417.5,623.9a3.61,3.61,0,0,1-3.36-2.09.78.78,0,0,1,.24-1.14c.36-.23.78,0,1,.45a2.46,2.46,0,0,0,4.32,0c.3-.57.66-.72,1.07-.49s.47.6.17,1.17A3.71,3.71,0,0,1,417.5,623.9Z"/><path class="cls-4" d="M369.32,584.65l1.81.84-.73,1a17.27,17.27,0,0,0-1.77-.4c-.18,0-.39.23-.59.36a2,2,0,0,0,.51.4c.48.17,1,.24,1.48.41a1.51,1.51,0,0,1,1.19,1.57,1.69,1.69,0,0,1-1.27,1.66l-.62.17,0,.7h-.86l-.07-.68-2.09-.89.75-1c.61.22,1.15.44,1.71.61a1,1,0,0,0,.63-.05.68.68,0,0,0,.36-.4c0-.08-.19-.29-.33-.34-.49-.16-1-.25-1.48-.4a1.6,1.6,0,0,1-1.33-1.47,1.69,1.69,0,0,1,1.18-1.78c.6-.23.6-.23.69-.9h.83Z"/><path class="cls-17" d="M84.63,767.76l3.76-2.44-3.33-2.17c-.7-.46-.7-.6,0-1.07l3.31-2.14L86,758.36l-.92-.59c-.67-.45-.68-.59,0-1l3.36-2.19L84.48,752c.37,0,.56-.07.75-.07q22.69,0,45.38,0a7,7,0,0,1,2.77.64,17,17,0,0,1,6.76,5.59c1,1.43,1.05,2,0,3.43a16.87,16.87,0,0,1-6.74,5.61,8,8,0,0,1-3.15.69q-22.42.06-44.84,0H84.7Z"/><path class="cls-17" d="M96.38,719.44h35.09v28.15H96.38Zm21.65,9h-8.21v-6.74H98.7v23.57h30.46V721.76H118Z"/><path class="cls-5" d="M78.48,727.19H67.66c-.7,0-1.24-.18-1.4-.93a1.07,1.07,0,0,1,.92-1.3,5.35,5.35,0,0,1,.85,0H89.43c1,0,1.52.42,1.5,1.16s-.52,1.1-1.48,1.1Z"/><path class="cls-5" d="M80.81,734.66c-2.88,0-5.76,0-8.63,0a1.21,1.21,0,0,1-1.33-.83,1.09,1.09,0,0,1,.87-1.4,4.57,4.57,0,0,1,.85,0H89.21a6.19,6.19,0,0,1,.62,0,1.12,1.12,0,0,1,1.1,1.17,1.1,1.1,0,0,1-1.18,1.09c-1.81,0-3.63,0-5.44,0Z"/><path class="cls-5" d="M83.7,742.13H77.94c-.9,0-1.39-.39-1.41-1.09s.47-1.18,1.4-1.19H89.52c.92,0,1.44.46,1.42,1.18s-.52,1.09-1.41,1.1Z"/></g></g></svg>