<svg xmlns="http://www.w3.org/2000/svg" viewBox="0 0 90.46 67.03"><defs><style>.cls-1{fill:none;stroke:#fff;stroke-miterlimit:10;}.cls-2{fill:#fff;}</style></defs><title>Asset 10</title><g id="Layer_2" data-name="Layer 2"><g id="Layer_1-2" data-name="Layer 1"><path class="cls-1" d="M43.58.72c0,2,0,3.82,0,5.68a.5.5,0,0,1-.2.35,15.68,15.68,0,0,0-5.17,6,32.39,32.39,0,0,0-2.57,6.35l7.91.6V24.9l-9.17-.68-.75,6.88h9.93v5H33.62L34.36,43l9.18-.69v5.16l-7.91.61a32.56,32.56,0,0,0,2.12,5.5,18.12,18.12,0,0,0,4.6,6.16.81.81,0,0,0,.18.14c1,.41,1.12,1.18,1.06,2.15-.08,1.28,0,2.56,0,3.85v.62a32.73,32.73,0,0,1-19-8.41A32,32,0,0,1,13.68,35.65,32,32,0,0,1,23.8,9.85,32.54,32.54,0,0,1,43.58.72ZM29.26,23.41,21.52,21.6a27.22,27.22,0,0,0-2.6,9.47h9.53ZM18.95,36.14a26.36,26.36,0,0,0,2.49,9.24.61.61,0,0,0,.53.15c1.48-.35,2.95-.74,4.42-1.09,1-.23,1.95-.41,2.87-.6l-.81-7.69ZM24.4,50.21C26,53,32.49,58.27,34.72,58.64a37.73,37.73,0,0,1-4.24-9.78Zm6.09-31.87a39.72,39.72,0,0,1,4.19-9.82A27.55,27.55,0,0,0,24.34,17Z"/><path class="cls-1" d="M47.63,66.32V51.75a18.42,18.42,0,0,0,14.79-7.83,17.6,17.6,0,0,0,3.34-11.49,17.57,17.57,0,0,0-5.6-12.31A18.53,18.53,0,0,0,47.65,15V.51c1.41,0,2.82,0,4.22,0a1.64,1.64,0,0,1,1.45,1.28C55.46,8,60.07,11.33,66.14,13a13.89,13.89,0,0,0,6.19,0,1.65,1.65,0,0,1,1.89.85q1.91,3.33,3.78,6.69a1.55,1.55,0,0,1-.25,2.09,13.27,13.27,0,0,0-3.87,7.84,18.63,18.63,0,0,0,1.17,10.64,10.74,10.74,0,0,0,2.22,3.31,2,2,0,0,1,.36,2.68q-1.77,3.06-3.6,6.09a1.83,1.83,0,0,1-2.25,1,13.86,13.86,0,0,0-9.35.9,18.36,18.36,0,0,0-8,6.13,10.6,10.6,0,0,0-1.72,3.59,1.74,1.74,0,0,1-1.92,1.5C49.76,66.33,48.71,66.32,47.63,66.32Z"/><circle class="cls-2" cx="11.13" cy="4.56" r="2.49"/><circle class="cls-2" cx="2.49" cy="18.52" r="2.49"/><rect class="cls-2" x="73.92" y="2.18" width="16.54" height="4.76" rx="2.38" ry="2.38"/></g></g></svg>