<svg xmlns="http://www.w3.org/2000/svg" viewBox="0 0 109.22 130"><defs><style>.cls-1,.cls-2{fill:#fff;}.cls-2,.cls-3{stroke:#fff;stroke-miterlimit:10;stroke-width:1.47px;}.cls-3{fill:none;}</style></defs><title>Asset 9</title><g id="Layer_2" data-name="Layer 2"><g id="Layer_1-2" data-name="Layer 1"><ellipse class="cls-1" cx="93.35" cy="116.93" rx="2.85" ry="3.38"/><ellipse class="cls-1" cx="77.44" cy="107.77" rx="2.85" ry="3.38"/><rect class="cls-2" x="85.78" y="0.74" width="18.94" height="6.45" rx="1.75" ry="1.75"/><path class="cls-3" d="M47.53,121.6c-.7-11.75-8.78-19.89-17.87-20-9.27-.11-17.54,8.17-18.22,19.9-7.29-6.4-13-20-9.78-34.81S16.74,60,32,61.27l1.71-13.38c-.11-.14-.12-.19-.15-.2-.73-.3-1.78-.35-2.11-1s-.17-1.9-.18-2.89a16.9,16.9,0,0,1,.06-2.33,6,6,0,0,1,3.36-5,8.29,8.29,0,0,1,7.44,0c2.33,1.1,3.5,3.2,3.5,6.17,0,1-.07,2.06,0,3.08a1.2,1.2,0,0,1-.93,1.46,17.32,17.32,0,0,1-6.62,1.22h-.84L35.56,62a27.2,27.2,0,0,1,11.85,6.72A34.38,34.38,0,0,1,55.49,80.8l14.29-6.67a29.41,29.41,0,0,1-.63-9.37,27.75,27.75,0,0,1,2.57-9L53.51,40.36l-4,4.21-.3-.15a28,28,0,0,0,0-3.22c-.5-4.28-2.52-7.24-5.9-8.73a10.86,10.86,0,0,0-11.31,1c-2.8,2-4.13,5.1-4.26,8.94,0,.6,0,1.2,0,1.81a.5.5,0,0,1,0,.1c-5.57-3.45-11.42-14.67-7.87-26.94,3.66-12.64,15.65-19.1,26.14-14s15.85,20.38,9.6,33.47L73.72,52.24c6.77-8,14.62-10.57,23.42-5.75,7.52,4.12,11.35,11.57,11.34,21.4a24.19,24.19,0,0,1-9,19.36,31.69,31.69,0,0,0,0-3.56c-.63-5.13-3.83-8.73-8.34-9.52a11.75,11.75,0,0,0-7.24.84C80.17,76.77,78,80.58,78,85.32c0,.53,0,1.06,0,1.81a22.92,22.92,0,0,1-6.85-9.05L56.85,84.75a39.62,39.62,0,0,1-1.33,24.86C53.71,114.24,50.48,119.07,47.53,121.6Zm-18-49.77c-6,0-10.83,5.68-10.84,12.71s4.82,12.8,10.76,12.81,10.77-5.69,10.8-12.66S35.48,71.85,29.55,71.83Zm16.1-53.09c0-4.66-3.15-8.54-7-8.59s-7.28,3.69-7.33,8.36,3.16,8.63,7.18,8.65S45.62,23.37,45.65,18.74Zm43.16,51c4,0,7.17-3.89,7.14-8.59s-3.26-8.42-7.19-8.42-7.19,3.83-7.18,8.54S84.84,69.72,88.81,69.7Z"/><path class="cls-3" d="M29.49,129.27a25.54,25.54,0,0,1-13.7-4.15,1.48,1.48,0,0,1-.7-1.39c-.49-9.52,5.4-15.75,10.76-17.35,8.33-2.48,16.68,4,17.93,14a23,23,0,0,1,0,3.82,1.39,1.39,0,0,1-.62.87A25,25,0,0,1,29.49,129.27Z"/><path class="cls-3" d="M96,86.66v.53c0,2.27,0,2.28-1.82,2.88a16.62,16.62,0,0,1-11.65-.33,1.2,1.2,0,0,1-.93-1.46c.09-1,0-2,0-3,0-3.16,1.31-5.4,3.84-6.45a8.44,8.44,0,0,1,6.51-.07c2.71,1.06,4,3.22,4,6.59Q96,86,96,86.66Z"/><path class="cls-3" d="M29.57,71.79c5.93,0,10.75,5.81,10.72,12.86S35.4,97.33,29.49,97.32,18.72,91.55,18.74,84.51,23.61,71.77,29.57,71.79ZM22.33,84.55c0,4.7,3.23,8.52,7.2,8.52s7.15-3.81,7.17-8.45S33.5,76.06,29.54,76,22.33,79.85,22.33,84.55Z"/><path class="cls-3" d="M45.65,18.74c0,4.63-3.28,8.44-7.19,8.42s-7.23-3.9-7.18-8.65,3.33-8.41,7.33-8.36S45.68,14.08,45.65,18.74Zm-3.59-.1c0-2.34-1.62-4.25-3.6-4.24s-3.59,1.92-3.58,4.26,1.62,4.25,3.6,4.25S42.06,21,42.06,18.64Z"/><path class="cls-3" d="M93,61.19c0,2.72-1.9,4.94-4.19,4.94s-4.17-2.24-4.17-5,1.89-4.94,4.19-4.94S93,58.47,93,61.19Z"/></g></g></svg>