<svg xmlns="http://www.w3.org/2000/svg" viewBox="0 0 155.05 130.14"><defs><style>.cls-1{fill:none;stroke:#fff;stroke-miterlimit:10;stroke-width:1.47px;}.cls-2{fill:#fff;}</style></defs><title>Asset 7</title><g id="Layer_2" data-name="Layer 2"><g id="Layer_1-2" data-name="Layer 1"><path class="cls-1" d="M119.95,120.58v3H87.16v-3Z"/><path class="cls-1" d="M47.8,121.31V117h1.11c4.31,0,8.62,0,12.92,0a1.19,1.19,0,0,0,1.32-.8,6.79,6.79,0,0,1,7.68-3.85A6.93,6.93,0,0,1,71,125.89a6.81,6.81,0,0,1-7.81-3.78,1.2,1.2,0,0,0-1.31-.81c-4.27,0-8.55,0-12.82,0ZM72,119.19a2.62,2.62,0,0,0-2.59-2.65,2.57,2.57,0,0,0-2.66,2.57,2.6,2.6,0,0,0,2.57,2.66A2.64,2.64,0,0,0,72,119.19Z"/><path class="cls-1" d="M72,119.19a2.64,2.64,0,0,1-2.67,2.58,2.6,2.6,0,0,1-2.57-2.66,2.57,2.57,0,0,1,2.66-2.57A2.62,2.62,0,0,1,72,119.19Z"/><path class="cls-1" d="M131.07,83.65v23.29h-1.72q-41.21,0-82.42,0a3,3,0,0,0-2.35,1q-9.67,9.75-19.41,19.44c-.32.32-.66.63-1.17,1.11V107H.73V24H24V.73H154.31V83.65ZM29.39,78.28H125.6V29.37H29.39Zm-23.31-49v72.3H29.35V115.5c.51-.48.82-.75,1.11-1,4-4,8-7.9,11.88-11.9a3.11,3.11,0,0,1,2.46-1q39.6,0,79.2,0h1.64V83.71H24V29.32ZM149,78.31V6.11H29.42V24H131.09V78.31Z"/><path class="cls-1" d="M68.73,43.59,86.41,53.81,68.73,64Z"/><circle class="cls-2" cx="127.71" cy="78.92" r="3.07"/><circle class="cls-2" cx="136.08" cy="78.92" r="3.07"/></g></g></svg>