<svg xmlns="http://www.w3.org/2000/svg" viewBox="0 0 96.18 128.48"><defs><style>.cls-1{fill:none;stroke:#fff;stroke-miterlimit:10;stroke-width:1.46px;}.cls-2{fill:#fff;}</style></defs><title>Asset 6</title><g id="Layer_2" data-name="Layer 2"><g id="Layer_1-2" data-name="Layer 1"><path class="cls-1" d="M56.46,110.21a6,6,0,1,1,6-5.89A5.87,5.87,0,0,1,56.46,110.21Z"/><path class="cls-1" d="M71.52,110.21a5.83,5.83,0,0,1-6-6,5.89,5.89,0,1,1,11.78,0A5.8,5.8,0,0,1,71.52,110.21Z"/><path class="cls-1" d="M62.16,10.06H10c0,.38,0,.74,0,1.09q0,37.85,0,75.7c0,1.1.23,1.43,1.39,1.42,10.71,0,21.43,0,32.14-.05.9,0,1.26.24,1.5,1.12,1.89,6.9,3.84,13.78,5.76,20.67.1.35.18.7.29,1.14-.41,0-.74.06-1.06.06q-21.33,0-42.67,0a6.09,6.09,0,0,1-6.38-4.86,7.19,7.19,0,0,1-.13-1.54c0-32.33,0-64.65-.05-97A6.7,6.7,0,0,1,7.89.73c18.88.1,37.76,0,56.63,0,4.26,0,6.79,2.48,6.79,6.7q0,24.16,0,48.32c0,.29,0,.58-.05,1l-9.11-1.21Zm-26,87.36H33.94c-.78,0-1.55,0-2.33,0a3.08,3.08,0,1,0,0,6.15q4.43,0,8.86,0a3.08,3.08,0,1,0,0-6.15C39,97.4,37.6,97.42,36.16,97.42Z"/><path class="cls-1" d="M95.25,65.85c-1.17,4.2-2.5,8.24-3.38,12.37s-3,6.25-6.9,7.59c-7.67,2.64-15.18,5.72-22.75,8.64a30,30,0,0,0-4.35,1.91,39,39,0,0,0-3.81,2.85c-.88-3.18-1.79-6.46-2.7-9.75q-4.78-17.39-9.59-34.77a1.8,1.8,0,0,0-1-1c-2.89-.9-5.81-1.69-8.7-2.58a4.12,4.12,0,0,1-2.85-5.14,4.29,4.29,0,0,1,5.51-2.75c2.84.79,5.67,1.63,8.51,2.45,1.45.42,2.92.79,4.35,1.29a1.72,1.72,0,0,1,1,1q1.68,5.79,3.23,11.62A1.25,1.25,0,0,0,53,60.61q14,1.7,28,3.46L94.21,65.7Z"/><rect class="cls-2" x="52.22" y="122.46" width="20.42" height="5.87" rx="2.01" ry="2.01"/><circle class="cls-2" cx="32.02" cy="125.4" r="3.07"/><circle class="cls-2" cx="40.39" cy="125.4" r="3.07"/></g></g></svg>