<svg xmlns="http://www.w3.org/2000/svg" xmlns:xlink="http://www.w3.org/1999/xlink" viewBox="0 0 1171 487.29"><defs><style>.cls-1{stroke-miterlimit:10;fill:url(#linear-gradient);stroke:url(#linear-gradient-2);}.cls-2{fill:url(#linear-gradient-3);}.cls-3{fill:url(#linear-gradient-4);}</style><linearGradient id="linear-gradient" x1="-8.79" y1="246.07" x2="1216.62" y2="235.96" gradientUnits="userSpaceOnUse"><stop offset="0" stop-color="#4458af"/><stop offset="0.21" stop-color="#3b77ce"/><stop offset="0.65" stop-color="#25d4a7"/><stop offset="1" stop-color="#1dd6e6"/></linearGradient><linearGradient id="linear-gradient-2" x1="0" y1="241.17" x2="1171" y2="241.17" xlink:href="#linear-gradient"/><linearGradient id="linear-gradient-3" x1="348.56" y1="501.06" x2="1316.04" y2="136.17" gradientUnits="userSpaceOnUse"><stop offset="0" stop-color="#4997d3"/><stop offset="1" stop-color="#231651"/></linearGradient><linearGradient id="linear-gradient-4" x1="154.38" y1="258.69" x2="240.11" y2="371.63" gradientTransform="translate(-17.9 17.85) rotate(-0.18)" gradientUnits="userSpaceOnUse"><stop offset="0.07" stop-color="#4ea4d5"/><stop offset="1" stop-color="#4282d1"/></linearGradient></defs><title>Asset 3</title><g id="Layer_2" data-name="Layer 2"><g id="Hanzo_LP_V3"><g id="h1_design_v2" data-name="h1 design v2"><rect class="cls-1" x="0.5" y="0.5" width="1170" height="481.33"/><path class="cls-2" d="M1170.88,128.43s-27.11,66-108.12,104.51-312.28,60.66-415.5,109.64-169.86,116.5-358,86.74S.88,335.83.88,335.83V487.29h1170Z"/><path class="cls-3" d="M.39,405.24.12,330.06S266.28,480.92,484.9,422.73c0,0-140.28,82.42-418.23,5.17C66.67,427.9,10.37,409.46.39,405.24Z"/></g></g></g></svg>