<?xml version="1.0" encoding="UTF-8" standalone="no"?>
<svg width="109px" height="28px" viewBox="0 0 109 28" version="1.1" xmlns="http://www.w3.org/2000/svg" xmlns:xlink="http://www.w3.org/1999/xlink">
    <!-- Generator: Sketch 48.2 (47327) - http://www.bohemiancoding.com/sketch -->
    <title>logo</title>
    <desc>Created with Sketch.</desc>
    <defs>
        <polygon id="path-1" points="8.34752274 0.283453462 0.25592577 0.283453462 0.25592577 11.0719466 8.34752274 11.0719466 8.34752274 0.283453462"></polygon>
        <polygon id="path-3" points="0 4.32911567 0 0.283453462 8.09159697 0.283453462 8.09159697 8.37477788 0 8.37477788 0 4.32911567"></polygon>
    </defs>
    <g id="Desktop-HD-Copy" stroke="none" stroke-width="1" fill="none" fill-rule="evenodd" transform="translate(-129.000000, -3853.000000)">
        <g id="logo" transform="translate(128.406250, 3852.214844)">
            <g transform="translate(0.921875, 0.896484)">
                <path d="M26.5176164,27.4260757 L19.3345241,27.4260757 C19.0837769,27.4260757 18.8802718,27.2225706 18.8802718,26.9718234 L18.8802718,19.7887311 C18.8802718,19.5379838 19.0837769,19.3344787 19.3345241,19.3344787 L26.5176164,19.3344787 C26.7683637,19.3344787 26.9718688,19.5379838 26.9718688,19.7887311 L26.9718688,26.9718234 C26.9718688,27.2225706 26.7683637,27.4260757 26.5176164,27.4260757" id="Fill-1" fill="#00E4B0"></path>
                <path d="M7.71184201,27.4260757 L0.379754958,27.4260757 C0.169890376,27.4260757 0,27.2425577 0,27.0163401 L0,17.984895 L8.09159697,17.8681522 L8.09159697,27.0163401 C8.09159697,27.2425577 7.9217066,27.4260757 7.71184201,27.4260757" id="Fill-3" fill="#00E4B0"></path>
                <g id="Group-7" transform="translate(18.624346, 0.170981)">
                    <mask id="mask-2" fill="white">
                        <use xlink:href="#path-1"></use>
                    </mask>
                    <g id="Clip-6"></g>
                    <path d="M8.34752274,9.23449587 L0.25592577,11.0719466 L0.25592577,0.651397859 C0.25592577,0.447892809 0.425816146,0.282999209 0.635680728,0.282999209 L7.96776778,0.282999209 C8.17763237,0.282999209 8.34752274,0.447892809 8.34752274,0.651397859 L8.34752274,9.23449587 Z" id="Fill-5" fill="#00E4B0" mask="url(#mask-2)"></path>
                </g>
                <g id="Group-10" transform="translate(0.000000, 0.170981)">
                    <mask id="mask-4" fill="white">
                        <use xlink:href="#path-3"></use>
                    </mask>
                    <g id="Clip-9"></g>
                    <path d="M7.63734463,8.37477788 L0.454252342,8.37477788 C0.203505049,8.37477788 0,8.17127283 0,7.92052554 L0,0.737433252 C0,0.48668596 0.203505049,0.28318091 0.454252342,0.28318091 L7.63734463,0.28318091 C7.88809192,0.28318091 8.09159697,0.48668596 8.09159697,0.737433252 L8.09159697,7.92052554 C8.09159697,8.17127283 7.88809192,8.37477788 7.63734463,8.37477788" id="Fill-8" fill="#00E4B0" mask="url(#mask-4)"></path>
                </g>
                <path d="M19.2686576,10.0990743 L19.2686576,10.031845 L15.4066041,10.031845 L11.5654463,10.031845 L7.98412087,10.031845 C7.80423694,10.031845 7.6320753,10.1036169 7.5053389,10.2312618 L0.000181700937,17.8022856 L7.70339292,17.8022856 L11.5654463,17.8022856 L15.4066041,17.8022856 L18.9892924,17.8022856 C19.1682678,17.8022856 19.3395209,17.7314222 19.4662573,17.6046858 L26.9718688,10.0990743 L19.2686576,10.0990743 Z" id="Fill-11" fill="#00E4B0"></path>
                <polygon id="Fill-13" fill="#337969" points="0.00199871031 18.3024628 0.000181700937 17.802331 8.09177867 17.802331 8.09177867 19.2754713"></polygon>
                <polygon id="Fill-15" fill="#337969" points="18.8823159 9.59912422 18.8804989 10.0992561 26.9720959 10.0992561 26.9720959 8.62566145"></polygon>
                <path d="M61.593983,18.1303466 C61.593983,17.9023119 61.405014,17.7192482 61.1769793,17.7269705 L60.1726274,17.7614937 C59.1046801,17.7932914 58.3097385,17.9863486 57.7873483,18.3393027 C57.2654124,18.692711 57.0042173,19.231 57.0042173,19.9537155 C57.0042173,20.9898651 57.5983793,21.5077128 58.7871577,21.5077128 C59.6379724,21.5077128 60.3188966,21.2628708 60.8285678,20.7727325 C61.3386931,20.2830485 61.593983,19.6325591 61.593983,18.8212644 L61.593983,18.1303466 Z M62.9540145,23.9529531 C62.7877581,23.9529531 62.6383091,23.8507464 62.5778935,23.6953921 L61.9669241,22.1223162 L61.8710769,22.1223162 C61.2523852,22.9009047 60.6164319,23.4410107 59.9618543,23.74218 C59.3068224,24.0433494 58.4537365,24.1941611 57.4016881,24.1941611 C56.1088859,24.1941611 55.0913607,23.824854 54.3482038,23.0857854 C53.605047,22.3467169 53.2339228,21.2946684 53.2339228,19.9296401 C53.2339228,18.500108 53.7336004,17.4462426 54.7334098,16.7675896 C55.7336735,16.0889366 57.241337,15.7132699 59.2568546,15.6410438 L61.2033259,15.5810825 C61.4209128,15.5742687 61.593983,15.3952933 61.593983,15.1777064 L61.593983,14.9787439 C61.593983,13.6132613 60.8953428,12.93052 59.4980626,12.93052 C58.5100638,12.93052 57.3630766,13.2048885 56.0575554,13.753171 C55.8590471,13.8362992 55.6291954,13.7549881 55.5342567,13.5619308 L54.6639092,11.7867127 C54.5657907,11.5868416 54.6461934,11.3401826 54.8469729,11.2447896 C56.3023974,10.5538718 57.9004572,10.2081858 59.6425149,10.2081858 C61.4495307,10.2081858 62.8345461,10.6015683 63.7989238,11.3887876 C64.762393,12.1760069 65.2443548,13.3725076 65.2443548,14.9787439 L65.2443548,23.5495771 C65.2443548,23.7721607 65.0635623,23.9529531 64.8405244,23.9529531 L62.9540145,23.9529531 Z" id="Fill-17" fill="#585C62"></path>
                <path d="M80.1069917,23.9530894 L77.239751,23.9530894 C77.0167131,23.9530894 76.8363749,23.772297 76.8363749,23.5497133 L76.8363749,16.0868016 C76.8363749,15.1151558 76.663759,14.3860808 76.3180729,13.9004851 C75.9728412,13.4144351 75.4222873,13.1718643 74.6682284,13.1718643 C73.6398011,13.1718643 72.8970986,13.5148248 72.4396664,14.2016544 C71.9817801,14.8880297 71.7528369,16.026386 71.7528369,17.6167235 L71.7528369,23.5497133 C71.7528369,23.772297 71.5724987,23.9530894 71.3494608,23.9530894 L68.48222,23.9530894 C68.2596364,23.9530894 68.078844,23.772297 68.078844,23.5497133 L68.078844,10.888792 C68.078844,10.6662084 68.2596364,10.485416 68.48222,10.485416 L70.5817744,10.485416 C70.7616583,10.485416 70.9197381,10.6044301 70.9697059,10.7775002 L71.3794415,12.2079408 L71.5843093,12.2079408 C71.9940449,11.5574515 72.5577721,11.0654962 73.2768535,10.732075 C73.9954807,10.399108 74.8131349,10.2319432 75.7279992,10.2319432 C77.2942612,10.2319432 78.4825854,10.6562148 79.29388,11.5033955 C80.1051747,12.3505761 80.5108221,13.5729691 80.5108221,15.1710289 L80.5108221,23.5497133 C80.5108221,23.772297 80.3295754,23.9530894 80.1069917,23.9530894" id="Fill-19" fill="#585C62"></path>
                <path d="M98.9908521,17.1949956 C98.9908521,18.5282262 99.2093475,19.5362122 99.647701,20.2184992 C100.085146,20.9016947 100.798322,21.2428382 101.785413,21.2428382 C102.765689,21.2428382 103.470234,20.9035117 103.899957,20.2248587 C104.329226,19.5462057 104.544541,18.5364028 104.544541,17.1949956 C104.544541,15.8622192 104.327863,14.8619556 103.894052,14.1955674 C103.460241,13.5291792 102.749336,13.195758 101.761791,13.195758 C100.781515,13.195758 100.075607,13.5269079 99.6417957,14.1896621 C99.208439,14.851962 98.9908521,15.8540427 98.9908521,17.1949956 M108.303025,17.1949956 C108.303025,19.3876717 107.724762,21.1024743 106.568235,22.3389491 C105.411709,23.575424 103.801384,24.1941157 101.737716,24.1941157 C100.44446,24.1941157 99.3042862,23.9111165 98.3167417,23.3446638 C97.3287428,22.7786654 96.5696871,21.9655537 96.0400289,20.9053287 C95.5094622,19.8451038 95.2446331,18.6086289 95.2446331,17.1949956 C95.2446331,14.9945973 95.8192623,13.2843372 96.9676122,12.0633069 C98.1155079,10.8427309 99.7299207,10.2322157 101.809942,10.2322157 C103.103199,10.2322157 104.243372,10.5133979 105.231371,11.0753081 C106.218915,11.6376725 106.977971,12.4448789 107.507629,13.4969273 C108.037742,14.5489757 108.303025,15.7818166 108.303025,17.1949956" id="Fill-21" fill="#585C62"></path>
                <path d="M49.5177299,11.5090736 C48.6982586,10.6578047 47.4976697,10.2321703 45.915963,10.2321703 C44.1330226,10.2321703 42.8320439,10.8908362 42.0130269,12.208168 L41.924902,12.2108935 L41.9044606,11.1234134 C41.9603336,10.0232142 41.9889515,7.3058767 41.9889515,7.00879566 C41.9889515,7.00879566 41.980775,4.73162867 41.9721442,3.8353888 C41.9707814,3.70093011 41.8086134,3.63642628 41.7136746,3.73136502 L38.3926357,7.05240389 C38.342668,7.10237165 38.3145043,7.17005525 38.3145043,7.24091861 L38.3145043,23.5494862 C38.3145043,23.7725241 38.4952968,23.9533165 38.7183347,23.9533165 L41.5855755,23.9533165 C41.8081591,23.9533165 41.9889515,23.7725241 41.9889515,23.5494862 L41.9889515,17.6164964 C41.9889515,16.0506885 42.2178947,14.9182374 42.6753268,14.2195973 C43.1332132,13.5209572 43.8759158,13.1716372 44.9038888,13.1716372 C46.3493198,13.1716372 47.0720352,14.143283 47.0720352,16.0865745 L47.0720352,23.5494862 C47.0720352,23.7725241 47.2528277,23.9533165 47.4754113,23.9533165 L50.3426521,23.9533165 C50.56569,23.9533165 50.7464824,23.7725241 50.7464824,23.5494862 L50.7464824,15.171256 C50.7464824,13.5813728 50.3372011,12.3607968 49.5177299,11.5090736" id="Fill-24" fill="#585C62"></path>
                <path d="M93.1321325,24.1054911 L83.5283295,24.1054911 C83.2280687,24.1054911 82.9850437,23.8620118 82.9850437,23.561751 L82.9850437,21.9873124 C82.9850437,21.8751121 83.0195669,21.7660915 83.0840707,21.6743325 L88.3234173,14.2332249 C88.5768901,13.8734571 88.319329,13.376505 87.8791585,13.376505 L83.6691478,13.376505 C83.3693412,13.376505 83.125862,13.13348 83.125862,12.8332192 L83.125862,10.9258136 C83.125862,10.6260071 83.3693412,10.3825278 83.6691478,10.3825278 L92.9822293,10.3825278 C93.2824901,10.3825278 93.5255151,10.6260071 93.5255151,10.9258136 L93.5255151,12.4916214 C93.5255151,12.6033675 93.4909919,12.7128423 93.4264881,12.804147 L88.1866873,20.254794 C87.9336687,20.6150161 88.1907756,21.1110596 88.6314003,21.1110596 L93.1321325,21.1110596 C93.4323933,21.1110596 93.6758726,21.3545389 93.6758726,21.6547997 L93.6758726,23.561751 C93.6758726,23.8620118 93.4323933,24.1054911 93.1321325,24.1054911" id="Fill-26" fill="#585C62"></path>
            </g>
        </g>
    </g>
</svg>