<?xml version="1.0" encoding="UTF-8"?>
<svg width="780px" height="200px" viewBox="0 0 780 200" version="1.1" xmlns="http://www.w3.org/2000/svg" xmlns:xlink="http://www.w3.org/1999/xlink">
    <!-- Generator: Sketch 50 (54983) - http://www.bohemiancoding.com/sketch -->
    <title>Group 3</title>
    <desc>Created with Sketch.</desc>
    <defs></defs>
    <g id="Page-1" stroke="none" stroke-width="1" fill="none" fill-rule="evenodd">
        <g id="Hanzo-Rounded-(White)" transform="translate(-164.000000, -185.000000)">
            <g id="Group-3" transform="translate(164.000000, 185.000000)">
                <g id="Group-2" transform="translate(280.000000, 25.000000)" fill="#FFFFFF" fill-rule="nonzero">
                    <path d="M163.165658,106.210042 C163.165658,104.563285 161.828291,103.241287 160.214448,103.297054 L153.106468,103.546364 C145.548411,103.775992 139.922466,105.170158 136.225416,107.719023 C132.531581,110.271168 130.683056,114.158433 130.683056,119.377537 C130.683056,126.860112 134.888048,130.59976 143.301248,130.59976 C149.322618,130.59976 154.141641,128.831629 157.748677,125.292085 C161.358926,121.755822 163.165658,117.0583 163.165658,111.199519 L163.165658,106.210042 Z M172.790847,148.258112 C171.614221,148.258112 170.556543,147.520024 170.128971,146.39813 L165.80503,135.038131 L165.126702,135.038131 C160.748109,140.660723 156.247352,144.561109 151.614788,146.736009 C146.979009,148.91091 140.941566,150 133.496029,150 C124.346634,150 117.145424,147.333041 111.885968,141.995843 C106.626513,136.658645 104,129.061256 104,119.203676 C104,108.880282 107.536309,101.269772 114.612141,96.3688656 C121.691188,91.4679594 132.361195,88.7550748 146.625378,88.2334926 L160.400907,87.8004808 C161.940809,87.7512749 163.165658,86.4588004 163.165658,84.8874923 L163.165658,83.4506806 C163.165658,73.5898207 158.221255,68.6593908 148.332451,68.6593908 C141.340204,68.6593908 133.222768,70.6407484 123.983359,74.6001814 C122.57848,75.2004934 120.951778,74.6133037 120.279879,73.2191365 L114.120272,60.3993635 C113.42587,58.9559904 113.994895,57.1747375 115.415847,56.485855 C125.71615,51.4963784 137.025908,49 149.354766,49 C162.143343,49 171.945348,51.8408196 178.770423,57.5257395 C185.589069,63.2106594 189,71.8512131 189,83.4506806 L189,145.345124 C189,146.952516 187.720499,148.258112 186.142019,148.258112 L172.790847,148.258112 Z" id="Fill-17"></path>
                    <path d="M298.141479,148 L277.845659,148 C276.266881,148 274.990354,146.695557 274.990354,145.089585 L274.990354,91.243627 C274.990354,84.2330658 273.768489,78.9726872 271.321543,75.4690459 C268.877813,71.9621267 264.980707,70.2119443 259.643086,70.2119443 C252.363344,70.2119443 247.106109,72.6864526 243.868167,77.6420247 C240.627009,82.5943191 239.006431,90.8077199 239.006431,102.282229 L239.006431,145.089585 C239.006431,146.695557 237.729903,148 236.151125,148 L215.855305,148 C214.279743,148 213,146.695557 213,145.089585 L213,53.7392565 C213,52.1332845 214.279743,50.8288419 215.855305,50.8288419 L230.717042,50.8288419 C231.990353,50.8288419 233.109324,51.6875454 233.463022,52.9362705 L236.363344,63.2571006 L237.813505,63.2571006 C240.713826,58.5637288 244.70418,55.0142022 249.794212,52.6085213 C254.881029,50.2061175 260.66881,49 267.144695,49 C278.231511,49 286.643087,52.0611793 292.385852,58.1737072 C298.128617,64.2862344 301,73.1059719 301,84.6361981 L301,145.089585 C301,146.695557 299.717042,148 298.141479,148" id="Fill-19"></path>
                    <path d="M432.966918,98.8698594 C432.966918,108.418922 434.539743,115.63847 437.695203,120.525247 C440.844123,125.418532 445.977875,127.861921 453.083386,127.861921 C460.13984,127.861921 465.211463,125.431546 468.304796,120.570796 C471.394862,115.710047 472.944793,108.477486 472.944793,98.8698594 C472.944793,89.3240497 471.38505,82.1598128 468.262289,77.3869079 C465.139529,72.6140031 460.022124,70.2259241 452.913345,70.2259241 C445.856891,70.2259241 440.775457,72.5977353 437.652694,77.3446121 C434.533204,82.0882351 432.966918,89.2654868 432.966918,98.8698594 M500,98.8698594 C500,114.574571 495.837411,126.856585 487.512225,135.712649 C479.187046,144.568714 467.595225,149 452.740043,149 C443.430622,149 435.223154,146.973061 428.114378,142.915929 C421.002331,138.862051 415.538317,133.038261 411.725606,125.44456 C407.906355,117.850859 406,108.994794 406,98.8698594 C406,83.1098389 410.136432,70.8603593 418.402755,62.1149142 C426.665809,53.3727229 438.287056,49 453.259957,49 C462.569385,49 470.776847,51.013925 477.888895,55.038522 C484.997667,59.0663721 490.461683,64.847866 494.274393,72.3830037 C498.090377,79.9181415 500,88.7481783 500,98.8698594" id="Fill-21"></path>
                    <path d="M79.3022514,56.740094 C73.5016078,50.5657167 65.0032158,47.4785284 53.807074,47.4785284 C41.1864955,47.4785284 31.9774924,52.2559281 26.1800645,61.8107275 L25.5562707,61.830496 L25.4115758,53.9428444 C25.807074,45.9629394 26.0096463,26.2536948 26.0096463,24.0989227 C26.0096463,24.0989227 25.9517688,7.58229895 25.8906755,1.08174066 C25.8810289,0.106492197 24.7331196,-0.361363475 24.0610934,0.327241031 L0.553054642,24.4152196 C0.199357301,24.777643 0,25.268562 0,25.7825443 L0,144.07096 C0,145.688686 1.27974325,147 2.85852138,147 L23.1543414,147 C24.7299038,147 26.0096463,145.688686 26.0096463,144.07096 L26.0096463,101.038121 C26.0096463,89.6810883 27.6302252,81.4672555 30.8681673,76.3999171 C34.1093251,71.3325788 39.36656,68.7989099 46.643087,68.7989099 C56.8745986,68.7989099 61.9903537,75.8463984 61.9903537,89.9413747 L61.9903537,144.07096 C61.9903537,145.688686 63.2700969,147 64.8456593,147 L85.1414793,147 C86.7202575,147 88,145.688686 88,144.07096 L88,83.3024363 C88,71.7707819 85.1028943,62.9177664 79.3022514,56.740094" id="Fill-24"></path>
                    <path d="M390.134608,149 L321.862163,149 C319.72764,149 318,147.243495 318,145.077358 L318,133.719066 C318,132.909633 318.245422,132.123138 318.703973,131.461171 L355.949947,77.7796424 C357.751859,75.1842108 355.920884,71.5991063 352.791757,71.5991063 L322.863225,71.5991063 C320.731931,71.5991063 319.001063,69.8458789 319.001063,67.6797419 L319.001063,53.9193644 C319.001063,51.7565048 320.731931,50 322.863225,50 L389.068961,50 C391.203484,50 392.931124,51.7565048 392.931124,53.9193644 L392.931124,65.215392 C392.931124,66.0215491 392.685702,66.8113206 392.227151,67.4700096 L354.977948,121.220358 C353.179265,123.819067 355.007011,127.397616 358.139367,127.397616 L390.134608,127.397616 C392.269131,127.397616 394,129.154121 394,131.320258 L394,145.077358 C394,147.243495 392.269131,149 390.134608,149" id="Fill-26"></path>
                </g>
                <g id="Group">
                    <path d="M-3.55271368e-15,130 L60,130 L60,195 C60,197.761424 57.7614237,200 55,200 L5,200 C2.23857625,200 -4.10271522e-15,197.761424 -4.4408921e-15,195 L-3.55271368e-15,130 Z" id="Rectangle-8" fill="#05F3B8"></path>
                    <path d="M140,0.230769231 L200,0.230769231 L200,64.6752137 C200,67.7434623 197.417027,70.2307692 194.230769,70.2307692 L145.769231,70.2307692 C142.582973,70.2307692 140,67.7434623 140,64.6752137 L140,0.230769231 Z" id="Rectangle-8" fill="#05F3B8" transform="translate(170.000000, 35.230769) scale(1, -1) translate(-170.000000, -35.230769) "></path>
                    <path d="M142.818071,70 L114.192505,70 L85.7218178,70 L59.17701,70 C57.8437091,70 56.5676459,70.5541917 55.6282749,71.5398108 L0,130 L57.0962526,130 L85.7218178,130 L114.192505,130 L137.924906,130 C141.559078,130 142.818071,130 144.773121,127.642155 L200,70 L142.818071,70 Z" id="Fill-11-Copy" fill="#05F3B8" fill-rule="nonzero"></path>
                    <rect id="Rectangle-8" fill="#05F3B8" x="0" y="0" width="60" height="60" rx="5"></rect>
                    <polygon id="Fill-13-Copy-2" fill-opacity="0.42" fill="#666666" fill-rule="nonzero" transform="translate(170.000000, 65.000000) scale(-1, -1) translate(-170.000000, -65.000000) " points="140.013473 63.3950045 140 60 200 60 200 70"></polygon>
                    <polygon id="Fill-13-Copy-2" fill-opacity="0.42" fill="#666666" fill-rule="nonzero" points="0.013473306 133.395005 0 130 60 130 60 140"></polygon>
                    <path d="M145.840986,140 L195,140 C197.761424,140 200,142.238576 200,145 L200,195 C200,197.761424 197.761424,200 195,200 L144.999269,200 C142.237846,200 139.999269,197.761424 139.999269,195 C139.999269,194.971945 139.999505,194.943891 139.999978,194.91584 L140.841694,144.91584 C140.887622,142.187614 143.112373,140 145.840986,140 Z" id="Rectangle-8" fill="#05F3B8"></path>
                </g>
            </g>
        </g>
    </g>
</svg>