<svg xmlns="http://www.w3.org/2000/svg" viewBox="0 0 590.6 562.13"><defs><style>.cls-1,.cls-2,.cls-3{fill:#9ba9bb;}.cls-2{fill-rule:evenodd;}.cls-3{opacity:0.83;}.cls-4{fill:#b8f3ff;opacity:0.37;}</style></defs><title>Asset 7</title><g id="Layer_2" data-name="Layer 2"><g id="Layer_1-2" data-name="Layer 1"><path class="cls-1" d="M171.19,123.56l1.82-1.94a1.3,1.3,0,0,1,1.19-.44,1.34,1.34,0,0,1,.82,2.2l-1.65,1.75,1.32,2.34a1.11,1.11,0,0,1,.14.77,1.29,1.29,0,0,1-.53.89,1.3,1.3,0,0,1-1,.26,1.14,1.14,0,0,1-.87-.53L170.8,126l-.21,1.4a1.78,1.78,0,0,1-.34.9,1.36,1.36,0,0,1-2.13-.15,1.89,1.89,0,0,1-.15-1.17l.79-5.15a1.61,1.61,0,0,1,.5-1,1.26,1.26,0,0,1,1.06-.28,1.33,1.33,0,0,1,.93.59,1,1,0,0,1,.21.52,2.64,2.64,0,0,1-.06.58l-.2,1.29Zm7.58,0-.76,5a1.63,1.63,0,0,1-.5,1,1.19,1.19,0,0,1-1.06.31,1.27,1.27,0,0,1-.91-.58,1.6,1.6,0,0,1-.17-1.15l.76-5a1.75,1.75,0,0,1,.53-1.16,1.28,1.28,0,0,1,1.06-.28,1.26,1.26,0,0,1,.91.57A1.83,1.83,0,0,1,178.77,123.56Zm5-1.07a4.3,4.3,0,0,1,2.55,1.39,2.17,2.17,0,0,1,.71,1.76,1.29,1.29,0,0,1-.76,1,1.23,1.23,0,0,1-.76.11,1.28,1.28,0,0,1-.6-.25,5.62,5.62,0,0,1-.51-.68,1.5,1.5,0,0,0-1.06-.67,1.53,1.53,0,0,0-1.17.28,1.63,1.63,0,0,0-.34,2.23,1.47,1.47,0,0,0,1,.62,1.61,1.61,0,0,0,1.06-.22l.66-.47a1.19,1.19,0,0,1,.82-.15,1.39,1.39,0,0,1,.89.52,1.24,1.24,0,0,1,.26,1,2.09,2.09,0,0,1-1.1,1.36,4.13,4.13,0,0,1-3,.63,4.34,4.34,0,0,1-1.8-.7,4.29,4.29,0,0,1-1.51-1.82,4.27,4.27,0,0,1,1.51-5.24A4.25,4.25,0,0,1,183.82,122.5Zm6.34,4,1.82-1.94a1.3,1.3,0,0,1,1.19-.44,1.34,1.34,0,0,1,.82,2.2L192.35,128l1.32,2.34a1.11,1.11,0,0,1,.14.77,1.29,1.29,0,0,1-.53.89,1.3,1.3,0,0,1-1,.26,1.14,1.14,0,0,1-.87-.53l-1.63-2.82-.21,1.4a1.78,1.78,0,0,1-.34.9,1.36,1.36,0,0,1-2.13-.15,1.69,1.69,0,0,1-.18-1.12l.79-5.19a1.61,1.61,0,0,1,.5-1,1.4,1.4,0,0,1,2,.31,1,1,0,0,1,.21.52,2.64,2.64,0,0,1-.06.58Zm5.57,3.18a1.58,1.58,0,0,1,.89.53c.37.39.62.59.78.61a.31.31,0,0,0,.4-.3.39.39,0,0,0-.15-.36,11.28,11.28,0,0,0-1.12-.63,2.34,2.34,0,0,1-1.41-2.58,2.42,2.42,0,0,1,1.24-1.86,3.31,3.31,0,0,1,2.13-.33,3.35,3.35,0,0,1,1.74.77,1.5,1.5,0,0,1,.58,1.41,1.13,1.13,0,0,1-.42.75,1,1,0,0,1-.81.19,1.87,1.87,0,0,1-1-.63,1.21,1.21,0,0,0-.51-.38.29.29,0,0,0-.37.26c0,.2.2.43.72.67a4.91,4.91,0,0,1,1.57,1.11,2.32,2.32,0,0,1,.52,2,2.54,2.54,0,0,1-1.21,1.92,3.33,3.33,0,0,1-2.29.35,3.45,3.45,0,0,1-2.12-1.05,1.73,1.73,0,0,1-.51-1.44,1.16,1.16,0,0,1,.47-.8,1.29,1.29,0,0,1,.92-.21Zm7.47-1.44-.7-.11a1.51,1.51,0,0,1-.91-.46,1.17,1.17,0,0,1-.26-1,1.23,1.23,0,0,1,.29-.62,1.08,1.08,0,0,1,.56-.37,4.48,4.48,0,0,1,1.46.08l2.67.41a4.2,4.2,0,0,1,1.25.32,1,1,0,0,1,.44.53,1.35,1.35,0,0,1,.1.7,1.23,1.23,0,0,1-.58.88,1.51,1.51,0,0,1-1.07.14l-.6-.09-.61,4a2,2,0,0,1-.37,1,1.22,1.22,0,0,1-1.18.44,1.3,1.3,0,0,1-1-.71,1.88,1.88,0,0,1-.09-1.08Zm5.74,5.51a2.18,2.18,0,0,1-.49.61,1.27,1.27,0,0,1-1,.28,1.25,1.25,0,0,1-1-.72,1.31,1.31,0,0,1-.12-.8,1.67,1.67,0,0,1,.28-.67l3.33-5a1.26,1.26,0,0,1,1.34-.59,1.29,1.29,0,0,1,1.12,1l1.72,5.77a1.43,1.43,0,0,1,.06.66,1.32,1.32,0,0,1-.44.79,1.34,1.34,0,0,1-1.9-.12,2.59,2.59,0,0,1-.39-.85l-2.46-.38v0Zm11.32-.38.47,1.1a1.63,1.63,0,0,1,.13.89,1.23,1.23,0,0,1-.53.87,1.34,1.34,0,0,1-1,.23,1.21,1.21,0,0,1-1-.77l-.82-2-.17,1.09a1.34,1.34,0,0,1-.52.89,1.23,1.23,0,0,1-1,.25,1.19,1.19,0,0,1-1-.65,1.83,1.83,0,0,1-.14-1.18l.76-4.94c.16-1,.77-1.44,1.88-1.27l1.69.26a2.64,2.64,0,0,1,1.46.72,2.81,2.81,0,0,1,.85,1.4,2.89,2.89,0,0,1,.07,1.2A3.05,3.05,0,0,1,220.27,133.33Zm3.52-2-.7-.11a1.51,1.51,0,0,1-.91-.46,1.17,1.17,0,0,1-.26-1,1.23,1.23,0,0,1,.29-.62,1.08,1.08,0,0,1,.56-.37,4.48,4.48,0,0,1,1.46.08l2.67.41a4.2,4.2,0,0,1,1.25.32,1,1,0,0,1,.44.53,1.35,1.35,0,0,1,.1.7,1.23,1.23,0,0,1-.58.88,1.51,1.51,0,0,1-1.07.14l-.6-.09-.61,4a2,2,0,0,1-.37,1,1.22,1.22,0,0,1-1.18.44,1.3,1.3,0,0,1-1-.71,1.88,1.88,0,0,1-.09-1.08Zm7.37,4.28,1.21.18a1.76,1.76,0,0,1,1.07.48,1.23,1.23,0,0,1,.29,1,1.16,1.16,0,0,1-.58.88,1.73,1.73,0,0,1-1.14.11L230,138a3.07,3.07,0,0,1-1-.26,1.15,1.15,0,0,1-.59-.82,3.42,3.42,0,0,1,.05-1.06l.67-4.37a6.45,6.45,0,0,1,.14-.72,1.29,1.29,0,0,1,.41-.6,1.36,1.36,0,0,1,.77-.28,5.38,5.38,0,0,1,.84.1l1.58.24a7.5,7.5,0,0,1,.76.13,1.41,1.41,0,0,1,.66.35,1.14,1.14,0,0,1,.34,1,1.22,1.22,0,0,1-.57.91,1.59,1.59,0,0,1-1.07.14l-1.3-.2-.08.54,1,.16a1.13,1.13,0,0,1,.72.36.85.85,0,0,1,.2.76c-.1.64-.53.9-1.31.78l-.95-.14-.09.6Zm8.61.68.47,1.1a1.63,1.63,0,0,1,.13.89,1.23,1.23,0,0,1-.53.87,1.34,1.34,0,0,1-1,.23,1.21,1.21,0,0,1-1-.77l-.82-2-.17,1.09a1.34,1.34,0,0,1-.52.89,1.23,1.23,0,0,1-1,.25,1.19,1.19,0,0,1-1-.65,1.83,1.83,0,0,1-.14-1.18l.76-4.94c.16-1,.77-1.44,1.88-1.27l1.69.26a2.64,2.64,0,0,1,1.46.72,2.81,2.81,0,0,1,.85,1.4,2.89,2.89,0,0,1,.07,1.2,3.05,3.05,0,0,1-1.18,1.91Z"/><path class="cls-1" d="M209.87,219.39l-3.4-16.78,16.81-3.41,2,9.65-1.07.22-1.74-8.57-14.64,3,3,14.62,14.64-3-.21-1,1.05-.21.42,2.1Z"/><path class="cls-1" d="M215.25,213.61l.38,1.88-1,.2-.8-4c.32-.07.64-.15,1-.18a.46.46,0,0,1,.32.15c.39.42.76.85,1.22,1.36l-.35-1.73,1.06-.21.8,4a7.9,7.9,0,0,1-.87.16c-.1,0-.22-.11-.3-.19-.45-.48-.89-1-1.33-1.46Z"/><path class="cls-1" d="M218.39,215l-.82-4.06c.74-.11,1.46-.24,2.19-.31a1.08,1.08,0,0,1,1.07.7,4.28,4.28,0,0,1,.41,2,1.13,1.13,0,0,1-.83,1.11C219.76,214.67,219.09,214.81,218.39,215Zm.87-1.22c.78-.08,1-.3.84-1,0-.14-.05-.28-.08-.42-.16-.72-.45-.86-1.16-.58Z"/><path class="cls-1" d="M240.53,208.4l0,.19c.33,1.76-.81,2.29-2.14,2.23a1.23,1.23,0,0,1-1-.72A3.7,3.7,0,0,1,237,208a1.25,1.25,0,0,1,.82-1.14,3.78,3.78,0,0,1,1.09-.25,1.35,1.35,0,0,1,1.4.9c.11.27.19.56.29.85Zm-2.4.51c0,.17.09.35.15.52a.58.58,0,0,0,.7.4.54.54,0,0,0,.51-.62,5.6,5.6,0,0,0-.21-1.06.55.55,0,0,0-.75-.4.58.58,0,0,0-.46.7C238.08,208.6,238.11,208.75,238.13,208.91Z"/><path class="cls-1" d="M229.6,210.58l0-.15a1.71,1.71,0,0,1,1.83-2.28,1.39,1.39,0,0,1,1.41.84,3.89,3.89,0,0,1,.37,1.89,1.29,1.29,0,0,1-.86,1.23,3.82,3.82,0,0,1-1.13.23,1.31,1.31,0,0,1-1.31-.87,9.29,9.29,0,0,1-.3-.88Zm2.4-.4c0-.19-.07-.34-.12-.49a.57.57,0,0,0-.71-.44c-.36.06-.57.27-.53.64a7.31,7.31,0,0,0,.21,1.05.54.54,0,0,0,.7.4.57.57,0,0,0,.52-.62A4.55,4.55,0,0,0,232,210.18Z"/><path class="cls-1" d="M236.18,207.48l-.38,1a6.57,6.57,0,0,0-.75,0c-.41.06-.59.26-.55.66a5.1,5.1,0,0,0,.23,1.1.6.6,0,0,0,1,.26c.12-.12.1-.38.16-.65l-.76.1-.06-.86,1.53-.31.49,2.43c-.63.13-1.24.27-1.85.37a1.18,1.18,0,0,1-1.41-.78,8.21,8.21,0,0,1-.4-2,1.18,1.18,0,0,1,.81-1.21A2.73,2.73,0,0,1,236.18,207.48Z"/><path class="cls-1" d="M228.31,211.35l-.65.09-.06-.87,1.53-.31.49,2.41a20.37,20.37,0,0,1-2,.4,1.2,1.2,0,0,1-1.29-.92,7.75,7.75,0,0,1-.34-1.7,1.27,1.27,0,0,1,.85-1.35,2.65,2.65,0,0,1,2-.12l-.37,1c-.27,0-.53,0-.78,0a.53.53,0,0,0-.52.64,6.33,6.33,0,0,0,.24,1.13c.12.38.42.47.82.33S228.41,211.66,228.31,211.35Z"/><path class="cls-1" d="M225.22,211c.12.95.12.95-.69,1.13l-.24.07.11.54,1.55-.31.2,1-2.61.53-.8-3.94,2.61-.53.19.92-1.56.32.11.54Z"/><path class="cls-1" d="M223,214l-1,.21-.8-4,1-.21Z"/><path class="cls-1" d="M212.26,212.07l1-.21.8,3.94-1,.21Z"/><path class="cls-1" d="M241.58,209.93c-.17.14-.26.28-.36.29s-.19-.13-.28-.21c.09-.1.16-.24.27-.29S241.39,209.83,241.58,209.93Z"/><g id="Stripe"><path class="cls-2" d="M213.67,293c-1.38-2.92-3.88-4.56-6.59-3.29s-3.28,4.37-1.91,7.27c1.62,3.44,4.39,4.26,7.17,3a7.07,7.07,0,0,0,2.81-2.23l-1.08-2.3a6.66,6.66,0,0,1-2.51,2c-1.11.52-2.28.59-3-.69l5.59-2.63C214.06,293.89,213.8,293.28,213.67,293Zm-6.16,1.58a1.76,1.76,0,0,1,.65-2.53c.7-.33,1.7-.14,2.3,1.14Z"/><path class="cls-2" d="M198.3,293.86a3.53,3.53,0,0,0-1.81,1.95l-.48-.64-2.51,1.18,6.28,13.32,2.57-2-1.52-3.23a3.54,3.54,0,0,0,2.36-.23c2-1,3.13-3.49,1.43-7.11C203,293.83,200.31,292.91,198.3,293.86Zm3,8.2a1.89,1.89,0,0,1-1.6.09l-2-4.23a1.9,1.9,0,0,1,1.1-1.21c1-.49,2.31.34,3,1.83S202.39,301.56,201.33,302.05Z"/><polygon class="cls-2" points="189.15 297.34 191.73 295.38 190.63 293.06 188.05 295.01 189.15 297.34"/><rect class="cls-1" x="191.77" y="297.01" width="3.17" height="11.06" transform="translate(-110.52 111.29) rotate(-25.23)"/><path class="cls-2" d="M186.89,300.5l-.58-.76-2.47,1.16,4.71,10,2.85-1.34-3.2-6.78a2.24,2.24,0,0,1,1.89-1.62l-1.24-2.62A2.15,2.15,0,0,0,186.89,300.5Z"/><path class="cls-2" d="M179.6,299.87l-2.51,1.91,4.3,9.16a3.18,3.18,0,0,0,4.35,1.54,4.87,4.87,0,0,0,1.82-1.32l-1.09-2.32c-.3.32-1.85,1.69-2.64,0l-1.91-4.06,2.17-1-1.15-2.43-2.17,1Z"/><path class="cls-2" d="M174.41,308.9c-.21-.45.08-.79.68-1.08a7.07,7.07,0,0,1,3.18-.6L177,304.53a8.34,8.34,0,0,0-3.08.81c-2.31,1.09-3.29,3-2.34,5,1.49,3.16,5.59.6,6.23,2,.25.53-.13.91-.77,1.21a8,8,0,0,1-3.55.56l1.28,2.72a8.75,8.75,0,0,0,3.43-.82c2.37-1.12,3.46-3.06,2.49-5.12C179.09,307.52,175,310.18,174.41,308.9Z"/></g><path class="cls-3" d="M115.75,230.78l-2.19-.67c-.42-.13-.48-.26-.29-.66.44-.91.88-1.82,1.33-2.74l3.16-6.51c.23-.47.44-.57.94-.42l3.54,1.08a6,6,0,0,1,2,1,2.37,2.37,0,0,1,.7,2.94c0,.1-.08.2-.12.3l-.25.44a3.94,3.94,0,0,1-3.94,2.16,11.46,11.46,0,0,1-2.34-.58.68.68,0,0,0-1,.44C116.81,228.62,116.28,229.7,115.75,230.78Z"/><path class="cls-1" d="M115.75,230.78c.53-1.08,1.05-2.16,1.57-3.25a.68.68,0,0,1,1-.44,11.46,11.46,0,0,0,2.34.58,3.94,3.94,0,0,0,3.94-2.16l.25-.44a1.81,1.81,0,0,1,.53,1.8,4.25,4.25,0,0,1-2,2.86,3.56,3.56,0,0,1-2.63.32c-.28-.06-.55-.14-.83-.22a.52.52,0,0,0-.72.31l-1.1,2.26c-.19.39-.37.47-.78.35l-1.78-.54c-.3-.09-.36-.22-.23-.51S115.61,231.08,115.75,230.78Z"/><path class="cls-1" d="M126.2,230.78c-.55-.17-.54-.09-.27-.63q.75-1.52,1.48-3.05c.16-.33.19-.35.54-.24s1,.29,1.46.46a1.06,1.06,0,0,1,.84,1.1,1.64,1.64,0,0,1-2.07,1.47l-.58-.17a.26.26,0,0,0-.37.15c-.11.24-.24.48-.36.72s-.17.35-.53.24ZM128,229l.25.06a.6.6,0,0,0,.75-.5c.08-.28-.05-.45-.45-.57l-.14,0a.21.21,0,0,0-.32.13c-.08.19-.18.36-.26.54S127.72,228.87,128,229Z"/><path class="cls-1" d="M136.72,234c-.64-.19-.53-.15-.29-.65.49-1,1-2,1.49-3.07.14-.28.19-.31.49-.22.5.15,1,.29,1.49.46a1.07,1.07,0,0,1,.67,1.67,1.54,1.54,0,0,1-2,.87l-.34-.1c-.33-.1-.39-.07-.53.23s-.22.43-.31.66-.24.33-.48.21Zm1.82-1.83.27.06a.6.6,0,0,0,.72-.5c.07-.28-.06-.44-.43-.57l-.19-.06a.19.19,0,0,0-.28.12c-.08.19-.18.38-.27.57S138.23,232.06,138.54,232.15Z"/><path class="cls-1" d="M131.28,232a2,2,0,0,1-.84.12,1.17,1.17,0,0,1-1.05-1.57,1.69,1.69,0,0,1,2.5-1,.83.83,0,0,1,.37.43c.1-.26.26-.24.46-.17.76.24.65.13.34.79s-.54,1.12-.81,1.67c-.15.3-.18.32-.5.22l-.31-.09C131.26,232.33,131.13,232.27,131.28,232Zm-.46-.56a.81.81,0,0,0,1-.55.57.57,0,0,0-.41-.74.84.84,0,0,0-1.05.57A.56.56,0,0,0,130.82,231.44Zm.44.55h0Z"/><path class="cls-1" d="M142.78,233.15c.07-.25.21-.27.39-.19l.12,0c.71.2.55.17.31.7s-.6,1.22-.89,1.83a.26.26,0,0,1-.36.16l-.39-.12c-.18,0-.36-.1-.2-.38a1.55,1.55,0,0,1-1.33,0,1.15,1.15,0,0,1-.55-1.42,1.71,1.71,0,0,1,2.53-1A1,1,0,0,1,142.78,233.15Zm-.43.94a.57.57,0,0,0-.41-.76.84.84,0,0,0-1,.55.56.56,0,0,0,.41.74A.81.81,0,0,0,142.35,234.1Z"/><path class="cls-1" d="M134.65,232c.46-.37.87-.69,1.28-1a.44.44,0,0,1,.5-.1c.12.05.26.08.38.12s.22,0,.23.16-.09.15-.16.21L135,232.91c-.41.33-.83.65-1.24,1a.37.37,0,0,1-.41.08c-.18-.07-.37-.11-.55-.17s-.19-.15,0-.26l.86-.66a.31.31,0,0,0,.14-.29c0-.71-.05-1.42-.08-2.13,0-.35,0-.38.34-.28.78.25.65.09.66.89C134.65,231.37,134.65,231.68,134.65,232Z"/><path class="cls-1" d="M143.55,236.05c-.46-.14-.46-.14-.25-.58.51-1.05,1-2.11,1.53-3.16.1-.21.2-.28.44-.2.63.21.63.2.34.79l-1.4,2.89C144,236.19,144,236.19,143.55,236.05Z"/><polygon class="cls-1" points="131.27 231.99 131.27 232.01 131.25 232 131.27 231.99"/><path class="cls-1" d="M121.87,178.87l-.77-2.54-.43.13-1.37.34c-.16-.44-.31-.89-.47-1.34-.07-.22-.13-.45-.2-.67s0-.39.26-.46l3.89-1.17c.28-.09.4,0,.48.27q.9,3,1.82,6a.45.45,0,0,1-.12.51,7.8,7.8,0,0,1-4.11,2.14,9.17,9.17,0,0,1-1.92.2,4.57,4.57,0,0,1-3.89-2.12,11.33,11.33,0,0,1-2-6.82,4.73,4.73,0,0,1,3-4.4,10.34,10.34,0,0,1,4.11-1c.93,0,.93,0,1,.91,0,.44,0,.89.08,1.33s-.09.37-.36.36a7.46,7.46,0,0,0-3.07.63,2.75,2.75,0,0,0-1.8,2.91,8.26,8.26,0,0,0,1.27,4.07,2.56,2.56,0,0,0,3.23,1.19c.39-.12.76-.27,1.14-.42A1.2,1.2,0,0,0,121.87,178.87Z"/><path class="cls-1" d="M138.07,168l3.72-1.12-.09-.31-1.22-4c-.11-.37-.1-.4.28-.51l2-.59c.35-.1.41-.08.51.26q1.81,6,3.62,12c.08.28,0,.41-.26.49q-1,.29-2,.61c-.27.09-.4,0-.48-.26-.47-1.62-1-3.24-1.45-4.86,0-.08-.05-.15-.09-.24l-3.7,1.11.1.34,1.43,4.74c.11.36.09.39-.26.5-.67.2-1.34.4-2,.61-.27.08-.41,0-.49-.25q-1.8-6-3.62-12c-.08-.26,0-.39.25-.47q1-.29,2.06-.62c.27-.08.38,0,.46.26.4,1.35.81,2.7,1.21,4Z"/><path class="cls-1" d="M159.39,169.6a.34.34,0,0,0,0,.08c0,.61,0,.61-.59.8-.33.1-.66.19-1,.3s-.41,0-.49-.26c-.16-.58-.34-1.14-.51-1.72l-3-10.12c-.17-.55-.17-.55.4-.72s1.24-.37,1.86-.56c.26-.08.38,0,.46.25.39,1.32.79,2.64,1.2,4l.26-.22a4.62,4.62,0,0,1,2.88-1.21,3,3,0,0,1,2.81,1.72,9.57,9.57,0,0,1,1.24,4.58c0,1.77-.89,2.76-2.81,3.2A4.64,4.64,0,0,1,159.39,169.6Zm-.57-3.91c.17.58.36,1.16.52,1.74a.34.34,0,0,0,.33.28,3.24,3.24,0,0,0,1.58-.18,1,1,0,0,0,.76-1.08,5.87,5.87,0,0,0-.14-1,5.45,5.45,0,0,0-.72-1.92,1.26,1.26,0,0,0-1.71-.53,7.87,7.87,0,0,0-1,.63.29.29,0,0,0-.11.39C158.48,164.55,158.65,165.12,158.82,165.69Z"/><path class="cls-1" d="M154.07,171.35c-.59.42-1.14.86-1.73,1.23a4.72,4.72,0,0,1-2.26.63,2.47,2.47,0,0,1-2.63-1.89c-.55-1.71-1.05-3.44-1.58-5.17-.09-.29-.17-.58-.26-.87a.25.25,0,0,1,.19-.37l2.21-.67c.29-.09.35.09.41.3l1.46,4.85a5.9,5.9,0,0,0,.23.66.84.84,0,0,0,1,.53,2.87,2.87,0,0,0,1.34-.68.45.45,0,0,0,.15-.55c-.57-1.85-1.12-3.7-1.68-5.55-.12-.39-.1-.42.29-.54l2-.61c.23-.07.36,0,.43.22q1.21,4,2.42,8.05c.07.24,0,.36-.23.42q-.63.18-1.25.38a.3.3,0,0,1-.44-.19C154.14,171.47,154.09,171.38,154.07,171.35Z"/><path class="cls-1" d="M131.95,169.06c.57-.17,1.11-.32,1.63-.5.27-.09.39,0,.46.25q.23.8.48,1.6c.08.25,0,.38-.24.45l-1.62.49c0,.12,0,.21.07.31l.91,3a1,1,0,0,0,1.36.76,6.34,6.34,0,0,0,.66-.23c.2-.08.33,0,.39.18.15.51.31,1,.44,1.52a.39.39,0,0,1-.13.34,5,5,0,0,1-2.83.85,2.45,2.45,0,0,1-2.34-1.8c-.42-1.24-.77-2.49-1.15-3.74l-.11-.38c-.39.12-.75.22-1.1.33s-.38,0-.44-.23c-.11-.43-.24-.86-.38-1.28a.29.29,0,0,1,.16-.4c.29-.16.57-.35.87-.5a.28.28,0,0,0,.17-.41c-.21-.66-.4-1.34-.61-2-.07-.21,0-.31.2-.37l2.15-.65c.21-.07.31,0,.37.2.18.62.37,1.24.56,1.86Z"/><path class="cls-1" d="M125.43,175.72l-1.18-3.92c-.1-.35-.08-.39.27-.5l2.06-.62c.24-.08.36,0,.43.23q1.2,4,2.41,8c.08.27,0,.42-.27.5l-2,.59c-.35.1-.44,0-.55-.31Z"/><path class="cls-1" d="M125.34,170.29a1.6,1.6,0,0,1-.95-3.06,1.6,1.6,0,0,1,.95,3.06Z"/><path class="cls-1" d="M283,266.51c0-.08,0-.16.06-.24.13-.4.26-.81.41-1.21a1.4,1.4,0,0,1,.26-.39.94.94,0,0,1,1.71.31c.13.36.2.74.3,1.11a4.75,4.75,0,0,0,.14.5c.14.35.43.4.66.11a1.66,1.66,0,0,0,.32-.62c.13-.56.22-1.13.32-1.69,0-.22.07-.45.11-.67a.35.35,0,0,1,.4-.3.33.33,0,0,1,.36.31c.06.45.11.9.18,1.35a6.29,6.29,0,0,0,.17.82c.06.21.15.42.42.44a.47.47,0,0,0,.48-.34,8.52,8.52,0,0,0,.43-1.23c.14-.56.2-1.13.32-1.69a.87.87,0,0,1,.29-.49c.24-.17.41-.07.46.22.11.63.21,1.26.36,1.89a2.39,2.39,0,0,1,.1-.36,7,7,0,0,1,.61-1.29.85.85,0,0,1,1.54.11c.12.2.2.42.29.6.15-.35.28-.71.45-1a1.15,1.15,0,0,1,.68-.58.92.92,0,0,1,1.24.55,12.36,12.36,0,0,1,.33,1.48,3.25,3.25,0,0,0,.08.38c.1.29.32.33.5.08a1.92,1.92,0,0,0,.31-.69c.14-.74.23-1.48.35-2.22a.68.68,0,0,1,.17-.36c.16-.16.33-.12.46.07l.61.95.14.2c.23-.44.43-.91.7-1.33a1.41,1.41,0,0,1,1.25-.69,1.68,1.68,0,0,1,1.59,1.15,1.84,1.84,0,0,1-.92,2.57,2.07,2.07,0,0,1-1.62,0c.2.42.42.8.56,1.2A10.35,10.35,0,0,1,301,267a1.08,1.08,0,0,1-.35,1,1.06,1.06,0,0,1-1.64-.16,2.72,2.72,0,0,1-.43-1.8c0-.75.14-1.49.2-2.24a.83.83,0,0,0-.08-.43c-.14-.26-.32-.51-.51-.81a8.38,8.38,0,0,1-.14.88,12.14,12.14,0,0,1-.45,1.41,1.06,1.06,0,0,1-.82.67.78.78,0,0,1-1-.58c-.08-.29-.12-.6-.18-.9a5.84,5.84,0,0,0-.18-.84.56.56,0,0,0-.34-.34.54.54,0,0,0-.43.22,1.79,1.79,0,0,0-.26.7c-.08.59-.12,1.2-.18,1.79,0,.23.05.54-.3.58s-.34-.29-.41-.5c-.2-.61-.36-1.22-.56-1.83-.07-.21-.17-.45-.45-.45a.51.51,0,0,0-.47.47c-.14.71-.25,1.42-.36,2.13,0,.15,0,.31,0,.47a.32.32,0,0,1-.36.3.44.44,0,0,1-.28-.28c-.15-.57-.26-1.16-.39-1.74l-.13-.55c0,.14,0,.23-.07.32-.15.54-.27,1.08-.48,1.6a2.32,2.32,0,0,1-.56.8.87.87,0,0,1-1.25,0,7,7,0,0,1-.62-.77c-.15.29-.3.63-.5.93a1.14,1.14,0,0,1-.94.59.75.75,0,0,1-.76-.46,11.35,11.35,0,0,1-.38-1.22c-.06-.21-.09-.43-.17-.63a.39.39,0,0,0-.67-.15,1.54,1.54,0,0,0-.33.55,6.77,6.77,0,0,0-.28,2.17c0,.11,0,.23,0,.34a.35.35,0,0,1-.34.36.36.36,0,0,1-.42-.27l-.66-2.1-.13.27a7.61,7.61,0,0,1-1.57,2.37,3.31,3.31,0,0,1-3.8.74,3.49,3.49,0,0,1-1.79-1.93,5.46,5.46,0,0,1,.89-5.9,3.26,3.26,0,0,1,2.21-1.22,1.64,1.64,0,0,1,1.86,1.82,1.07,1.07,0,0,1-.43.78,1.11,1.11,0,0,1-.41.08,2.32,2.32,0,0,1,0-.38,5.14,5.14,0,0,0,.1-.51,1,1,0,0,0-1.43-1,3,3,0,0,0-1.67,1.31,4.85,4.85,0,0,0-.58,4,3.78,3.78,0,0,0,.84,1.64,2.43,2.43,0,0,0,3.31.35,6.27,6.27,0,0,0,1.71-2.09c0-.07.07-.14.11-.21a2.72,2.72,0,0,0,.37-2.23,9.84,9.84,0,0,1-.2-3.79,4.15,4.15,0,0,1,.36-1.11,1,1,0,0,1,1.08-.62,1.06,1.06,0,0,1,.88.83,4.38,4.38,0,0,1,0,2.33,14,14,0,0,1-1.12,3.12.69.69,0,0,0,0,.57c.12.34.23.69.34,1Zm18.9-4.24a1.38,1.38,0,0,0,0-.18,1.12,1.12,0,0,0-.88-.83.92.92,0,0,0-1,.6,11.48,11.48,0,0,0-.52,1.33.27.27,0,0,0,.09.23,1.8,1.8,0,0,0,1.07.37A1.18,1.18,0,0,0,301.9,262.27Zm-19.68,1.82h.1a10.81,10.81,0,0,0,.87-3.48,3.23,3.23,0,0,0-.12-.9.46.46,0,0,0-.31-.29.5.5,0,0,0-.37.22,1.41,1.41,0,0,0-.22.58,12.29,12.29,0,0,0-.12,1.66C282.08,262.62,282.17,263.36,282.22,264.09Zm17.08.4h-.1c0,.75,0,1.49,0,2.24a1.64,1.64,0,0,0,.18.59.46.46,0,0,0,.87-.17,1.1,1.1,0,0,0,0-.29A7.67,7.67,0,0,0,299.31,264.49Z"/><path class="cls-1" d="M257.41,272c0-.41,0-.83.1-1.24.13-.85.24-1.71.45-2.54a4.19,4.19,0,0,1,.61-1.29,1.64,1.64,0,0,1,.73-.56,1.17,1.17,0,0,1,1.66.78,7.57,7.57,0,0,1,.29,1.56c.1,1,.15,2.07.24,3.1a2.34,2.34,0,0,0,.2.75.61.61,0,0,0,.86.3.76.76,0,0,0,.49-.94,2.82,2.82,0,0,1,.53-2.47,2.31,2.31,0,0,1,.41-.4,1.19,1.19,0,0,1,1.52-.06c0-.14,0-.26,0-.38a.56.56,0,0,1,.65-.51c.23,0,.27.21.27.39,0,.34,0,.68,0,1s.09.9.17,1.34a.52.52,0,0,0,.45.46.55.55,0,0,0,.6-.33,5.45,5.45,0,0,0,.39-1c.12-.55.18-1.12.28-1.67a.69.69,0,0,1,.21-.42c.31-.21.53-.09.62.28a17.2,17.2,0,0,0,.51,2c.31.85.93.92,1.52.23l.1-.12a.82.82,0,0,0,.13-1,10.51,10.51,0,0,1-.89-5.41,3.06,3.06,0,0,1,.39-1.18,1,1,0,0,1,1.85,0,4.84,4.84,0,0,1,.56,2.5,10.7,10.7,0,0,1-.82,4.26.32.32,0,0,0,.05.38.93.93,0,0,0,1.57,0c.07-.09.12-.19.2-.27s.18-.15.22-.13a.37.37,0,0,1,.19.24,1.1,1.1,0,0,1-.09.48,1.4,1.4,0,0,1-1.95.64,6.52,6.52,0,0,1-.61-.44c-1,1.75-2.6,1.62-3.4-.23a3.87,3.87,0,0,1-.13.41,7.11,7.11,0,0,1-.5,1.06,1.15,1.15,0,0,1-2,.05l-.1-.12c-.29,1.48-1.47,2.07-2.44,1.37-.11.13-.22.27-.34.39a1.29,1.29,0,0,1-2.25-.6,18.34,18.34,0,0,1-.29-2.23c-.09-.86-.17-1.72-.25-2.58a1.16,1.16,0,0,0-.07-.28.59.59,0,0,0-1.08-.22,2.41,2.41,0,0,0-.49.94c-.21.92-.38,1.84-.52,2.77s-.22,1.83-.33,2.75a1.17,1.17,0,0,1-.1.45.57.57,0,0,1-.35.25.39.39,0,0,1-.3-.22,8.76,8.76,0,0,1-.28-1.09c-.26-1.33-.49-2.66-.76-4a8.8,8.8,0,0,0-.46-1.39.63.63,0,0,0-.58-.46.66.66,0,0,0-.65.46,6.42,6.42,0,0,0-.4,1.51c-.14,1.62-.23,3.25-.33,4.88,0,.3,0,.59-.06.89a1.25,1.25,0,0,1-.05.31.48.48,0,0,1-.46.32c-.23,0-.28-.18-.31-.33-.11-.5-.2-1-.29-1.52-.3-1.65-.59-3.3-.91-4.94a3.05,3.05,0,0,0-.3-.83.75.75,0,0,0-1.36-.06,4.25,4.25,0,0,0-.35,1c0,.15,0,.31-.06.47a1.51,1.51,0,0,1-.11.27,1,1,0,0,1-.28-.15.78.78,0,0,1-.17-.32,1.89,1.89,0,0,1,1.83-2.39,1.26,1.26,0,0,1,1.09.62,4.19,4.19,0,0,1,.57,1.62c.19,1.07.35,2.15.52,3.23a.94.94,0,0,0,.11.35c0-.41,0-.83,0-1.24.08-.94.14-1.88.28-2.81a5.71,5.71,0,0,1,.44-1.36,1.34,1.34,0,0,1,.85-.77,1.23,1.23,0,0,1,1.51.56,5.2,5.2,0,0,1,.69,2c.17.93.32,1.86.47,2.79,0,.06,0,.11,0,.17Zm14.6-3.28a1.82,1.82,0,0,0,.08-.17,10,10,0,0,0,.42-4,8,8,0,0,0-.39-1.48.4.4,0,0,0-.3-.23.47.47,0,0,0-.31.26,2.33,2.33,0,0,0-.2.78,18.23,18.23,0,0,0,0,2A10.23,10.23,0,0,0,272,268.71Zm-8.3,2.84c0,.14.06.22.08.29a.59.59,0,0,0,1,.31,1.48,1.48,0,0,0,.41-.5,4,4,0,0,0,.34-1.78.37.37,0,0,0-.11-.23.73.73,0,0,0-1.13,0A2.18,2.18,0,0,0,263.71,271.54Z"/><ellipse class="cls-1" cx="287.43" cy="261.63" rx="0.55" ry="0.55" transform="translate(-55.89 79.43) rotate(-14.35)"/><path class="cls-1" d="M268.49,265.46a.56.56,0,0,1,.67.4.55.55,0,0,1-.41.66.55.55,0,0,1-.67-.39A.56.56,0,0,1,268.49,265.46Z"/><path class="cls-1" d="M303.23,263.36c.2,0,.37,0,.45.19s-.1.44-.26.45a.32.32,0,0,1-.37-.25C303,263.54,303.06,263.4,303.23,263.36Z"/><path class="cls-1" d="M306.89,169.55l.69,4.5c.36-.14.68-.29,1-.39a6.23,6.23,0,0,1,3-.28,2.06,2.06,0,0,1,1.63,1.5,12,12,0,0,1,.39,1.68c.15.92.31,1.85.38,2.78a2.9,2.9,0,0,1-2,3.33,9.8,9.8,0,0,1-2.6.61,30.22,30.22,0,0,1-3.12.14c-.13,0-.18,0-.19-.15s0-.09,0-.13q-1-6.23-1.91-12.45c0-.19,0-.29.2-.35.81-.25,1.61-.52,2.42-.79Zm1.4,9.18c.1.67.21,1.35.31,2,0,.2.11.26.31.22.4-.07.81-.1,1.2-.19a1.15,1.15,0,0,0,1.06-1.17,3.13,3.13,0,0,0,0-.62q-.19-1.19-.4-2.37a.9.9,0,0,0-.84-.78,2.75,2.75,0,0,0-1.75.52.3.3,0,0,0-.15.35C308.09,177.38,308.19,178.06,308.3,178.73Z"/><path class="cls-1" d="M336.83,179l-2.83.43-2-13.24,2.75-.9,1.3,8.49h.05l.11-.23c.59-1.36,1.19-2.73,1.78-4.1a.42.42,0,0,1,.37-.29c.85-.12,1.69-.25,2.53-.38l.26,0c0,.1-.06.18-.09.25-.64,1.48-1.28,3-1.94,4.44a.46.46,0,0,0,.09.57c1.09,1.31,2.18,2.62,3.26,3.93l.13.18-1,.15c-.59.09-1.19.17-1.78.28a.41.41,0,0,1-.45-.18l-3-3.61a.39.39,0,0,0-.19-.13Z"/><path class="cls-1" d="M304.58,179.94l-.33,0-4.78.73c-.21,0-.29.1-.22.31s.08.36.15.53a1,1,0,0,0,1.14.64,12.68,12.68,0,0,0,3.25-.67l.69-.2.2,1.28c0,.28.08.56.13.84,0,.12,0,.19-.13.23-.8.22-1.58.48-2.38.67a10.49,10.49,0,0,1-1.75.26,3.68,3.68,0,0,1-3.19-1.11,3.45,3.45,0,0,1-.83-1.67c-.18-.92-.35-1.85-.46-2.78a3.61,3.61,0,0,1,.41-2.4,3.19,3.19,0,0,1,1.74-1.34,6.5,6.5,0,0,1,3.51-.34,2.83,2.83,0,0,1,2.28,2.12C304.26,178,304.39,179,304.58,179.94Zm-4.43-1.23.79-.12c.51-.08.51-.08.39-.59s-.41-.91-.9-1a2.34,2.34,0,0,0-.72.05,1,1,0,0,0-.86.93c0,.23,0,.46.05.68s.08.19.22.16Z"/><path class="cls-1" d="M324,176.11c-.08-.55-.21-1.09-.24-1.65a3.14,3.14,0,0,1,1.87-3.26,7.08,7.08,0,0,1,2.71-.6,4,4,0,0,1,2.08.39,3.12,3.12,0,0,1,1.53,1.88,19,19,0,0,1,.52,2.84,4.94,4.94,0,0,1,0,1.72,3.1,3.1,0,0,1-2,2.41,7.2,7.2,0,0,1-2.41.51,4.38,4.38,0,0,1-2-.29,3,3,0,0,1-1.74-2c-.2-.65-.3-1.32-.45-2Zm2.79-.42c.07.44.13.88.2,1.32a1.08,1.08,0,0,0,1.07,1,3,3,0,0,0,.8-.11,1.09,1.09,0,0,0,.84-1.25q-.19-1.33-.41-2.66a1,1,0,0,0-1-.93,3.36,3.36,0,0,0-.7.06,1.11,1.11,0,0,0-1,1.32C326.69,174.84,326.76,175.26,326.82,175.69Z"/><path class="cls-1" d="M323,176.29c.09.57.22,1.14.25,1.71a3.08,3.08,0,0,1-2,3.23,6.41,6.41,0,0,1-3.77.47,3,3,0,0,1-2.47-2.28,17.19,17.19,0,0,1-.56-3.28,3.61,3.61,0,0,1,.41-2.23,3.28,3.28,0,0,1,1.88-1.47,6.65,6.65,0,0,1,3.49-.33,3,3,0,0,1,2.36,2.11c.21.66.31,1.37.46,2.05Zm-2.79.43c-.07-.46-.14-.92-.21-1.38a1,1,0,0,0-.86-.87,2.84,2.84,0,0,0-.77,0,1.13,1.13,0,0,0-1.07,1.38q.17,1.26.38,2.5a1.09,1.09,0,0,0,.79,1,1.88,1.88,0,0,0,1.07,0,1.1,1.1,0,0,0,.85-1.33Z"/><path class="cls-1" d="M279.86,180.5l-.1-1.85s0,0,0-.07c0-.47,0-.48.47-.55,1-.15,2-.33,3-.42a6.23,6.23,0,0,1,1.63.07,2.18,2.18,0,0,1,1.75,1.66,11.78,11.78,0,0,1,.35,1.58c.28,1.75.54,3.5.81,5.26,0,.28,0,.28-.25.33l-2,.31-.22-.56c-.31.19-.58.38-.87.53a4.71,4.71,0,0,1-2.62.6,2.34,2.34,0,0,1-2.06-1.65,3.68,3.68,0,0,1-.24-1.61,2.09,2.09,0,0,1,1.57-1.91,6.28,6.28,0,0,1,1-.24c.66-.11,1.32-.21,2-.31.11,0,.21,0,.18-.19-.06-.31-.12-.62-.2-.93a.6.6,0,0,0-.61-.47,11.3,11.3,0,0,0-1.37.09c-.63.08-1.26.19-1.89.28Zm3.8,3.13h0l-.7.11c-.43.08-.62.28-.58.69s.21.82.78.8a2.17,2.17,0,0,0,1.12-.36c.49-.32.42-.17.34-.72,0-.13,0-.26-.06-.4s-.08-.26-.28-.22S283.86,183.6,283.66,183.63Z"/><path class="cls-1" d="M278,188l-2.84.43,0-.28c-.33-2.15-.66-4.3-1-6.45,0-.22-.1-.29-.32-.24s-.65.1-1,.15c-.16,0-.22,0-.24-.19q-.14-1-.3-1.94c0-.15,0-.22.17-.24l.95-.14.3-.07c0-.12,0-.23-.05-.34-.08-.72-.22-1.44-.23-2.16a2.3,2.3,0,0,1,1.72-2.31,5.28,5.28,0,0,1,.7-.19c.7-.12,1.41-.22,2.13-.33l.36,2.34-.22,0c-.43.08-.86.15-1.29.24a.6.6,0,0,0-.52.69c.06.52.15,1,.24,1.58l.29,0,1.63-.25c.19,0,.27,0,.28.21q0,1,.08,2c0,.15-.1.15-.19.16l-1.43.22-.3.06Z"/><path class="cls-1" d="M295,178.35c-.28,0-.53,0-.79,0a8.54,8.54,0,0,0-2.47.22c-.9.23-1,.63-.94,1.42s.23,1.59.36,2.38a2,2,0,0,0,.13.42,1,1,0,0,0,1.16.65,10.92,10.92,0,0,0,3-.7l.15,0h.09l.22,1.44c0,.21.06.43.1.64s0,.19-.13.23c-.7.2-1.39.44-2.09.63a5.77,5.77,0,0,1-2.72.1,3.12,3.12,0,0,1-2.52-2.35,21.37,21.37,0,0,1-.53-2.88,3.85,3.85,0,0,1,.42-2.49,3.5,3.5,0,0,1,1.82-1.49,7.22,7.22,0,0,1,2.56-.49c.57,0,1.13,0,1.7,0,.07,0,.18.07.19.12C294.8,176.89,294.91,177.6,295,178.35Z"/><path class="cls-4" d="M419.07,513.32c-14.16-12.19-29-23.65-42.27-36.76-9.7-9.6-18.71-9.72-30.95-5.94-51.38,15.87-103.17,30.44-154.62,46.07-26,7.89-44.86,1.56-60.16-21.85C90.3,432.48,47.59,371.39,7,308.89c-13.27-20.45-7.33-35.11,13.87-47.54,12.2-7.15,22.91-6.87,34.42,3.09,42.78,37,86.37,73.13,129.27,110,8.84,7.61,16.32,9.71,27.84,5.11,37.71-15.06,75.85-29.11,114.14-42.64,10.79-3.81,15.27-10,17.37-20.79,7.81-39.86,15.95-79.67,25-119.26,2.57-11.21.3-18-8.4-25.42C317.52,134.75,275,97.37,232.37,60.19c-14.69-12.81-15.74-21.36-5.23-40.26C238.05.32,245.38-4.49,263.92,4c74.15,34.13,147.68,69.6,221.42,104.62,14,6.63,18,19,16.54,32.9-5.22,48.51-7.7,97.68-17.87,145.18-7.48,35-2.49,58.21,28.06,78.44,24.09,16,44.69,37.21,66.67,56.31,14.59,12.69,15.73,23.53,3.32,38.23q-38.81,46-78.39,91.28c-12.52,14.31-23.44,14.61-38.33,2C449.82,539.92,434.48,526.58,419.07,513.32Z"/></g></g></svg>