<svg width="661" height="661" viewBox="0 0 661 661" fill="none" xmlns="http://www.w3.org/2000/svg">
<rect x="0.351562" y="0.343994" width="660" height="660" rx="330" fill="#414141"/>
<path d="M363.291 227.308C359.03 224.116 354.406 221.601 349.531 219.787C356.345 214.217 360.704 205.751 360.704 196.286C360.704 179.55 347.088 165.935 330.353 165.935C313.619 165.935 300.003 179.551 300.003 196.286C300.003 205.752 304.362 214.217 311.175 219.787C306.299 221.601 301.673 224.117 297.411 227.308C288.164 234.23 281.2 244.091 277.799 255.071C276.223 260.161 277.123 265.524 280.268 269.789C283.413 274.054 288.271 276.5 293.599 276.5H367.106C372.434 276.5 377.293 274.054 380.437 269.789C383.582 265.524 384.479 260.159 382.906 255.074C379.503 244.094 372.537 234.233 363.291 227.308ZM330.353 176.211C341.42 176.211 350.428 185.214 350.428 196.286C350.428 207.358 341.425 216.361 330.353 216.361C319.286 216.361 310.278 207.358 310.278 196.286C310.278 185.215 319.286 176.211 330.353 176.211ZM372.166 263.693C370.98 265.302 369.136 266.227 367.109 266.227H293.596C291.568 266.227 289.725 265.305 288.539 263.693C287.353 262.085 287.017 260.049 287.617 258.112C293.448 239.284 310.62 226.634 330.352 226.634C350.084 226.634 367.255 239.285 373.087 258.112C373.687 260.054 373.351 262.085 372.166 263.693ZM363.292 445.561C359.03 442.369 354.407 439.853 349.532 438.039C356.345 432.469 360.704 424.003 360.704 414.538C360.704 397.803 347.089 384.188 330.354 384.188C313.619 384.188 300.004 397.803 300.004 414.538C300.004 424.005 304.362 432.469 311.176 438.039C306.3 439.853 301.676 442.37 297.416 445.561C288.17 452.483 281.205 462.343 277.804 473.323C276.228 478.413 277.129 483.776 280.273 488.041C283.418 492.306 288.276 494.753 293.604 494.753H367.111C372.44 494.753 377.298 492.306 380.442 488.041C383.587 483.776 384.484 478.412 382.912 473.327C379.504 462.346 372.537 452.486 363.292 445.561ZM310.277 414.537C310.277 403.47 319.281 394.461 330.353 394.461C341.42 394.461 350.428 403.465 350.428 414.537C350.428 425.604 341.428 434.608 330.361 434.612H330.354H330.347C319.281 434.607 310.277 425.604 310.277 414.537ZM372.166 481.943C370.98 483.551 369.137 484.476 367.109 484.476L293.596 484.477C291.569 484.477 289.725 483.556 288.539 481.944C287.353 480.335 287.018 478.3 287.618 476.363C293.448 457.538 310.617 444.888 330.344 444.885H330.351H330.358C350.086 444.888 367.254 457.536 373.084 476.363C373.686 478.3 373.349 480.334 372.164 481.943L372.166 481.943ZM494.007 364.2C490.606 353.218 483.64 343.359 474.395 336.437C470.133 333.245 465.51 330.729 460.635 328.915C467.448 323.345 471.807 314.88 471.807 305.414C471.807 288.679 458.192 275.064 441.457 275.064C424.722 275.064 411.107 288.679 411.107 305.414C411.107 314.881 415.465 323.346 422.279 328.915C417.403 330.729 412.776 333.246 408.519 336.437C399.272 343.359 392.308 353.219 388.907 364.2C387.331 369.289 388.231 374.652 391.376 378.917C394.521 383.182 399.379 385.629 404.707 385.629H478.214C483.542 385.629 488.401 383.182 491.545 378.917C494.684 374.65 495.584 369.286 494.007 364.2ZM421.384 305.41C421.384 294.343 430.388 285.335 441.46 285.335C452.527 285.335 461.535 294.339 461.535 305.41C461.535 316.477 452.535 325.482 441.468 325.486H441.461H441.454C430.385 325.482 421.384 316.479 421.384 305.41ZM483.267 372.817C482.081 374.425 480.238 375.35 478.211 375.35H404.703C402.676 375.35 400.832 374.428 399.646 372.817C398.46 371.208 398.125 369.173 398.725 367.235C404.555 348.411 421.724 335.76 441.451 335.757H441.458H441.465C461.193 335.761 478.361 348.408 484.191 367.235C484.788 369.174 484.453 371.208 483.267 372.817ZM252.188 336.434C247.926 333.242 243.303 330.727 238.428 328.913C245.241 323.343 249.6 314.877 249.6 305.412C249.6 288.677 235.985 275.062 219.25 275.062C202.515 275.062 188.9 288.677 188.9 305.412C188.9 314.878 193.258 323.343 200.072 328.913C195.196 330.727 190.569 333.243 186.307 336.434C177.061 343.356 170.096 353.217 166.695 364.197C165.12 369.287 166.02 374.65 169.164 378.915C172.309 383.18 177.167 385.627 182.495 385.627L256.003 385.628C261.331 385.628 266.189 383.181 269.334 378.916C272.478 374.651 273.378 369.287 271.803 364.198C268.401 353.22 261.436 343.36 252.19 336.434L252.188 336.434ZM199.173 305.41C199.173 294.343 208.177 285.335 219.248 285.335C230.315 285.335 239.324 294.339 239.324 305.41C239.324 316.477 230.324 325.482 219.257 325.486H219.25H219.243C208.174 325.482 199.173 316.479 199.173 305.41ZM261.056 372.817C259.87 374.425 258.027 375.35 256 375.35H182.492C180.465 375.35 178.621 374.428 177.435 372.817C176.249 371.208 175.914 369.173 176.514 367.235C182.344 348.411 199.513 335.76 219.24 335.757H219.247H219.253C238.982 335.761 256.15 348.408 261.98 367.235C262.581 369.174 262.246 371.208 261.056 372.817Z" fill="white"/>
</svg>
