<svg viewBox="0 0 661 661" fill="none" xmlns="http://www.w3.org/2000/svg">
<rect x="0.163086" y="0.569824" width="660" height="660" rx="330" fill="#414141"/>
<path d="M368.509 419.825C375.003 396.499 378.591 368.164 378.591 338.34C378.591 304.185 370.532 270.164 357.383 241.556C347.355 219.736 334.83 203.795 331.216 203.795C327.602 203.795 315.078 219.737 305.049 241.556C291.9 270.164 283.841 304.185 283.841 338.34C283.841 368.164 287.429 396.497 293.923 419.825H368.509ZM284.207 427.147C276.639 401.978 272.472 370.979 272.472 338.341C272.472 302.478 280.91 266.852 294.719 236.81C306.701 210.743 321.089 192.426 331.217 192.426C341.345 192.426 355.732 210.742 367.715 236.81C381.524 266.852 389.962 302.478 389.962 338.341C389.962 370.979 385.795 401.978 378.227 427.147L377.01 431.195H285.424L284.207 427.147Z" fill="white"/>
<path d="M358.863 452.04L354.433 431.195H307.996L303.565 452.04H358.863ZM298.788 419.825H363.641L372.905 463.41H289.525L298.788 419.825Z" fill="white"/>
<path d="M331.215 328.865C317.61 328.865 306.58 317.835 306.58 304.23C306.58 290.624 317.61 279.595 331.215 279.595C344.821 279.595 355.85 290.624 355.85 304.23C355.85 317.835 344.821 328.865 331.215 328.865ZM331.215 317.495C338.541 317.495 344.48 311.555 344.48 304.23C344.48 296.904 338.541 290.965 331.215 290.965C323.889 290.965 317.95 296.904 317.95 304.23C317.95 311.555 323.889 317.495 331.215 317.495Z" fill="white"/>
<path d="M273.067 462.209C273.934 468.317 265.819 471.241 262.593 465.983L231.618 415.5C230.117 413.054 230.675 409.872 232.918 408.083L273.648 375.59C276.952 372.954 281.874 374.717 282.754 378.851L289.19 409.107C289.623 411.144 288.909 413.255 287.326 414.608L268.579 430.655L273.067 462.209ZM256.884 429.167C256.61 427.242 257.339 425.311 258.816 424.047L277.368 408.169L273.548 390.216L243.937 413.839L257.952 436.681L256.884 429.167Z" fill="white"/>
<path d="M387.26 462.209C386.392 468.317 394.508 471.241 397.734 465.983L428.708 415.5C430.21 413.054 429.652 409.872 427.409 408.083L386.679 375.59C383.375 372.954 378.453 374.717 377.573 378.851L371.137 409.107C370.702 411.144 371.418 413.255 373 414.608L391.748 430.655L387.26 462.209ZM403.443 429.167C403.717 427.242 402.988 425.311 401.511 424.047L382.959 408.169L386.778 390.216L416.39 413.839L402.375 436.681L403.443 429.167Z" fill="white"/>
</svg>
