<svg viewBox="0 0 661 661" fill="none" xmlns="http://www.w3.org/2000/svg">
<rect x="0.351562" y="0.343994" width="660" height="660" rx="330" fill="#414141"/>
<mask id="path-2-outside-1_143_1857" maskUnits="userSpaceOnUse" x="213.607" y="186.531" width="264" height="288" fill="black">
<rect fill="white" x="213.607" y="186.531" width="264" height="288"/>
<path fill-rule="evenodd" clip-rule="evenodd" d="M362.293 188.531C363.376 188.531 364.328 189.24 364.635 190.271L368.149 202.122L380.072 205.615C381.109 205.919 381.823 206.867 381.823 207.943C381.823 209.019 381.109 209.966 380.072 210.27L368.149 213.764L364.635 225.614C364.328 226.646 363.376 227.354 362.293 227.354C361.211 227.354 360.258 226.646 359.951 225.614L356.436 213.764L344.515 210.271C343.476 209.966 342.764 209.019 342.764 207.943C342.764 206.867 343.476 205.92 344.515 205.615L356.436 202.122L359.951 190.271C360.258 189.24 361.211 188.531 362.293 188.531ZM362.293 199.538L360.744 204.761C360.51 205.552 359.887 206.17 359.093 206.403L353.837 207.943L359.093 209.482C359.887 209.716 360.51 210.334 360.744 211.124L362.293 216.348L363.843 211.124C364.076 210.334 364.698 209.716 365.493 209.482L370.748 207.943L365.493 206.403C364.698 206.17 364.076 205.552 363.843 204.761L362.293 199.538ZM388.612 239.787C388.177 238.75 387.04 238.156 385.893 238.406L339.222 248.591C339.368 253.502 339.651 258.345 340.059 263.099C343.366 265.35 347.465 265.813 352.335 265.154C357.271 264.487 362.602 262.728 368.148 260.9C368.585 260.756 369.024 260.611 369.464 260.467C375.329 258.539 381.469 256.602 387.018 256.369C389.931 256.247 392.759 256.593 395.347 257.658C393.371 251.754 391.126 245.777 388.612 239.787ZM397.826 265.505C395.187 262.15 391.674 261.03 387.224 261.218C382.47 261.418 376.982 263.107 370.996 265.075C370.531 265.227 370.062 265.382 369.592 265.537C364.162 267.33 358.402 269.232 352.993 269.962C348.755 270.536 344.501 270.425 340.623 268.873C340.935 271.722 341.291 274.534 341.692 277.302C344.445 296.327 349.242 313.286 355.354 326.472C357.07 330.051 358.842 333.344 360.65 336.413C369.138 350.179 378.726 356.376 388.057 354.341C393.799 353.088 398.244 349.045 401.317 342.377C403.298 338.08 404.668 332.765 405.396 326.606C405.743 323.081 405.962 319.368 406.013 315.419C406.007 301.011 403.259 283.767 397.827 265.504L397.826 265.505ZM410.239 327.224C410.68 323.512 410.895 319.568 410.894 315.435C410.89 300.342 407.999 282.466 402.38 263.7C399.847 255.241 396.756 246.59 393.118 237.919C391.758 234.675 388.256 232.922 384.846 233.666L336.73 244.166L288.615 233.67C285.205 232.925 281.703 234.678 280.342 237.923C276.705 246.593 273.614 255.243 271.081 263.703C265.461 282.468 262.57 300.347 262.567 315.439C262.564 319.571 262.781 323.516 263.222 327.226C264.326 338.341 266.629 347.646 268.78 356.332C269.282 358.365 269.777 360.366 270.247 362.346C273.38 375.58 275.435 388.171 271.657 405.282L267.488 424.163C266.588 428.235 264.346 433.43 261.359 437.859C258.307 442.382 254.832 445.585 251.704 446.449C248.849 447.239 241.698 448.313 233.972 449.365C230.947 449.777 229.331 452.218 229.212 454.54C229.094 456.869 230.467 459.469 233.475 460.125L287.992 472.019C291 472.676 293.343 470.886 294.216 468.721C295.086 466.563 294.647 463.675 292.074 462.041C285.501 457.87 279.459 453.916 277.201 452.012C274.724 449.923 272.918 445.571 272.053 440.191C271.206 434.926 271.357 429.276 272.257 425.203L276.426 406.323C279.808 391.01 285.907 380.931 293.164 371.33C295.203 368.632 297.36 365.943 299.584 363.171C305.234 356.127 311.319 348.542 316.999 338.911C318.949 335.744 320.798 332.268 322.535 328.521C328.891 314.814 333.797 297.377 336.601 277.995C336.645 277.691 336.688 277.386 336.732 277.08C336.775 277.385 336.818 277.689 336.862 277.993C339.666 297.373 344.572 314.81 350.928 328.516C352.665 332.263 354.514 335.739 356.465 338.907C362.144 348.537 368.229 356.122 373.88 363.166C376.104 365.939 378.26 368.628 380.298 371.325C387.556 380.926 393.656 391.005 397.037 406.318L401.206 425.199C402.106 429.271 402.257 434.921 401.411 440.187C400.545 445.566 398.74 449.92 396.263 452.007C394.003 453.913 387.963 457.864 381.39 462.036C378.816 463.67 378.377 466.558 379.248 468.716C380.121 470.882 382.464 472.671 385.471 472.014L439.989 460.121C442.996 459.464 444.37 456.864 444.251 454.536C444.132 452.213 442.516 449.773 439.491 449.361C431.764 448.308 424.614 447.234 421.76 446.445C418.63 445.58 415.157 442.379 412.105 437.853C409.118 433.425 406.874 428.23 405.975 424.158L401.807 405.279C398.027 388.166 400.082 375.576 403.216 362.343C403.685 360.361 404.181 358.361 404.684 356.327C406.834 347.64 409.137 338.334 410.242 327.221L410.239 327.224ZM400.645 352.309C397.556 355.71 393.722 358.075 389.103 359.083C384.468 360.094 380.006 359.55 375.783 357.751C376.353 358.464 376.922 359.174 377.49 359.881C379.764 362.716 382.01 365.516 384.199 368.412C388.137 373.62 391.795 379.039 394.903 385.346C395.104 376.74 396.62 369.01 398.461 361.234C398.944 359.194 399.448 357.155 399.957 355.098C400.185 354.173 400.415 353.244 400.645 352.309ZM406.584 438.246C406.491 439.156 406.372 440.061 406.229 440.953C405.317 446.628 403.275 452.457 399.418 455.71C396.844 457.88 390.455 462.039 384.014 466.128C383.81 466.258 383.757 466.376 383.736 466.458C383.704 466.569 383.705 466.735 383.778 466.912C383.849 467.09 383.958 467.198 384.04 467.247C384.092 467.277 384.194 467.326 384.422 467.275L438.939 455.381C439.168 455.332 439.239 455.247 439.274 455.197C439.329 455.118 439.382 454.975 439.372 454.784C439.363 454.593 439.293 454.442 439.219 454.353C439.165 454.289 439.066 454.203 438.825 454.17C431.254 453.138 423.701 452.021 420.449 451.122C415.576 449.775 411.266 445.329 408.047 440.557C407.541 439.806 407.052 439.034 406.584 438.246ZM334.236 248.59C334.09 253.5 333.808 258.345 333.398 263.099C330.091 265.351 325.993 265.814 321.122 265.156C316.187 264.488 310.856 262.73 305.309 260.902C304.873 260.758 304.434 260.613 303.995 260.468C298.129 258.54 291.99 256.604 286.44 256.371C283.526 256.248 280.699 256.594 278.111 257.66C280.086 251.755 282.332 245.779 284.845 239.788C285.28 238.751 286.417 238.157 287.565 238.408L334.236 248.59ZM275.632 265.506C270.2 283.771 267.453 301.014 267.446 315.424C267.497 319.372 267.716 323.085 268.063 326.611C268.791 332.769 270.161 338.085 272.142 342.381C275.215 349.049 279.66 353.092 285.402 354.345C294.733 356.381 304.322 350.183 312.807 336.416C314.617 333.348 316.389 330.056 318.105 326.476C324.217 313.29 329.014 296.33 331.767 277.306C332.166 274.536 332.524 271.724 332.835 268.875C328.958 270.428 324.704 270.538 320.465 269.966C315.056 269.234 309.297 267.333 303.867 265.54C303.395 265.384 302.928 265.229 302.463 265.077C296.476 263.109 290.988 261.419 286.234 261.219C281.785 261.032 278.272 262.152 275.632 265.506ZM297.675 357.752C293.453 359.551 288.99 360.095 284.355 359.083C279.737 358.075 275.902 355.709 272.814 352.31C273.043 353.244 273.273 354.173 273.501 355.098C274.01 357.155 274.514 359.193 274.997 361.233C276.838 369.011 278.355 376.742 278.556 385.345C281.663 379.04 285.321 373.621 289.259 368.413C291.448 365.518 293.693 362.717 295.968 359.882C296.536 359.175 297.104 358.466 297.675 357.752ZM266.874 438.247C266.406 439.033 265.917 439.807 265.41 440.558C262.192 445.329 257.881 449.774 253.009 451.121C249.757 452.022 242.203 453.139 234.631 454.17C234.391 454.203 234.293 454.289 234.239 454.354C234.163 454.442 234.095 454.592 234.085 454.783C234.076 454.975 234.129 455.119 234.184 455.197C234.218 455.246 234.29 455.332 234.518 455.382L289.035 467.276C289.263 467.325 289.363 467.278 289.416 467.247C289.499 467.198 289.608 467.091 289.679 466.912C289.751 466.735 289.753 466.57 289.721 466.458C289.698 466.376 289.647 466.258 289.442 466.128C283.001 462.04 276.613 457.881 274.039 455.709C270.182 452.459 268.14 446.627 267.227 440.955C267.084 440.061 266.965 439.156 266.872 438.247L266.874 438.247ZM235.137 240.142C236.219 240.142 237.172 240.851 237.479 241.884L240.994 253.735L252.916 257.228C253.954 257.532 254.667 258.479 254.667 259.555C254.667 260.631 253.954 261.579 252.916 261.882L240.994 265.376L237.479 277.227C237.172 278.258 236.219 278.967 235.137 278.967C234.054 278.967 233.101 278.258 232.795 277.227L229.281 265.376L217.358 261.882C216.321 261.578 215.607 260.631 215.607 259.555C215.607 258.479 216.321 257.532 217.358 257.228L229.281 253.735L232.795 241.884C233.102 240.851 234.054 240.142 235.137 240.142ZM445.576 241.346C446.657 241.346 447.611 242.053 447.916 243.086L453.655 262.433L473.119 268.137C474.157 268.441 474.87 269.388 474.87 270.463C474.87 271.54 474.157 272.487 473.119 272.791L453.655 278.494L447.916 297.841C447.61 298.872 446.657 299.581 445.576 299.581C444.493 299.581 443.539 298.872 443.234 297.841L437.495 278.494L418.032 272.791C416.993 272.487 416.281 271.54 416.281 270.463C416.281 269.388 416.993 268.441 418.032 268.137L437.495 262.433L443.234 243.086C443.539 242.053 444.493 241.346 445.576 241.346ZM235.137 251.15L233.588 256.374C233.354 257.164 232.732 257.782 231.937 258.015L226.682 259.555L231.937 261.095C232.732 261.328 233.354 261.946 233.588 262.736L235.137 267.959L236.686 262.736C236.921 261.946 237.543 261.328 238.337 261.095L243.593 259.555L238.337 258.015C237.543 257.782 236.921 257.164 236.686 256.374L235.137 251.15ZM445.576 252.353L441.803 265.073C441.568 265.862 440.946 266.481 440.151 266.713L427.354 270.463L440.151 274.214C440.946 274.447 441.568 275.064 441.803 275.855L445.576 288.575L449.347 275.855C449.582 275.064 450.204 274.447 450.999 274.214L463.796 270.463L450.999 266.713C450.204 266.481 449.582 265.862 449.347 265.073L445.576 252.353Z"/>
</mask>
<path fill-rule="evenodd" clip-rule="evenodd" d="M362.293 188.531C363.376 188.531 364.328 189.24 364.635 190.271L368.149 202.122L380.072 205.615C381.109 205.919 381.823 206.867 381.823 207.943C381.823 209.019 381.109 209.966 380.072 210.27L368.149 213.764L364.635 225.614C364.328 226.646 363.376 227.354 362.293 227.354C361.211 227.354 360.258 226.646 359.951 225.614L356.436 213.764L344.515 210.271C343.476 209.966 342.764 209.019 342.764 207.943C342.764 206.867 343.476 205.92 344.515 205.615L356.436 202.122L359.951 190.271C360.258 189.24 361.211 188.531 362.293 188.531ZM362.293 199.538L360.744 204.761C360.51 205.552 359.887 206.17 359.093 206.403L353.837 207.943L359.093 209.482C359.887 209.716 360.51 210.334 360.744 211.124L362.293 216.348L363.843 211.124C364.076 210.334 364.698 209.716 365.493 209.482L370.748 207.943L365.493 206.403C364.698 206.17 364.076 205.552 363.843 204.761L362.293 199.538ZM388.612 239.787C388.177 238.75 387.04 238.156 385.893 238.406L339.222 248.591C339.368 253.502 339.651 258.345 340.059 263.099C343.366 265.35 347.465 265.813 352.335 265.154C357.271 264.487 362.602 262.728 368.148 260.9C368.585 260.756 369.024 260.611 369.464 260.467C375.329 258.539 381.469 256.602 387.018 256.369C389.931 256.247 392.759 256.593 395.347 257.658C393.371 251.754 391.126 245.777 388.612 239.787ZM397.826 265.505C395.187 262.15 391.674 261.03 387.224 261.218C382.47 261.418 376.982 263.107 370.996 265.075C370.531 265.227 370.062 265.382 369.592 265.537C364.162 267.33 358.402 269.232 352.993 269.962C348.755 270.536 344.501 270.425 340.623 268.873C340.935 271.722 341.291 274.534 341.692 277.302C344.445 296.327 349.242 313.286 355.354 326.472C357.07 330.051 358.842 333.344 360.65 336.413C369.138 350.179 378.726 356.376 388.057 354.341C393.799 353.088 398.244 349.045 401.317 342.377C403.298 338.08 404.668 332.765 405.396 326.606C405.743 323.081 405.962 319.368 406.013 315.419C406.007 301.011 403.259 283.767 397.827 265.504L397.826 265.505ZM410.239 327.224C410.68 323.512 410.895 319.568 410.894 315.435C410.89 300.342 407.999 282.466 402.38 263.7C399.847 255.241 396.756 246.59 393.118 237.919C391.758 234.675 388.256 232.922 384.846 233.666L336.73 244.166L288.615 233.67C285.205 232.925 281.703 234.678 280.342 237.923C276.705 246.593 273.614 255.243 271.081 263.703C265.461 282.468 262.57 300.347 262.567 315.439C262.564 319.571 262.781 323.516 263.222 327.226C264.326 338.341 266.629 347.646 268.78 356.332C269.282 358.365 269.777 360.366 270.247 362.346C273.38 375.58 275.435 388.171 271.657 405.282L267.488 424.163C266.588 428.235 264.346 433.43 261.359 437.859C258.307 442.382 254.832 445.585 251.704 446.449C248.849 447.239 241.698 448.313 233.972 449.365C230.947 449.777 229.331 452.218 229.212 454.54C229.094 456.869 230.467 459.469 233.475 460.125L287.992 472.019C291 472.676 293.343 470.886 294.216 468.721C295.086 466.563 294.647 463.675 292.074 462.041C285.501 457.87 279.459 453.916 277.201 452.012C274.724 449.923 272.918 445.571 272.053 440.191C271.206 434.926 271.357 429.276 272.257 425.203L276.426 406.323C279.808 391.01 285.907 380.931 293.164 371.33C295.203 368.632 297.36 365.943 299.584 363.171C305.234 356.127 311.319 348.542 316.999 338.911C318.949 335.744 320.798 332.268 322.535 328.521C328.891 314.814 333.797 297.377 336.601 277.995C336.645 277.691 336.688 277.386 336.732 277.08C336.775 277.385 336.818 277.689 336.862 277.993C339.666 297.373 344.572 314.81 350.928 328.516C352.665 332.263 354.514 335.739 356.465 338.907C362.144 348.537 368.229 356.122 373.88 363.166C376.104 365.939 378.26 368.628 380.298 371.325C387.556 380.926 393.656 391.005 397.037 406.318L401.206 425.199C402.106 429.271 402.257 434.921 401.411 440.187C400.545 445.566 398.74 449.92 396.263 452.007C394.003 453.913 387.963 457.864 381.39 462.036C378.816 463.67 378.377 466.558 379.248 468.716C380.121 470.882 382.464 472.671 385.471 472.014L439.989 460.121C442.996 459.464 444.37 456.864 444.251 454.536C444.132 452.213 442.516 449.773 439.491 449.361C431.764 448.308 424.614 447.234 421.76 446.445C418.63 445.58 415.157 442.379 412.105 437.853C409.118 433.425 406.874 428.23 405.975 424.158L401.807 405.279C398.027 388.166 400.082 375.576 403.216 362.343C403.685 360.361 404.181 358.361 404.684 356.327C406.834 347.64 409.137 338.334 410.242 327.221L410.239 327.224ZM400.645 352.309C397.556 355.71 393.722 358.075 389.103 359.083C384.468 360.094 380.006 359.55 375.783 357.751C376.353 358.464 376.922 359.174 377.49 359.881C379.764 362.716 382.01 365.516 384.199 368.412C388.137 373.62 391.795 379.039 394.903 385.346C395.104 376.74 396.62 369.01 398.461 361.234C398.944 359.194 399.448 357.155 399.957 355.098C400.185 354.173 400.415 353.244 400.645 352.309ZM406.584 438.246C406.491 439.156 406.372 440.061 406.229 440.953C405.317 446.628 403.275 452.457 399.418 455.71C396.844 457.88 390.455 462.039 384.014 466.128C383.81 466.258 383.757 466.376 383.736 466.458C383.704 466.569 383.705 466.735 383.778 466.912C383.849 467.09 383.958 467.198 384.04 467.247C384.092 467.277 384.194 467.326 384.422 467.275L438.939 455.381C439.168 455.332 439.239 455.247 439.274 455.197C439.329 455.118 439.382 454.975 439.372 454.784C439.363 454.593 439.293 454.442 439.219 454.353C439.165 454.289 439.066 454.203 438.825 454.17C431.254 453.138 423.701 452.021 420.449 451.122C415.576 449.775 411.266 445.329 408.047 440.557C407.541 439.806 407.052 439.034 406.584 438.246ZM334.236 248.59C334.09 253.5 333.808 258.345 333.398 263.099C330.091 265.351 325.993 265.814 321.122 265.156C316.187 264.488 310.856 262.73 305.309 260.902C304.873 260.758 304.434 260.613 303.995 260.468C298.129 258.54 291.99 256.604 286.44 256.371C283.526 256.248 280.699 256.594 278.111 257.66C280.086 251.755 282.332 245.779 284.845 239.788C285.28 238.751 286.417 238.157 287.565 238.408L334.236 248.59ZM275.632 265.506C270.2 283.771 267.453 301.014 267.446 315.424C267.497 319.372 267.716 323.085 268.063 326.611C268.791 332.769 270.161 338.085 272.142 342.381C275.215 349.049 279.66 353.092 285.402 354.345C294.733 356.381 304.322 350.183 312.807 336.416C314.617 333.348 316.389 330.056 318.105 326.476C324.217 313.29 329.014 296.33 331.767 277.306C332.166 274.536 332.524 271.724 332.835 268.875C328.958 270.428 324.704 270.538 320.465 269.966C315.056 269.234 309.297 267.333 303.867 265.54C303.395 265.384 302.928 265.229 302.463 265.077C296.476 263.109 290.988 261.419 286.234 261.219C281.785 261.032 278.272 262.152 275.632 265.506ZM297.675 357.752C293.453 359.551 288.99 360.095 284.355 359.083C279.737 358.075 275.902 355.709 272.814 352.31C273.043 353.244 273.273 354.173 273.501 355.098C274.01 357.155 274.514 359.193 274.997 361.233C276.838 369.011 278.355 376.742 278.556 385.345C281.663 379.04 285.321 373.621 289.259 368.413C291.448 365.518 293.693 362.717 295.968 359.882C296.536 359.175 297.104 358.466 297.675 357.752ZM266.874 438.247C266.406 439.033 265.917 439.807 265.41 440.558C262.192 445.329 257.881 449.774 253.009 451.121C249.757 452.022 242.203 453.139 234.631 454.17C234.391 454.203 234.293 454.289 234.239 454.354C234.163 454.442 234.095 454.592 234.085 454.783C234.076 454.975 234.129 455.119 234.184 455.197C234.218 455.246 234.29 455.332 234.518 455.382L289.035 467.276C289.263 467.325 289.363 467.278 289.416 467.247C289.499 467.198 289.608 467.091 289.679 466.912C289.751 466.735 289.753 466.57 289.721 466.458C289.698 466.376 289.647 466.258 289.442 466.128C283.001 462.04 276.613 457.881 274.039 455.709C270.182 452.459 268.14 446.627 267.227 440.955C267.084 440.061 266.965 439.156 266.872 438.247L266.874 438.247ZM235.137 240.142C236.219 240.142 237.172 240.851 237.479 241.884L240.994 253.735L252.916 257.228C253.954 257.532 254.667 258.479 254.667 259.555C254.667 260.631 253.954 261.579 252.916 261.882L240.994 265.376L237.479 277.227C237.172 278.258 236.219 278.967 235.137 278.967C234.054 278.967 233.101 278.258 232.795 277.227L229.281 265.376L217.358 261.882C216.321 261.578 215.607 260.631 215.607 259.555C215.607 258.479 216.321 257.532 217.358 257.228L229.281 253.735L232.795 241.884C233.102 240.851 234.054 240.142 235.137 240.142ZM445.576 241.346C446.657 241.346 447.611 242.053 447.916 243.086L453.655 262.433L473.119 268.137C474.157 268.441 474.87 269.388 474.87 270.463C474.87 271.54 474.157 272.487 473.119 272.791L453.655 278.494L447.916 297.841C447.61 298.872 446.657 299.581 445.576 299.581C444.493 299.581 443.539 298.872 443.234 297.841L437.495 278.494L418.032 272.791C416.993 272.487 416.281 271.54 416.281 270.463C416.281 269.388 416.993 268.441 418.032 268.137L437.495 262.433L443.234 243.086C443.539 242.053 444.493 241.346 445.576 241.346ZM235.137 251.15L233.588 256.374C233.354 257.164 232.732 257.782 231.937 258.015L226.682 259.555L231.937 261.095C232.732 261.328 233.354 261.946 233.588 262.736L235.137 267.959L236.686 262.736C236.921 261.946 237.543 261.328 238.337 261.095L243.593 259.555L238.337 258.015C237.543 257.782 236.921 257.164 236.686 256.374L235.137 251.15ZM445.576 252.353L441.803 265.073C441.568 265.862 440.946 266.481 440.151 266.713L427.354 270.463L440.151 274.214C440.946 274.447 441.568 275.064 441.803 275.855L445.576 288.575L449.347 275.855C449.582 275.064 450.204 274.447 450.999 274.214L463.796 270.463L450.999 266.713C450.204 266.481 449.582 265.862 449.347 265.073L445.576 252.353Z" fill="white"/>
<path fill-rule="evenodd" clip-rule="evenodd" d="M362.293 188.531C363.376 188.531 364.328 189.24 364.635 190.271L368.149 202.122L380.072 205.615C381.109 205.919 381.823 206.867 381.823 207.943C381.823 209.019 381.109 209.966 380.072 210.27L368.149 213.764L364.635 225.614C364.328 226.646 363.376 227.354 362.293 227.354C361.211 227.354 360.258 226.646 359.951 225.614L356.436 213.764L344.515 210.271C343.476 209.966 342.764 209.019 342.764 207.943C342.764 206.867 343.476 205.92 344.515 205.615L356.436 202.122L359.951 190.271C360.258 189.24 361.211 188.531 362.293 188.531ZM362.293 199.538L360.744 204.761C360.51 205.552 359.887 206.17 359.093 206.403L353.837 207.943L359.093 209.482C359.887 209.716 360.51 210.334 360.744 211.124L362.293 216.348L363.843 211.124C364.076 210.334 364.698 209.716 365.493 209.482L370.748 207.943L365.493 206.403C364.698 206.17 364.076 205.552 363.843 204.761L362.293 199.538ZM388.612 239.787C388.177 238.75 387.04 238.156 385.893 238.406L339.222 248.591C339.368 253.502 339.651 258.345 340.059 263.099C343.366 265.35 347.465 265.813 352.335 265.154C357.271 264.487 362.602 262.728 368.148 260.9C368.585 260.756 369.024 260.611 369.464 260.467C375.329 258.539 381.469 256.602 387.018 256.369C389.931 256.247 392.759 256.593 395.347 257.658C393.371 251.754 391.126 245.777 388.612 239.787ZM397.826 265.505C395.187 262.15 391.674 261.03 387.224 261.218C382.47 261.418 376.982 263.107 370.996 265.075C370.531 265.227 370.062 265.382 369.592 265.537C364.162 267.33 358.402 269.232 352.993 269.962C348.755 270.536 344.501 270.425 340.623 268.873C340.935 271.722 341.291 274.534 341.692 277.302C344.445 296.327 349.242 313.286 355.354 326.472C357.07 330.051 358.842 333.344 360.65 336.413C369.138 350.179 378.726 356.376 388.057 354.341C393.799 353.088 398.244 349.045 401.317 342.377C403.298 338.08 404.668 332.765 405.396 326.606C405.743 323.081 405.962 319.368 406.013 315.419C406.007 301.011 403.259 283.767 397.827 265.504L397.826 265.505ZM410.239 327.224C410.68 323.512 410.895 319.568 410.894 315.435C410.89 300.342 407.999 282.466 402.38 263.7C399.847 255.241 396.756 246.59 393.118 237.919C391.758 234.675 388.256 232.922 384.846 233.666L336.73 244.166L288.615 233.67C285.205 232.925 281.703 234.678 280.342 237.923C276.705 246.593 273.614 255.243 271.081 263.703C265.461 282.468 262.57 300.347 262.567 315.439C262.564 319.571 262.781 323.516 263.222 327.226C264.326 338.341 266.629 347.646 268.78 356.332C269.282 358.365 269.777 360.366 270.247 362.346C273.38 375.58 275.435 388.171 271.657 405.282L267.488 424.163C266.588 428.235 264.346 433.43 261.359 437.859C258.307 442.382 254.832 445.585 251.704 446.449C248.849 447.239 241.698 448.313 233.972 449.365C230.947 449.777 229.331 452.218 229.212 454.54C229.094 456.869 230.467 459.469 233.475 460.125L287.992 472.019C291 472.676 293.343 470.886 294.216 468.721C295.086 466.563 294.647 463.675 292.074 462.041C285.501 457.87 279.459 453.916 277.201 452.012C274.724 449.923 272.918 445.571 272.053 440.191C271.206 434.926 271.357 429.276 272.257 425.203L276.426 406.323C279.808 391.01 285.907 380.931 293.164 371.33C295.203 368.632 297.36 365.943 299.584 363.171C305.234 356.127 311.319 348.542 316.999 338.911C318.949 335.744 320.798 332.268 322.535 328.521C328.891 314.814 333.797 297.377 336.601 277.995C336.645 277.691 336.688 277.386 336.732 277.08C336.775 277.385 336.818 277.689 336.862 277.993C339.666 297.373 344.572 314.81 350.928 328.516C352.665 332.263 354.514 335.739 356.465 338.907C362.144 348.537 368.229 356.122 373.88 363.166C376.104 365.939 378.26 368.628 380.298 371.325C387.556 380.926 393.656 391.005 397.037 406.318L401.206 425.199C402.106 429.271 402.257 434.921 401.411 440.187C400.545 445.566 398.74 449.92 396.263 452.007C394.003 453.913 387.963 457.864 381.39 462.036C378.816 463.67 378.377 466.558 379.248 468.716C380.121 470.882 382.464 472.671 385.471 472.014L439.989 460.121C442.996 459.464 444.37 456.864 444.251 454.536C444.132 452.213 442.516 449.773 439.491 449.361C431.764 448.308 424.614 447.234 421.76 446.445C418.63 445.58 415.157 442.379 412.105 437.853C409.118 433.425 406.874 428.23 405.975 424.158L401.807 405.279C398.027 388.166 400.082 375.576 403.216 362.343C403.685 360.361 404.181 358.361 404.684 356.327C406.834 347.64 409.137 338.334 410.242 327.221L410.239 327.224ZM400.645 352.309C397.556 355.71 393.722 358.075 389.103 359.083C384.468 360.094 380.006 359.55 375.783 357.751C376.353 358.464 376.922 359.174 377.49 359.881C379.764 362.716 382.01 365.516 384.199 368.412C388.137 373.62 391.795 379.039 394.903 385.346C395.104 376.74 396.62 369.01 398.461 361.234C398.944 359.194 399.448 357.155 399.957 355.098C400.185 354.173 400.415 353.244 400.645 352.309ZM406.584 438.246C406.491 439.156 406.372 440.061 406.229 440.953C405.317 446.628 403.275 452.457 399.418 455.71C396.844 457.88 390.455 462.039 384.014 466.128C383.81 466.258 383.757 466.376 383.736 466.458C383.704 466.569 383.705 466.735 383.778 466.912C383.849 467.09 383.958 467.198 384.04 467.247C384.092 467.277 384.194 467.326 384.422 467.275L438.939 455.381C439.168 455.332 439.239 455.247 439.274 455.197C439.329 455.118 439.382 454.975 439.372 454.784C439.363 454.593 439.293 454.442 439.219 454.353C439.165 454.289 439.066 454.203 438.825 454.17C431.254 453.138 423.701 452.021 420.449 451.122C415.576 449.775 411.266 445.329 408.047 440.557C407.541 439.806 407.052 439.034 406.584 438.246ZM334.236 248.59C334.09 253.5 333.808 258.345 333.398 263.099C330.091 265.351 325.993 265.814 321.122 265.156C316.187 264.488 310.856 262.73 305.309 260.902C304.873 260.758 304.434 260.613 303.995 260.468C298.129 258.54 291.99 256.604 286.44 256.371C283.526 256.248 280.699 256.594 278.111 257.66C280.086 251.755 282.332 245.779 284.845 239.788C285.28 238.751 286.417 238.157 287.565 238.408L334.236 248.59ZM275.632 265.506C270.2 283.771 267.453 301.014 267.446 315.424C267.497 319.372 267.716 323.085 268.063 326.611C268.791 332.769 270.161 338.085 272.142 342.381C275.215 349.049 279.66 353.092 285.402 354.345C294.733 356.381 304.322 350.183 312.807 336.416C314.617 333.348 316.389 330.056 318.105 326.476C324.217 313.29 329.014 296.33 331.767 277.306C332.166 274.536 332.524 271.724 332.835 268.875C328.958 270.428 324.704 270.538 320.465 269.966C315.056 269.234 309.297 267.333 303.867 265.54C303.395 265.384 302.928 265.229 302.463 265.077C296.476 263.109 290.988 261.419 286.234 261.219C281.785 261.032 278.272 262.152 275.632 265.506ZM297.675 357.752C293.453 359.551 288.99 360.095 284.355 359.083C279.737 358.075 275.902 355.709 272.814 352.31C273.043 353.244 273.273 354.173 273.501 355.098C274.01 357.155 274.514 359.193 274.997 361.233C276.838 369.011 278.355 376.742 278.556 385.345C281.663 379.04 285.321 373.621 289.259 368.413C291.448 365.518 293.693 362.717 295.968 359.882C296.536 359.175 297.104 358.466 297.675 357.752ZM266.874 438.247C266.406 439.033 265.917 439.807 265.41 440.558C262.192 445.329 257.881 449.774 253.009 451.121C249.757 452.022 242.203 453.139 234.631 454.17C234.391 454.203 234.293 454.289 234.239 454.354C234.163 454.442 234.095 454.592 234.085 454.783C234.076 454.975 234.129 455.119 234.184 455.197C234.218 455.246 234.29 455.332 234.518 455.382L289.035 467.276C289.263 467.325 289.363 467.278 289.416 467.247C289.499 467.198 289.608 467.091 289.679 466.912C289.751 466.735 289.753 466.57 289.721 466.458C289.698 466.376 289.647 466.258 289.442 466.128C283.001 462.04 276.613 457.881 274.039 455.709C270.182 452.459 268.14 446.627 267.227 440.955C267.084 440.061 266.965 439.156 266.872 438.247L266.874 438.247ZM235.137 240.142C236.219 240.142 237.172 240.851 237.479 241.884L240.994 253.735L252.916 257.228C253.954 257.532 254.667 258.479 254.667 259.555C254.667 260.631 253.954 261.579 252.916 261.882L240.994 265.376L237.479 277.227C237.172 278.258 236.219 278.967 235.137 278.967C234.054 278.967 233.101 278.258 232.795 277.227L229.281 265.376L217.358 261.882C216.321 261.578 215.607 260.631 215.607 259.555C215.607 258.479 216.321 257.532 217.358 257.228L229.281 253.735L232.795 241.884C233.102 240.851 234.054 240.142 235.137 240.142ZM445.576 241.346C446.657 241.346 447.611 242.053 447.916 243.086L453.655 262.433L473.119 268.137C474.157 268.441 474.87 269.388 474.87 270.463C474.87 271.54 474.157 272.487 473.119 272.791L453.655 278.494L447.916 297.841C447.61 298.872 446.657 299.581 445.576 299.581C444.493 299.581 443.539 298.872 443.234 297.841L437.495 278.494L418.032 272.791C416.993 272.487 416.281 271.54 416.281 270.463C416.281 269.388 416.993 268.441 418.032 268.137L437.495 262.433L443.234 243.086C443.539 242.053 444.493 241.346 445.576 241.346ZM235.137 251.15L233.588 256.374C233.354 257.164 232.732 257.782 231.937 258.015L226.682 259.555L231.937 261.095C232.732 261.328 233.354 261.946 233.588 262.736L235.137 267.959L236.686 262.736C236.921 261.946 237.543 261.328 238.337 261.095L243.593 259.555L238.337 258.015C237.543 257.782 236.921 257.164 236.686 256.374L235.137 251.15ZM445.576 252.353L441.803 265.073C441.568 265.862 440.946 266.481 440.151 266.713L427.354 270.463L440.151 274.214C440.946 274.447 441.568 275.064 441.803 275.855L445.576 288.575L449.347 275.855C449.582 275.064 450.204 274.447 450.999 274.214L463.796 270.463L450.999 266.713C450.204 266.481 449.582 265.862 449.347 265.073L445.576 252.353Z" stroke="white" stroke-width="4" mask="url(#path-2-outside-1_143_1857)"/>
</svg>
