<svg xmlns="http://www.w3.org/2000/svg" viewBox="0 0 75.04 58.45"><defs><style>.cls-1,.cls-2{fill:#b8f3ff;}.cls-1{stroke:#8ac6d0;stroke-miterlimit:10;}.cls-3{fill:#8ac6d0;}</style></defs><title>Asset 2</title><g id="Layer_2" data-name="Layer 2"><g id="Layer_1-2" data-name="Layer 1"><path class="cls-1" d="M37.56,9.66H70.89c2.38,0,3.66,1.26,3.66,3.62q0,20.52,0,41A3.26,3.26,0,0,1,71,57.95H4.09C1.77,57.95.5,56.66.5,54.33q0-20.49,0-41,0-3.69,3.73-3.69Zm0,3.22H5c-1.09,0-1.28.19-1.28,1.29q0,19.62,0,39.23c0,1.15.18,1.33,1.31,1.33H70c1.13,0,1.31-.18,1.31-1.33q0-19.58,0-39.17c0-1.19-.17-1.36-1.34-1.36Z"/><path class="cls-2" d="M37.54,4.83H69.19c.22,0,.45,0,.67,0a1.61,1.61,0,0,1,0,3.2,6,6,0,0,1-.6,0H5.82c-.2,0-.4,0-.6,0a1.61,1.61,0,0,1,0-3.21c.22,0,.45,0,.67,0Z"/><path class="cls-2" d="M37.45,3.22H9.09a6,6,0,0,1-.74,0A1.61,1.61,0,0,1,8.39,0,5.71,5.71,0,0,1,9,0H66.06a4.23,4.23,0,0,1,.74,0A1.62,1.62,0,0,1,68.1,1.66a1.62,1.62,0,0,1-1.41,1.54,6.12,6.12,0,0,1-.74,0Z"/><path class="cls-3" d="M37.52,47.49A13.68,13.68,0,1,1,51.2,33.78,13.7,13.7,0,0,1,37.52,47.49Zm0-3.22A10.46,10.46,0,1,0,27.06,33.82,10.48,10.48,0,0,0,37.52,44.27Z"/><path class="cls-2" d="M14.18,19.32H8.76a1.62,1.62,0,1,1,0-3.22H19.57a1.64,1.64,0,0,1,1.85,1.59c0,1-.73,1.63-1.88,1.63Z"/><path class="cls-2" d="M60.93,48.29h5.36a1.62,1.62,0,1,1,0,3.22H55.4a1.62,1.62,0,1,1,0-3.22Z"/></g></g></svg>