<svg xmlns="http://www.w3.org/2000/svg" viewBox="0 0 61.06 61.05"><defs><style>.cls-1{fill:#b8f3ff;stroke:#8ac6d0;stroke-miterlimit:10;}</style></defs><title>Asset 3</title><g id="Layer_2" data-name="Layer 2"><g id="Layer_1-2" data-name="Layer 1"><path class="cls-1" d="M33,14.3A13.79,13.79,0,0,1,51.85,1.5a1.9,1.9,0,0,1,1.4,2,1.73,1.73,0,0,1-1.43,1.63,3.07,3.07,0,0,1-1.43-.2A10,10,0,1,0,56,10.43a1.84,1.84,0,0,1,.58-2.24,1.81,1.81,0,0,1,2.18,0,2.61,2.61,0,0,1,.74,1A13.77,13.77,0,1,1,33.09,16C33,15.45,33,14.87,33,14.3Z"/><path class="cls-1" d="M33,46.76a13.77,13.77,0,0,1,27.33-2.37,13.61,13.61,0,0,1-.76,7.44,1.89,1.89,0,1,1-3.51-1.34,10,10,0,1,0-11,6.16,9.49,9.49,0,0,0,5.36-.55,2,2,0,0,1,2.75,1c.43,1.09-.12,2.07-1.45,2.58A13.75,13.75,0,0,1,33,46.76Z"/><path class="cls-1" d="M14.32,33a13.77,13.77,0,0,1,2.36,27.33,13.56,13.56,0,0,1-7.43-.76,1.89,1.89,0,1,1,1.35-3.5A10,10,0,1,0,5,50.47a1.91,1.91,0,0,1-1,2.67A1.93,1.93,0,0,1,1.5,51.83,13.76,13.76,0,0,1,14.32,33Z"/><path class="cls-1" d="M28.1,14.29a13.78,13.78,0,1,1-26.61-5A1.92,1.92,0,0,1,4.07,8,1.91,1.91,0,0,1,5,10.64a10,10,0,1,0,19,6.05A9.51,9.51,0,0,0,21,6.9,9.7,9.7,0,0,0,11,4.85l-.66.24a1.87,1.87,0,0,1-2.39-1A1.85,1.85,0,0,1,9,1.61a12.82,12.82,0,0,1,6.64-1A13.67,13.67,0,0,1,28,12.5C28.05,13.09,28.05,13.69,28.1,14.29Z"/><path class="cls-1" d="M14.3,53.8A7,7,0,0,1,14,39.75a1.89,1.89,0,1,1,.17,3.75,3.26,3.26,0,1,0,1,6.41,3.21,3.21,0,0,0,2.43-3,1.9,1.9,0,0,1,1.76-2,1.76,1.76,0,0,1,1.93,1.45,6.75,6.75,0,0,1-.19,2.24A7,7,0,0,1,14.3,53.8Z"/><path class="cls-1" d="M46.8,7.27A7,7,0,0,1,47,21.33a1.88,1.88,0,1,1-.12-3.75,3.27,3.27,0,0,0,0-6.53,3.23,3.23,0,0,0-3.33,3.13A1.89,1.89,0,1,1,39.75,14,7,7,0,0,1,46.8,7.27Z"/><path class="cls-1" d="M7.27,14.34A7,7,0,0,1,21.33,14c0,1.32-.65,2.17-1.77,2.21s-1.89-.73-2-2a3.27,3.27,0,1,0-3.46,3.43,2,2,0,0,1,2,1.27,1.85,1.85,0,0,1-1.77,2.49A7,7,0,0,1,7.27,14.34Z"/><path class="cls-1" d="M47,53.8A7.09,7.09,0,0,1,39.75,47a1.85,1.85,0,0,1,1.76-2.06,1.88,1.88,0,0,1,2,1.94,3.28,3.28,0,0,0,6.51.43,3.28,3.28,0,0,0-3-3.78c-1.27-.09-2-.74-2.07-1.79a1.81,1.81,0,0,1,1.94-2,7,7,0,0,1,5.65,11.06A6.77,6.77,0,0,1,47,53.8Z"/></g></g></svg>