<svg xmlns="http://www.w3.org/2000/svg" viewBox="0 0 75.49 46.29"><defs><style>.cls-1{fill:#8ac6d0;}.cls-2{fill:#b8f3ff;stroke:#8ac6d0;stroke-miterlimit:10;stroke-width:0.96px;}</style></defs><title>Asset 4</title><g id="Layer_2" data-name="Layer 2"><g id="Layer_1-2" data-name="Layer 1"><path class="cls-1" d="M27.93,20H52.65a3.22,3.22,0,0,1,2.93,4.62,3,3,0,0,1-2.31,1.79,6.33,6.33,0,0,1-1,.06H3.65a5,5,0,0,1-1.48-.18A3.21,3.21,0,0,1,0,22.72,3.14,3.14,0,0,1,3.15,20H27.93Z"/><path class="cls-1" d="M44.13,45.81H22.67a3.25,3.25,0,0,1-.3-6.49H65.79A3.15,3.15,0,0,1,69,42a3.18,3.18,0,0,1-3.15,3.79c-2.5,0-5,0-7.51,0Z"/><path class="cls-1" d="M41.13.49h18.4a3.11,3.11,0,0,1,3.25,2.63A3.2,3.2,0,0,1,60,6.93H22.76a3.1,3.1,0,0,1-3.14-2A3.19,3.19,0,0,1,22.42.5c2.84,0,5.67,0,8.51,0Z"/><path class="cls-2" d="M6.94,45.81c-1,0-2,0-3,0a3.24,3.24,0,0,1,0-6.49q3,0,6,0a3.24,3.24,0,0,1,0,6.49Z"/><path class="cls-2" d="M68.8,20c1,0,2.08,0,3.12,0A3.14,3.14,0,0,1,75,23a3.05,3.05,0,0,1-2.72,3.43,67.76,67.76,0,0,1-7,0A3.06,3.06,0,0,1,62.61,23a3.16,3.16,0,0,1,3.07-3C66.71,20,67.75,20,68.8,20Z"/><path class="cls-2" d="M7,.49c1,0,2,0,3.07,0a3.13,3.13,0,0,1,3.12,3.27A3.13,3.13,0,0,1,10,6.94Q7,7,3.89,6.93A3.14,3.14,0,0,1,.76,3.73,3.15,3.15,0,0,1,3.85.49C4.89.47,5.94.49,7,.49Z"/></g></g></svg>