<svg xmlns="http://www.w3.org/2000/svg" viewBox="0 0 59.32 59.32"><defs><style>.cls-1{fill:#8ac6d0;}.cls-2{fill:#b8f3ff;stroke:#8ac6d0;stroke-miterlimit:10;stroke-width:0.75px;}.cls-3{fill:#fff;}</style></defs><title>Asset 5</title><g id="Layer_2" data-name="Layer 2"><g id="Layer_1-2" data-name="Layer 1"><path class="cls-1" d="M19.46,5.75A1.46,1.46,0,1,1,18,4.28,1.47,1.47,0,0,1,19.46,5.75Zm-1.56.55h.22c.12-.19.34-.4.32-.58s-.31-.45-.44-.42a.68.68,0,0,0-.46.46C17.53,5.92,17.77,6.12,17.91,6.3Z"/><path class="cls-1" d="M13.11,7.21a1.46,1.46,0,1,1,1.47-1.45A1.47,1.47,0,0,1,13.11,7.21Zm.56-1.34V5.64c-.19-.13-.38-.36-.56-.35s-.46.29-.45.42a.69.69,0,0,0,.43.49C13.27,6.22,13.48,6,13.67,5.86Z"/><path class="cls-1" d="M8.25,4.28A1.46,1.46,0,1,1,6.77,5.72,1.47,1.47,0,0,1,8.25,4.28Zm-.13,2h.22c.13-.19.35-.38.35-.57s-.29-.46-.42-.44a.69.69,0,0,0-.48.44C7.76,5.9,8,6.11,8.12,6.3Z"/><path class="cls-2" d="M57,.38a2.59,2.59,0,0,1,1.9,2,3.2,3.2,0,0,1,.05.63q0,26.69,0,53.38a2.44,2.44,0,0,1-2.59,2.6H3a2.44,2.44,0,0,1-2.59-2.6Q.38,29.67.38,3a2.59,2.59,0,0,1,2-2.63ZM2.33,11.13v.47q0,22.3,0,44.6c0,.68.11.78.85.78H56.12c.78,0,.87-.08.87-.86q0-22.23,0-44.45v-.54ZM57,9.14A.75.75,0,0,0,57,9c0-2,0-4,0-6.05,0-.47-.18-.6-.73-.6H3.07c-.61,0-.74.13-.74.74q0,2.83,0,5.66c0,.14,0,.28,0,.4Z"/><path class="cls-1" d="M29.61,25.29H7.16C6,25.29,5.75,25,5.75,23.85q0-4.05,0-8.1c0-.87.34-1.22,1.2-1.22H52.38c.86,0,1.2.35,1.2,1.22q0,4.12,0,8.25c0,1-.3,1.29-1.28,1.29Zm-21.89-2H51.59V16.52H7.72Z"/><path class="cls-1" d="M37.47,40.39q0,6,0,11.9c0,1-.32,1.27-1.29,1.27h-13c-1,0-1.3-.31-1.3-1.27q0-11.9,0-23.81c0-.94.32-1.27,1.24-1.27H36.22c.93,0,1.25.33,1.25,1.27Q37.47,34.44,37.47,40.39ZM23.84,29.19V51.58H35.49V29.19Z"/><path class="cls-1" d="M53.58,40.42q0,5.93,0,11.86c0,1-.31,1.3-1.27,1.3H40.2c-.94,0-1.27-.32-1.27-1.25q0-11.93,0-23.86c0-.93.33-1.25,1.27-1.25h12.1c1,0,1.27.32,1.27,1.3Q53.58,34.47,53.58,40.42ZM40.92,29.19V51.58H51.6V29.19Z"/><path class="cls-1" d="M20.39,40.4q0,6,0,11.9c0,.94-.32,1.27-1.25,1.27H7c-.9,0-1.24-.33-1.24-1.23q0-12,0-23.91c0-.88.34-1.22,1.2-1.22h12.2c.91,0,1.24.33,1.24,1.23Q20.39,34.42,20.39,40.4ZM7.73,29.19V51.58H18.41V29.19Z"/><path class="cls-3" d="M15.9,6.3c-.13-.19-.38-.39-.36-.55A.68.68,0,0,1,16,5.29c.13,0,.43.26.44.42s-.21.39-.32.58Z"/><path class="cls-3" d="M11.67,5.86c-.19.12-.4.36-.57.33a.69.69,0,0,1-.43-.49c0-.13.28-.41.45-.42s.37.22.56.35Z"/><path class="cls-3" d="M6.12,6.3c-.12-.19-.36-.4-.34-.57a.69.69,0,0,1,.48-.44c.13,0,.41.28.42.44s-.22.38-.35.57Z"/></g></g></svg>